<?xml version="1.0" encoding="utf-8"?>
<!-- Generator: Adobe Illustrator 17.0.0, SVG Export Plug-In . SVG Version: 6.00 Build 0)  -->
<!DOCTYPE svg PUBLIC "-//W3C//DTD SVG 1.1//EN" "http://www.w3.org/Graphics/SVG/1.1/DTD/svg11.dtd">
<svg version="1.1" id="Layer_1" xmlns="http://www.w3.org/2000/svg" xmlns:xlink="http://www.w3.org/1999/xlink" x="0px" y="0px"
	 width="78.738px" height="51.437px" viewBox="0 -0.005 78.738 51.437" enable-background="new 0 -0.005 78.738 51.437"
	 xml:space="preserve">
<g>
	<rect x="-87.704" y="-58.042" display="none" fill="#FFCB05" width="741.601" height="485.963"/>
	<g>
		<path fill="#FDCE1C" d="M4.839,40.822c-0.069-0.096-0.168-0.175-0.296-0.235c-0.127-0.06-0.28-0.091-0.458-0.091
			c-0.212,0-0.386,0.047-0.522,0.141c-0.121,0.083-0.207,0.191-0.261,0.322H4.92C4.897,40.913,4.871,40.867,4.839,40.822z
			 M8.233,42.542c0,0.242-0.006,0.386-0.017,0.431C8.205,43.017,8.17,43.04,8.112,43.04c-0.055,0-0.089-0.022-0.101-0.065
			c-0.013-0.043-0.019-0.18-0.019-0.41v-1.389H7.198v1.371c0,0.254,0.005,0.424,0.014,0.51c0.009,0.085,0.032,0.168,0.069,0.246
			c0.038,0.079,0.095,0.142,0.174,0.19c0.078,0.048,0.177,0.071,0.296,0.071c0.105,0,0.197-0.025,0.278-0.075
			c0.08-0.05,0.148-0.125,0.203-0.225L8.22,43.51h0.807v-2.335H8.233C8.233,41.175,8.233,42.542,8.233,42.542z M7.991,40.55H7.198
			v0.409h0.793V40.55z M4.226,41.366v1.365c0,0.128-0.007,0.211-0.023,0.25C4.189,43.02,4.158,43.04,4.111,43.04
			c-0.045,0-0.076-0.021-0.092-0.064c-0.016-0.042-0.024-0.133-0.024-0.273v-1.336c0-0.079,0.002-0.143,0.006-0.191H3.24
			c-0.025,0.132-0.038,0.29-0.038,0.479v0.758c0,0.251,0.014,0.44,0.043,0.565c0.029,0.126,0.077,0.233,0.144,0.321
			c0.068,0.089,0.162,0.155,0.284,0.199c0.122,0.044,0.271,0.066,0.446,0.066c0.157,0,0.296-0.026,0.417-0.077
			c0.121-0.051,0.22-0.131,0.297-0.239C4.91,43.14,4.96,43.024,4.984,42.9c0.023-0.124,0.035-0.319,0.035-0.585V41.59
			c0-0.177-0.01-0.314-0.028-0.415H4.22C4.224,41.224,4.226,41.287,4.226,41.366z M13.033,40.881
			c-0.025-0.111-0.081-0.203-0.167-0.275c-0.086-0.073-0.198-0.109-0.334-0.109c-0.109,0-0.205,0.027-0.288,0.082
			c-0.083,0.055-0.154,0.136-0.211,0.245l0.014-0.273H11.24v0.409h1.805C13.042,40.931,13.038,40.903,13.033,40.881z M17.076,39.899
			h-0.793v0.839c-0.067-0.081-0.141-0.141-0.223-0.181c-0.082-0.04-0.172-0.06-0.27-0.06c-0.127,0-0.236,0.036-0.328,0.108
			c-0.092,0.072-0.15,0.155-0.176,0.251c-0.008,0.028-0.014,0.064-0.019,0.103h1.808L17.076,39.899L17.076,39.899z M9.026,40.55
			H8.233v0.409h0.793V40.55z M33.416,43.51h0.793v-2.001c0-0.153,0.004-0.262,0.011-0.334h-0.803V43.51L33.416,43.51z
			 M23.287,42.593c0,0.294,0.007,0.481,0.022,0.561c0.015,0.08,0.051,0.15,0.11,0.212c0.059,0.062,0.127,0.101,0.204,0.118
			c0.077,0.017,0.206,0.026,0.387,0.026h0.32v-0.477c-0.13,0-0.203-0.011-0.221-0.034c-0.018-0.022-0.026-0.13-0.026-0.326v-1.498
			h-0.795L23.287,42.593L23.287,42.593z M26.401,43.51h0.817v-2.335h-0.817V43.51z M20.25,41.393c0,0.123-0.009,0.205-0.028,0.245
			c-0.018,0.04-0.157,0.119-0.418,0.234c-0.244,0.107-0.396,0.201-0.457,0.281c-0.061,0.08-0.092,0.231-0.092,0.453v0.243
			c0,0.299,0.058,0.493,0.174,0.581c0.116,0.089,0.243,0.133,0.382,0.133c0.106,0,0.197-0.026,0.274-0.079
			c0.076-0.053,0.139-0.132,0.187-0.238v0.264h0.771v-1.485c0-0.389-0.009-0.671-0.026-0.85h-0.779
			C20.246,41.229,20.25,41.3,20.25,41.393z M20.25,42.711c0,0.149-0.008,0.241-0.023,0.275c-0.015,0.035-0.047,0.053-0.097,0.053
			c-0.052,0-0.087-0.023-0.105-0.067c-0.018-0.044-0.027-0.144-0.027-0.297c0-0.134,0.01-0.236,0.03-0.308
			c0.021-0.071,0.094-0.16,0.221-0.265L20.25,42.711L20.25,42.711z M34.452,41.46v2.05h0.793v-2.074
			c0-0.099-0.002-0.183-0.006-0.261h-0.794C34.45,41.24,34.452,41.333,34.452,41.46z M27.217,39.899h-0.817v0.471h0.817V39.899z
			 M19.255,41.498v0.199h0.744v-0.31c0-0.09,0.002-0.159,0.006-0.212h-0.729C19.262,41.268,19.255,41.375,19.255,41.498z
			 M11.24,43.51h0.793v-2.001c0-0.153,0.004-0.262,0.01-0.334h-0.803L11.24,43.51L11.24,43.51z M1.145,40.622H0.811v-0.094
			c0-0.08,0.015-0.129,0.044-0.146c0.029-0.017,0.126-0.025,0.29-0.025v-0.458H0.854c-0.177,0-0.307,0.013-0.391,0.04
			c-0.084,0.027-0.149,0.066-0.196,0.117c-0.046,0.051-0.075,0.109-0.087,0.175c-0.011,0.066-0.017,0.195-0.017,0.39H0v0.337h1.145
			V40.622z M0.163,43.51h0.793v-2.335H0.163V43.51z M12.277,41.46v2.05h0.793v-2.074c0-0.099-0.002-0.183-0.006-0.261h-0.794
			C12.274,41.24,12.277,41.333,12.277,41.46z M16.283,41.295v1.37c0,0.165-0.008,0.269-0.026,0.311
			c-0.017,0.043-0.051,0.064-0.102,0.064c-0.044,0-0.075-0.019-0.09-0.057c-0.016-0.038-0.023-0.117-0.023-0.237v-1.45
			c0-0.048,0.002-0.087,0.004-0.12h-0.795c-0.002,0.05-0.002,0.105-0.002,0.165v1.385c0,0.219,0.012,0.376,0.038,0.473
			c0.026,0.097,0.083,0.182,0.173,0.255c0.091,0.074,0.197,0.111,0.32,0.111c0.092,0,0.179-0.022,0.263-0.067
			c0.084-0.045,0.164-0.112,0.239-0.201v0.215h0.793v-2.335h-0.798C16.281,41.209,16.283,41.248,16.283,41.295z M20.757,40.658
			c-0.136-0.107-0.339-0.162-0.607-0.162c-0.224,0-0.406,0.048-0.546,0.143c-0.136,0.093-0.227,0.199-0.275,0.319h1.646
			C20.936,40.844,20.864,40.743,20.757,40.658z M24.296,40.622h-0.214v-0.466h-0.795v0.466h-0.171v0.337h1.18L24.296,40.622
			L24.296,40.622z M31.044,40.822c-0.069-0.096-0.167-0.175-0.295-0.235c-0.128-0.06-0.28-0.091-0.459-0.091
			c-0.212,0-0.386,0.047-0.522,0.141c-0.121,0.083-0.206,0.191-0.261,0.322h1.618C31.103,40.913,31.077,40.867,31.044,40.822z
			 M27.217,40.55h-0.817v0.409h0.817V40.55z M30.432,41.366v1.365c0,0.128-0.008,0.211-0.023,0.25
			c-0.015,0.039-0.046,0.058-0.093,0.058c-0.046,0-0.076-0.021-0.092-0.064c-0.016-0.042-0.024-0.133-0.024-0.273v-1.336
			c0-0.079,0.003-0.143,0.006-0.191h-0.761c-0.025,0.132-0.038,0.29-0.038,0.479v0.758c0,0.251,0.014,0.44,0.043,0.565
			c0.029,0.126,0.077,0.233,0.144,0.321c0.067,0.089,0.162,0.155,0.284,0.199c0.122,0.044,0.27,0.066,0.446,0.066
			c0.157,0,0.296-0.026,0.417-0.077c0.121-0.051,0.22-0.131,0.297-0.239c0.077-0.108,0.128-0.224,0.151-0.348
			c0.024-0.124,0.035-0.319,0.035-0.585V41.59c0-0.177-0.009-0.314-0.028-0.415h-0.771C30.43,41.224,30.432,41.287,30.432,41.366z
			 M35.208,40.881c-0.025-0.111-0.081-0.203-0.166-0.275c-0.086-0.073-0.198-0.109-0.334-0.109c-0.109,0-0.204,0.027-0.287,0.082
			c-0.083,0.055-0.154,0.136-0.211,0.245l0.014-0.273h-0.807v0.409h1.805C35.217,40.931,35.213,40.903,35.208,40.881z"/>
		<g>
			<rect x="2.323" y="8.236" fill="#FDCE1C" width="2.961" height="3.065"/>
			<path fill="#FDCE1C" d="M19.683,20.163c-0.413,0.327-0.804,0.566-1.183,0.703c-0.38,0.137-0.786,0.206-1.221,0.206
				c-0.718,0.001-1.269-0.166-1.655-0.499c-0.386-0.333-0.579-0.759-0.579-1.278c0-0.304,0.072-0.582,0.217-0.834
				c0.146-0.252,0.336-0.454,0.572-0.606c0.235-0.153,0.501-0.268,0.796-0.346c0.217-0.055,0.545-0.108,0.983-0.159
				c0.894-0.102,1.552-0.224,1.974-0.365c0.004-0.144,0.006-0.236,0.006-0.275c0-0.429-0.105-0.731-0.315-0.907
				c-0.282-0.238-0.703-0.357-1.26-0.356c-0.521,0-0.905,0.088-1.153,0.262c-0.247,0.174-0.431,0.481-0.549,0.922l-1.083,0.023
				c0.098-0.441,0.259-0.96,0.485-1.231c0.225-0.272,0.55-0.481,0.977-0.627c0.425-0.147,0.92-0.22,1.481-0.221
				c0.558,0,1.011,0.06,1.359,0.185c0.348,0.124,0.605,0.281,0.769,0.47c0.164,0.189,0.279,0.428,0.344,0.717
				c0.038,0.18,0.056,0.504,0.057,0.972l0.001,1.405c0.001,0.979-0.007,2.296-0.006,2.605l-1.017-0.01
				C19.682,20.697,19.68,20.281,19.683,20.163z M19.589,17.81c-0.402,0.156-1.005,0.29-1.808,0.4
				c-0.455,0.063-0.776,0.134-0.965,0.211c-0.189,0.078-0.334,0.193-0.436,0.343c-0.102,0.151-0.154,0.317-0.154,0.5
				c0,0.281,0.113,0.515,0.337,0.703c0.223,0.187,0.55,0.28,0.981,0.28c0.427,0,0.806-0.09,1.138-0.268
				c0.332-0.178,0.576-0.421,0.731-0.73c0.118-0.238,0.178-0.589,0.178-1.053L19.589,17.81z"/>
			<path fill="#FDCE1C" d="M35.51,20.147c-0.413,0.328-0.804,0.567-1.183,0.703c-0.38,0.137-0.786,0.206-1.221,0.206
				c-0.717,0.001-1.269-0.166-1.655-0.499c-0.386-0.332-0.579-0.759-0.579-1.278c0-0.304,0.072-0.582,0.218-0.834
				c0.146-0.252,0.336-0.454,0.571-0.606c0.236-0.153,0.501-0.269,0.796-0.346c0.217-0.054,0.545-0.108,0.983-0.159
				c0.893-0.102,1.552-0.224,1.974-0.365c0.004-0.144,0.006-0.236,0.005-0.275c0-0.429-0.105-0.732-0.314-0.907
				c-0.283-0.238-0.704-0.357-1.261-0.356c-0.521,0-0.905,0.088-1.153,0.262c-0.248,0.174-0.431,0.481-0.549,0.922l-1.082,0.023
				c0.098-0.441,0.259-0.96,0.485-1.231c0.225-0.272,0.55-0.481,0.977-0.628c0.426-0.147,0.92-0.22,1.481-0.221
				c0.558,0,1.011,0.06,1.36,0.186c0.348,0.124,0.605,0.281,0.769,0.47c0.164,0.189,0.279,0.428,0.345,0.716
				c0.037,0.18,0.056,0.504,0.057,0.972l0.001,1.404c0.001,0.979-0.007,2.296-0.007,2.605l-1.017-0.009
				C35.508,20.682,35.506,20.266,35.51,20.147z M35.415,17.795c-0.401,0.156-1.005,0.29-1.808,0.399
				c-0.455,0.063-0.777,0.134-0.965,0.211c-0.189,0.078-0.334,0.193-0.436,0.343c-0.102,0.151-0.154,0.317-0.154,0.5
				c0,0.281,0.113,0.515,0.337,0.702c0.223,0.187,0.551,0.281,0.981,0.281c0.427-0.001,0.806-0.09,1.138-0.268
				c0.332-0.178,0.575-0.421,0.731-0.73c0.118-0.238,0.178-0.589,0.178-1.053L35.415,17.795z"/>
			<path fill="#FDCE1C" d="M61.067,39.504c0.062-0.069,0.083-0.206,0.041-0.31c-0.042-0.103-0.125-0.034-0.188,0.018
				c0,0-0.062,0.12-0.146,0.137c-0.083,0.017-0.103,0.103-0.124,0.207c-0.02,0.103,0.021,0.119,0.042,0.223
				c0.021,0.103,0.083,0.103,0.083,0.103l0.084-0.137C60.859,39.745,61.005,39.572,61.067,39.504z M61.276,40.346
				c-0.083-0.034-0.104,0.017-0.207,0.068c0,0-0.084,0.103-0.188,0.138c-0.104,0.034-0.02,0.24-0.02,0.24s0.062-0.016,0.146-0.069
				c0.084-0.051,0.063-0.068,0.125-0.103c0.063-0.035,0.083-0.034,0.166-0.069c0.083-0.034,0.062-0.171,0.062-0.171
				S61.359,40.381,61.276,40.346z M60.337,38.714c-0.104-0.033-0.104,0.104-0.062,0.19c0,0-0.021,0.017,0.042,0.223
				c0.063,0.206-0.021,0.189-0.021,0.189l-0.166,0.172c0,0-0.105,0.154-0.208,0.275c-0.104,0.12-0.208,0.12-0.166,0.327
				c0.042,0.206,0.166,0.119,0.229,0.016c0.062-0.103,0.166-0.224,0.207-0.275c0.042-0.051,0.125-0.206,0.167-0.361
				c0.041-0.154,0.125-0.309,0.187-0.498C60.608,38.783,60.441,38.748,60.337,38.714z M62.439,35.929
				c-0.125-0.189-0.251-0.326-0.314-0.498c-0.063-0.171-0.063-0.137-0.063-0.189c0-0.051-0.125-0.189-0.208-0.257
				c-0.083-0.069-0.146,0.017-0.25-0.12c-0.103-0.137-0.103-0.24-0.146-0.395c-0.043-0.155-0.105-0.241-0.146-0.343
				c-0.042-0.103-0.147-0.206-0.147-0.206s-0.125-0.138-0.188-0.224c-0.062-0.085-0.25-0.085-0.334-0.034
				c-0.083,0.052-0.25,0.069-0.291,0.12c0,0,0.042,0.413,0.042,0.481c0,0.069-0.083,0.172-0.145,0.31
				c-0.063,0.138,0,0.344,0.021,0.446c0.021,0.103,0.063,0.206,0.25,0.292c0.188,0.085,0.354,0.137,0.48,0.274
				c0.125,0.138,0.167,0.652,0.167,0.79c0,0.137,0,0.653,0.105,1.047c0.105,0.395-0.353,1.015-0.499,1.341
				c-0.145,0.327,0.063,0.223,0.188,0.257c0.125,0.035,0.104,0.017,0.208,0.035c0.104,0.017,0.125,0.24,0.105,0.343
				c-0.021,0.103-0.229,0.361-0.396,0.533c-0.166,0.172,0,0.189,0.313,0.034c0.312-0.155,0.561-0.516,0.561-0.516
				s0.104-0.068,0.229-0.068c0.125,0,0.25-0.086,0.354-0.362c0.103-0.275,0.249-0.756,0.332-1.202
				c0.083-0.446,0.124-1.031,0.102-1.271C62.751,36.307,62.564,36.118,62.439,35.929z M60.024,38.56
				c0.084-0.103,0.292-0.43,0.333-0.516c0.041-0.085,0.083-0.309,0.125-0.481c0.041-0.172,0.02-0.275,0.041-0.395
				c0.021-0.121-0.105-0.601-0.147-0.928c-0.042-0.326-0.063-0.429-0.292-0.703c-0.23-0.275-0.521-0.137-0.583-0.051
				c0,0-0.187,0.378-0.25,0.55c-0.062,0.172-0.208,0.224-0.291,0.293c-0.083,0.069-0.229-0.034-0.437-0.103
				c-0.208-0.068-0.458,0.104-0.563,0.173c-0.104,0.069-0.291,0.326-0.312,0.601c-0.02,0.275-0.27,0.361-0.374,0.447
				c-0.104,0.086-0.062,0.515-0.062,0.636c0,0.12-0.041,0.842-0.082,0.961c-0.042,0.121-0.249,0.242-0.395,0.276
				c-0.146,0.034-0.292,0.189-0.292,0.189s-0.063,0.052-0.187,0.155c-0.125,0.103-0.083,0.172-0.145,0.292
				c-0.062,0.121-0.145,0.293-0.187,0.379c-0.042,0.086-0.354,0.498-0.437,0.585c-0.083,0.085-0.02,0.498,0.209,0.549
				c0.23,0.052,0.291-0.104,0.354-0.206c0.062-0.104,0.041-0.104,0.124-0.241c0.083-0.137,0,0,0.063-0.034
				c0.062-0.034,0.125-0.051,0.125-0.051s0.042,0.034,0.021,0.085c-0.021,0.052-0.166,0.258-0.27,0.499
				c-0.104,0.24,0.021,0.257,0.229,0.395c0.208,0.137,0.542,0.016,0.895-0.138c0.354-0.155,0.354-0.43,0.458-0.567
				c0.104-0.138,0.188-0.396,0.229-0.533c0.042-0.137,0.041-0.275,0.104-0.412c0.063-0.137,0.271-0.516,0.374-0.635
				c0.104-0.12,0.125-0.138,0.145-0.293c0.021-0.155-0.042-0.378-0.042-0.378s0.062-0.017,0.146,0
				c0.083,0.017,0.27-0.155,0.27-0.155s-0.104,0.258-0.125,0.309c-0.021,0.052,0.042,0.172,0.021,0.309
				c-0.021,0.138,0.104,0.189,0.167,0.172c0.062-0.018,0.167-0.121,0.187-0.189c0.021-0.069,0.187-0.121,0.312-0.413
				c0.125-0.293,0.104-0.103,0.188-0.138C59.755,38.818,59.941,38.664,60.024,38.56z M59.381,40.073
				c-0.02-0.121-0.167-0.103-0.229-0.069c0,0-0.25,0.086-0.417,0.172c-0.167,0.086-0.271,0.258-0.374,0.413
				c-0.104,0.155-0.249,0.481-0.27,0.619c-0.021,0.137-0.02,0.292,0.083,0.343c0.104,0.051,0.146-0.12,0.146-0.12
				s0.103-0.344,0.103-0.464c0-0.12,0.041-0.12,0.062-0.172c0.021-0.051,0.021-0.069,0.083-0.103
				c0.062-0.034,0.021,0.12-0.021,0.241c-0.041,0.12,0,0.154,0.105,0.24c0.104,0.086,0.25,0.034,0.416-0.052
				c0.167-0.086,0.229-0.172,0.291-0.275c0.063-0.104,0.021-0.121,0.021-0.327C59.381,40.312,59.402,40.193,59.381,40.073z
				 M59.962,39.422c0.031-0.05,0.03-0.086,0.03-0.124c0-0.037-0.06-0.049-0.119-0.074c-0.06-0.025-0.11,0.031-0.135,0.112
				c-0.06,0.197,0.015,0.296,0.015,0.296s0.06-0.05,0.12-0.099C59.932,39.484,59.932,39.472,59.962,39.422z M60.068,40.604
				c-0.104,0.086-0.187,0.155-0.249,0.327c-0.062,0.171,0.146,0.154,0.229,0.102c0.084-0.052,0.208-0.241,0.291-0.31
				c0.083-0.069-0.021-0.395-0.021-0.395S60.172,40.519,60.068,40.604z M61.89,33.657c0.017,0.051,0.05,0.091,0.079,0.126
				l-0.327-0.674c0,0.047-0.056,0.204,0.019,0.329C61.737,33.563,61.852,33.548,61.89,33.657z M63.867,36.881l0.324,0.752
				c0,0-0.019-0.267-0.076-0.439C64.058,37.022,63.867,36.881,63.867,36.881z M61.969,33.782l0.054,0.109
				C62.033,33.857,62.004,33.823,61.969,33.782z M63.816,38.247c-0.062,0.172,0.105,0.137,0.125,0.069
				c0.021-0.069-0.021-0.292-0.021-0.292S63.878,38.075,63.816,38.247z M64.604,35.669c0.063-0.018,0.042-0.069,0.042-0.069
				l-0.104-0.068c0,0-0.105-0.008-0.209,0c-0.229,0.017-0.041,0.154-0.041,0.154s0.104,0.017,0.166,0.017
				C64.521,35.704,64.542,35.686,64.604,35.669z M63.856,37.182c-0.063-0.103-0.062,0.086-0.104,0.223c-0.041,0.138,0,0.12,0,0.172
				c0,0.051-0.042,0.172-0.041,0.309c0,0.137,0.062,0.12,0.104,0.017c0.042-0.103,0.063-0.189,0.062-0.327
				C63.877,37.439,63.856,37.182,63.856,37.182z M63.566,38.488c0,0-0.083,0.051-0.125,0.137c-0.041,0.086-0.083,0.172-0.083,0.241
				c0,0.069,0.02,0.171,0.083,0.223c0.063,0.051,0.125-0.017,0.167-0.12c0.042-0.103,0.084-0.224,0.104-0.379
				C63.733,38.436,63.566,38.488,63.566,38.488z M60.831,32.065l-0.229-0.102c-0.125,0-0.062,0.154-0.021,0.326
				c0.042,0.173,0.042,0.104,0.104,0.138c0.062,0.035,0.146,0.034,0.292,0.086c0.146,0.051,0.229-0.051,0.229-0.051
				s-0.021-0.086-0.104-0.155c-0.084-0.07-0.063-0.052-0.146-0.104C60.872,32.151,60.893,32.134,60.831,32.065z M63.107,35.77
				l0.476,0.563C63.487,36.177,63.107,35.77,63.107,35.77z M63.271,35.482c0.042-0.069-0.084-0.086-0.167-0.155
				c-0.083-0.068-0.062-0.017-0.208-0.051c-0.146-0.035-0.228-0.035-0.228-0.035s-0.104,0.069-0.062,0.155
				c0.041,0.086,0.104,0.086,0.291,0.189c0.187,0.102,0.125,0,0.208-0.018C63.188,35.55,63.229,35.55,63.271,35.482z M64.249,38.321
				c0,0-0.038,0.501,0.038,0.595L64.249,38.321z M52.196,41.814c0,0-0.104-0.137-0.167-0.206c-0.061-0.068-0.104-0.257-0.146-0.36
				c-0.042-0.104,0-0.104-0.021-0.19c-0.021-0.086,0.021-0.103,0.021-0.172s-0.042-0.103-0.146-0.155
				c-0.104-0.051-0.082,0.205-0.188,0.173c-0.166-0.051-0.187,0.206-0.207,0.395c-0.021,0.188,0.062,0.12,0.188,0.24
				c0.125,0.12,0.083,0.086,0.146,0.138c0.063,0.052,0.021,0.069,0.104,0.189c0.084,0.12,0.021,0.155,0.084,0.275
				s0.166,0.086,0.166,0.086s0.188,0.017,0.271,0.017c0.083-0.001,0.104-0.034,0.125-0.103c0.02-0.069-0.084-0.155-0.105-0.24
				C52.3,41.814,52.196,41.814,52.196,41.814z M48.822,42.625c-0.042-0.068,0.062-0.24,0.062-0.292c0-0.052,0.021-0.138-0.042-0.223
				c-0.062-0.086-0.063-0.275-0.063-0.275s0-0.207-0.042-0.327c-0.041-0.12-0.001-0.566-0.001-0.618
				c0-0.052-0.124-0.137-0.124-0.137s-0.084-0.035-0.146-0.052c-0.062-0.017-0.125-0.068-0.125-0.068s-0.021-0.138-0.021-0.206
				c0-0.068,0.041-0.12,0.021-0.258c-0.021-0.138-0.167-0.12-0.25-0.068c0,0-0.249,0.258-0.333,0.378
				c-0.083,0.12,0.063,0.137,0.188,0.171c0.125,0.034,0.146,0.051,0.25,0.137c0.104,0.086,0,0.464-0.02,0.652
				c-0.021,0.19-0.083,0.241-0.104,0.396c-0.021,0.154,0.042,0.051,0.146,0.224c0.104,0.171,0.104,0.102,0.145,0.154
				c0.042,0.052,0.084,0.172,0.084,0.223c0,0.051-0.02,0.275-0.145,0.481c-0.125,0.206-0.021,0.188-0.021,0.188
				s0.291-0.068,0.499-0.155c0.209-0.086,0.166-0.189,0.166-0.189S48.864,42.694,48.822,42.625z M49.362,41.285
				c0.041-0.051,0.187-0.309,0.186-0.412c0-0.103-0.021-0.086-0.041-0.173c-0.022-0.086-0.063-0.12-0.084-0.171
				c-0.02-0.052-0.083-0.12-0.146-0.207c-0.063-0.086-0.292-0.394-0.292-0.463c0-0.069,0.02-0.31-0.043-0.43
				c-0.062-0.12-0.229-0.068-0.27-0.017c0,0,0.021,0.137,0,0.224c-0.02,0.086-0.125,0.274-0.208,0.343
				c-0.083,0.069-0.041,0.069,0,0.137c0.042,0.069,0.042,0.052,0.063,0.155c0.021,0.103-0.042,0.069-0.083,0.172
				c-0.041,0.103,0.063,0.103,0.167,0.154c0.104,0.051,0.166,0.069,0.187,0.12c0.021,0.053,0.105,0.207,0.064,0.379
				c-0.043,0.172,0.041,0.292,0.124,0.326c0.083,0.034,0.125,0,0.187-0.018C49.237,41.388,49.32,41.337,49.362,41.285z
				 M54.007,40.627c0-0.051,0-0.206-0.021-0.343c-0.021-0.138-0.104-0.327-0.104-0.327c-0.187,0.069-0.208,0.464-0.145,0.533
				c0.062,0.069,0.041,0.138-0.021,0.276c-0.062,0.137,0.042,0.222,0.146,0.376c0.105,0.155,0.188-0.017,0.188-0.017
				s0-0.103-0.022-0.223C54.007,40.782,54.006,40.679,54.007,40.627z M51.509,41.815c-0.084-0.12-0.063-0.206-0.063-0.206
				c-0.062-0.206-0.104-0.052-0.146,0.069c-0.041,0.12,0,0.12,0,0.171c0,0.052,0.062,0.156,0.043,0.223
				c-0.022,0.069-0.063,0.207-0.021,0.327c0.041,0.121,0.188,0.018,0.188,0.018s0.062-0.103,0.083-0.172
				c0.021-0.068,0.083-0.137,0.062-0.188C51.634,42.005,51.591,41.935,51.509,41.815z M50.736,40.218
				c-0.042-0.051-0.042-0.086-0.083-0.154c-0.042-0.069,0.004-0.138-0.063-0.206c-0.167-0.171-0.166,0.12-0.229,0.224
				c-0.062,0.103-0.062,0.154-0.084,0.24c-0.02,0.087,0,0.139,0.042,0.19c0.042,0.051,0.042,0.188,0.25,0.291
				c0.209,0.103,0.312-0.087,0.333-0.155c0.02-0.069,0-0.171-0.042-0.257C50.819,40.305,50.778,40.269,50.736,40.218z
				 M49.456,41.345c-0.093-0.025-0.187,0.103-0.187,0.103s0,0.129,0.156,0.078C49.581,41.474,49.549,41.37,49.456,41.345z
				 M60.724,12.869l-0.499-0.016C60.34,12.89,60.724,12.869,60.724,12.869z M60.435,32.323c0.021-0.172,0.062-0.24,0.021-0.412
				c-0.043-0.172-0.043-0.189-0.043-0.189s0-0.086-0.083-0.189c-0.083-0.103-0.167-0.034-0.333,0.001
				c-0.166,0.034-0.354,0.069-0.479,0.137l0.062,0.172c0,0,0.104,0.172,0.147,0.223c0.041,0.052,0.187,0.086,0.187,0.086
				s0.188,0.137,0.354,0.292C60.435,32.598,60.414,32.495,60.435,32.323z M54.42,40.32l0.149,0.427c0,0,0.042-0.086-0.062-0.258
				C54.471,40.43,54.443,40.372,54.42,40.32z M60.996,32.185c0.076,0.047,0.076,0.047,0.152,0.109
				c0.076,0.062,0.247,0.219,0.247,0.219l-0.386-0.662c-0.002,0.016-0.006,0.038-0.013,0.068
				C60.957,32.091,60.919,32.138,60.996,32.185z M60.991,31.824l0.017,0.027C61.019,31.771,60.991,31.824,60.991,31.824z
				 M55.756,40.11c0.042-0.051,0.083-0.051,0.187-0.172c0.105-0.121,0.187-0.327,0.291-0.447c0.104-0.12,0.354-0.224,0.479-0.275
				c0.125-0.052,0.292-0.018,0.312-0.241c0.02-0.223-0.044-1.1-0.022-1.151c0.021-0.051-0.042-0.309,0.083-0.429
				c0.125-0.12,0.354-0.31,0.396-0.413c0.042-0.103,0.167-0.293,0.25-0.43c0.083-0.137,0.083-0.172,0.249-0.275
				c0.166-0.103,0.208-0.121,0.291-0.155c0.084-0.035,0.104-0.069,0.313,0c0.208,0.068,0.313,0.119,0.375,0.102
				c0.063-0.018,0.125-0.069,0.104-0.172c-0.021-0.104,0.062-0.206,0.062-0.206s0.145-0.172,0.145-0.241
				c0-0.068,0.25-0.326,0.354-0.43c0.104-0.103,0.042-0.24,0-0.567c-0.042-0.326-0.084-0.481-0.167-0.567
				c-0.084-0.085-0.229-0.137-0.292-0.171c-0.062-0.034-0.125,0.018-0.229-0.12c-0.105-0.137-0.042-0.154-0.167-0.189
				c-0.125-0.034-0.25-0.068-0.313-0.137c-0.062-0.069-0.103-0.103-0.166-0.103c-0.063,0-0.021,0-0.187,0.017
				c-0.167,0.018-0.229,0.069-0.375,0.034c-0.146-0.034-0.146-0.017-0.271-0.068c-0.125-0.052-0.25-0.137-0.354-0.119
				c-0.104,0.017-0.208,0-0.25,0.052c-0.041,0.052-0.083,0.086-0.125,0.154c-0.041,0.069-0.145,0.224-0.207,0.275
				c-0.063,0.052-0.229,0.327-0.229,0.327l-0.187,0.189c0,0-0.02,0.429-0.166,0.635c-0.145,0.207-0.145,0.223-0.166,0.292
				c-0.021,0.068-0.083,0.327-0.145,0.447c-0.063,0.12-0.125,0.189-0.187,0.447c-0.062,0.258-0.333,0.395-0.457,0.55
				c-0.125,0.155-0.25,0.446-0.396,0.55c-0.145,0.103-0.208,0.12-0.25,0.241c-0.041,0.12-0.02,0.172-0.041,0.258
				c-0.021,0.086-0.104,0.171-0.104,0.223s-0.167,0.223-0.083,0.378c0.084,0.155,0.146,0.361,0.167,0.465
				c0.021,0.103,0.084,0.343,0.105,0.446c0.02,0.103,0,0.223,0.021,0.326c0.021,0.103,0.105,0.567,0.126,0.636
				c0.021,0.068,0.021,0.034,0.084,0.326c0.063,0.292,0.104,0.394,0.208,0.326c0.058-0.038,0.083-0.068,0.125-0.223
				c0.042-0.155,0.062-0.344,0.104-0.464c0.042-0.121,0.02-0.429,0.124-0.55c0.105-0.12,0.146-0.207,0.271-0.344
				c0.125-0.137,0.208-0.309,0.167-0.395c-0.042-0.085-0.146-0.034-0.105-0.206c0.042-0.172,0.062-0.172,0.146-0.241
				c0.083-0.068,0.249-0.086,0.166,0.035c-0.083,0.12-0.145,0.137-0.145,0.206c0,0.068,0,0.121,0.062,0.189
				c0.064,0.069,0.064,0.155,0.042,0.206c-0.021,0.051,0.041,0.017-0.104,0.171c-0.146,0.155-0.187,0.122-0.187,0.207
				c0,0.086-0.021,0.137,0,0.223c0.021,0.086,0.104,0.154,0.063,0.206c-0.042,0.051-0.105,0.086-0.125,0.137
				c-0.021,0.052-0.105,0.155-0.105,0.207c0,0.051-0.041,0.12,0.021,0.188c0.063,0.069,0.167,0.051,0.229,0
				C55.631,40.23,55.715,40.162,55.756,40.11z M54.42,40.32l-0.06-0.174C54.36,40.146,54.379,40.22,54.42,40.32z M60.207,12.845
				c-0.086-0.047-0.201,0.001-0.201,0.001l0.22,0.007C60.218,12.85,60.212,12.847,60.207,12.845z M65.552,12.674l-0.632-0.023
				c0,0,0.2,0.071,0.344,0.071C65.409,12.721,65.552,12.674,65.552,12.674z M59.499,32.874c-0.438,0.103-0.104,0.257,0,0.395
				c0.104,0.137,0.062,0.051,0.209,0.086c0.145,0.034,0.146,0.068,0.187,0.12c0.042,0.051,0.167,0.12,0.313,0.12
				c0.146,0,0.104-0.086,0.166-0.189c0.062-0.104,0.104-0.069,0.188-0.155c0.083-0.086,0.229-0.103,0.583-0.052
				c0.354,0.051,0.229-0.12,0.167-0.241c-0.063-0.12-0.459-0.188-0.646-0.222c-0.187-0.034-0.437,0.018-0.646,0.086
				C59.811,32.891,59.499,32.874,59.499,32.874z M52.161,4.492l-0.036-0.061C52.125,4.431,52.134,4.459,52.161,4.492z
				 M70.426,31.823c0.017-0.058,0.122-0.144,0.122-0.144l-0.504,0.178c0.023-0.003,0.046-0.005,0.069-0.005
				C70.304,31.852,70.408,31.88,70.426,31.823z M69.614,21.986l0.032-0.151c-0.002,0.003-0.002,0.006-0.003,0.008
				C69.614,21.914,69.614,21.986,69.614,21.986z M47.472,3.197l0.039,0.004l-0.066-0.05L47.472,3.197z M52.229,4.552
				c-0.03-0.019-0.053-0.04-0.068-0.06l0.106,0.181c0.014-0.011,0.025-0.018,0.025-0.018S52.313,4.603,52.229,4.552z M42.277,1.537
				c0.07,0,0.142-0.011,0.17-0.046L42.277,1.537z M45.336,3.118c0.018-0.014,0.034-0.024,0.048-0.035l-0.218-0.141
				C45.166,2.942,45.187,3.222,45.336,3.118z M47.139,3.456c-0.075-0.009-0.106,0-0.13,0.011l0.401,0.022
				C47.41,3.489,47.285,3.473,47.139,3.456z M50.935,16.043c-0.347-0.383-0.765-0.575-1.253-0.575
				c-0.48,0.001-0.888,0.19-1.225,0.568c-0.336,0.378-0.504,0.939-0.503,1.683c0.001,0.81,0.168,1.401,0.5,1.773
				c0.333,0.372,0.75,0.557,1.25,0.557c0.497,0,0.914-0.187,1.249-0.557c0.336-0.37,0.504-0.951,0.503-1.742
				C51.456,16.996,51.281,16.426,50.935,16.043z M75.575,50.009c0,0,0-0.172,0-0.258c0-0.086-0.139-0.315-0.139-0.315L75.575,50.009
				z M75.262,49.019l-0.092-0.272c0.022,0.116,0.057,0.201,0.057,0.201L75.262,49.019z M75.069,48.446l0.101,0.301
				c-0.005-0.028-0.01-0.056-0.013-0.086C75.139,48.503,75.086,48.503,75.069,48.446z M50.38,38.02
				c0.062,0.069,0.105-0.035,0.146-0.086c0.042-0.052,0-0.086,0-0.172c0-0.086,0.021-0.103,0.02-0.172
				c0-0.069-0.021-0.137-0.062-0.189c-0.042-0.051-0.105-0.137-0.167-0.086c-0.063,0.051-0.042,0.103-0.042,0.223
				c0,0,0.084,0.206,0.042,0.292C50.275,37.917,50.317,37.951,50.38,38.02z M67.138,19.56c0.356-0.398,0.533-1.005,0.532-1.821
				c-0.001-0.769-0.181-1.35-0.54-1.746c-0.359-0.396-0.804-0.594-1.337-0.593c-0.54,0.001-0.989,0.199-1.345,0.593
				c-0.356,0.394-0.534,0.99-0.533,1.785c0.001,0.796,0.179,1.392,0.536,1.788c0.357,0.396,0.806,0.593,1.346,0.593
				C66.335,20.158,66.781,19.958,67.138,19.56z M78.738,46.324c0-0.085-0.063-0.24-0.125-0.429
				c-0.063-0.188-0.084-0.326-0.125-0.395c-0.042-0.069-0.063-0.206-0.126-0.498c-0.063-0.292-0.063-0.429-0.104-0.618
				c-0.017-0.079-0.024-0.119-0.03-0.151c0.029,0.078,0.039,0.136,0.039,0.136l-0.087-0.631c0,0-0.027,0.099-0.031,0.205
				c-0.03-0.205-0.019-0.526-0.037-0.624c-0.021-0.12-0.021-0.429-0.021-0.567c0-0.137,0.041-0.413,0.062-0.533
				c0.017-0.098,0.033-0.151,0.005-0.259l0.032-0.291c0.028-0.018,0.065-0.033,0.149-0.102c0.124-0.103,0.021-0.052-0.104-0.24
				c-0.125-0.19,0.042-0.138,0.02-0.292c-0.021-0.154-0.063-0.412-0.104-0.515c-0.042-0.103,0-0.361-0.001-0.481
				c0-0.058-0.065-0.179-0.145-0.31l-0.141-0.571c0.048-0.01,0.096-0.013,0.118-0.013c0.063,0,0.229-0.035,0.25-0.087
				c0.021-0.052-0.042-0.086-0.147-0.257c-0.016-0.028-0.031-0.054-0.044-0.079l-0.101-0.409c0.003-0.097,0.013-0.108-0.043-0.2
				c-0.062-0.103-0.083-0.206-0.104-0.292c-0.021-0.086,0.021-0.103-0.021-0.24c-0.004-0.015-0.008-0.03-0.013-0.045
				c0.002-0.045,0-0.081-0.005-0.096c-0.013-0.047-0.006-0.066-0.047-0.124c-0.016-0.072-0.031-0.135-0.04-0.165
				c-0.021-0.069-0.021-0.172-0.021-0.172l-0.062-0.395c0,0-0.042-0.326-0.042-0.378c0-0.046-0.018-0.12-0.051-0.208
				c-0.002-0.016-0.007-0.028-0.014-0.039c-0.044-0.107-0.145-0.358-0.186-0.561c-0.026-0.131,0.015-0.347,0.054-0.522l0.008,0.11
				c0,0,0.052-0.187,0.052-0.373c0-0.026-0.002-0.05-0.006-0.073c-0.005-0.071-0.026-0.122-0.026-0.207
				c0-0.121-0.062-0.121-0.125-0.223c-0.062-0.102-0.041-0.189-0.083-0.275c-0.016-0.033-0.039-0.03-0.067-0.017l-0.407-0.696
				c0,0,0.052,0.129,0.052,0.273c0,0.014,0,0.028-0.001,0.041c-0.01-0.036-0.021-0.074-0.035-0.115
				c-0.104-0.309,0.02-0.207,0.041-0.292c0.021-0.086-0.021-0.206-0.021-0.309c0-0.103-0.021-0.086-0.104-0.155
				c-0.043-0.035-0.075-0.008-0.109,0.026l-0.204-0.169c0-0.01,0-0.019,0.001-0.029c0-0.026-0.006-0.045-0.018-0.06
				c-0.001-0.017-0.003-0.028-0.003-0.028c-0.008,0.003-0.015,0.003-0.023,0.005c-0.028-0.015-0.067-0.02-0.117-0.019l-0.075-0.062
				c-0.001-0.039,0.015-0.092,0.026-0.145c0.021-0.104,0.062-0.258,0.062-0.258s-0.042-0.137-0.083-0.24
				c-0.005-0.012-0.008-0.025-0.01-0.036c0.006,0.015,0.014,0.028,0.027,0.038c0.104,0.086,0.104,0.086,0.104,0.086l-0.095-0.258
				c0.008-0.012,0.015-0.019,0.015-0.019l0.062-0.206l-0.062-0.172l-0.125-0.103l-0.084-0.258l0.041-0.274l-0.021-0.258
				l-0.062-0.086l-0.035-0.302c0,0-0.002,0.002-0.003,0.003l0.058-0.096c0,0,0.125-0.069,0.271-0.086
				c0.146-0.017,0.125-0.258,0.125-0.258l-0.139-0.18l-0.017-0.329c0,0-0.013,0.018-0.027,0.045
				c0.006-0.092,0.016-0.204,0.016-0.204l-0.084-0.258c0,0-0.084-0.121-0.125-0.327c-0.028-0.142-0.168-0.228-0.251-0.267
				l-0.06-0.102c0.003-0.047,0.008-0.112,0.018-0.18c0.021-0.138-0.062-0.327-0.062-0.327l-0.125-0.206l0.041-0.155
				c0,0,0.027-0.058,0.026-0.145c0.002-0.004,0.003-0.008,0.005-0.012c0.011-0.038,0.001-0.066-0.021-0.09
				c-0.038-0.092-0.142-0.136-0.197-0.166c-0.062-0.034-0.062-0.275-0.062-0.275l0.041-0.327l-0.045-0.161
				c-0.002-0.008-0.004-0.016-0.007-0.022l-0.011-0.039l-0.083-0.069l-0.124,0.018c0,0,0,0-0.125-0.052
				c-0.064-0.026-0.074,0.001-0.076,0.053c-0.025,0.038-0.044,0.106-0.058,0.176l0.034-0.003c-0.002,0.005-0.003,0.011-0.005,0.016
				c-0.062,0.138-0.042,0.172-0.042,0.172l-0.02-0.004c0.008-0.047,0.017-0.115,0.032-0.18l-0.259,0.017l-0.045-0.073l-0.167-0.223
				c0,0-0.104-0.052-0.229-0.068c-0.1-0.014-0.107,0.028-0.128,0.071c-0.079,0.046-0.133,0.139-0.144,0.185
				c-0.003,0.012-0.005,0.027-0.006,0.042l0.076-0.061c-0.031,0.097-0.064,0.222-0.09,0.295c-0.005,0.016-0.014,0.029-0.025,0.04
				c0.033-0.097,0.033-0.204,0.039-0.275l-0.355,0.287c-0.012-0.006-0.023-0.011-0.033-0.018c-0.104-0.068-0.292,0.104-0.312,0.035
				c-0.013-0.039-0.108-0.062-0.186-0.073l-0.128-0.089c-0.01-0.038-0.024-0.087-0.042-0.147c-0.026-0.083-0.074-0.121-0.121-0.152
				c-0.006-0.009-0.012-0.018-0.017-0.028c-0.022-0.032-0.055-0.04-0.09-0.037c-0.059-0.023-0.126,0.045-0.126,0.045l-0.004,0.005
				c-0.015,0.01-0.025,0.017-0.025,0.017l0.009,0.006l-0.105,0.145l-0.041,0.12c0,0,0,0.241,0.021,0.344
				c0.009,0.049,0.001,0.102-0.011,0.15l-0.045-0.349c-0.052,0.172,0,0.416,0,0.416l0.016,0.047
				c-0.001,0.004-0.001,0.007-0.001,0.01c0,0.052,0.125,0.412,0.166,0.498c0.042,0.086,0.063,0.189,0.084,0.292
				c0.014,0.065,0.027,0.197,0.009,0.299c-0.007-0.081-0.018-0.205-0.029-0.242c-0.018-0.058-0.106-0.215-0.106-0.215l0.128,0.484
				c-0.012,0.048-0.032,0.088-0.064,0.104c-0.104,0.052-0.125,0.241-0.145,0.309c-0.014,0.047-0.076,0.046-0.134,0.057
				c0.02-0.02,0.035-0.046,0.043-0.08l-0.317,0.11c-0.015-0.003-0.03-0.005-0.045-0.008c-0.001,0-0.003-0.001-0.003-0.002
				c-0.08-0.026-0.109-0.022-0.13-0.007c-0.065,0.005-0.098,0.03-0.128,0.068c-0.123,0.031-0.124,0.096-0.124,0.096l0.067-0.023
				c-0.012,0.014-0.025,0.029-0.041,0.045c-0.104,0.103-0.354,0.035-0.521,0.052c-0.109,0.011-0.101,0.045-0.083,0.101
				c-0.015,0.026-0.025,0.054-0.031,0.083c-0.011,0.055-0.036,0.127-0.062,0.184c-0.027,0.021-0.054,0.045-0.073,0.079
				c-0.011,0.017-0.017,0.04-0.021,0.064c-0.018,0.025-0.035,0.054-0.052,0.09c-0.035,0.071,0.017,0.243,0.017,0.243l0.037-0.083
				c0.004,0.049,0.005,0.096-0.001,0.133c-0.021,0.119,0.25,0.446,0.25,0.583c0,0.048-0.008,0.119-0.017,0.192
				c-0.011,0.051-0.021,0.111-0.023,0.162c-0.012,0.074-0.022,0.128-0.022,0.128l0.397,0.343l0.003,0.015l-0.326,0.694
				c0,0,0.331-0.086,0.383-0.072c0.003,0.001,0.006,0.001,0.008-0.001c-0.003,0.042-0.007,0.069-0.007,0.069l-0.25,0.017
				l-0.229,0.138c0,0-0.145,0.189-0.249,0.344c-0.105,0.155-0.208,0.327-0.208,0.327l-0.25-0.069l-0.262-0.043l0.247-0.087
				c-0.108,0.015-0.208,0.057-0.264,0.085l-0.033-0.006l-0.147-0.051l-0.16-0.092c0.004-0.004,0.008-0.007,0.012-0.011l-0.656-0.499
				c-0.095-0.204-0.204-0.448-0.217-0.582c-0.022-0.223-0.209-0.498-0.209-0.498l-0.167-0.31c0,0-0.146-0.24-0.209-0.377
				c-0.063-0.137-0.084-0.258-0.209-0.275c-0.027-0.004-0.052,0.003-0.076,0.015c-0.06-0.024-0.105-0.013-0.105-0.013l0.052,0.055
				c-0.056,0.064-0.097,0.172-0.122,0.286c-0.041,0.19-0.041,0.378-0.041,0.378s0,0.105,0,0.227l-0.029-0.5
				c-0.089,0.087,0.001,0.491,0.029,0.602c0,0.062,0,0.122,0,0.17c0,0.172,0.125,0.258,0.187,0.447
				c0.034,0.101,0.002,0.148-0.035,0.169c-0.022-0.094-0.044-0.219-0.023-0.269l-0.518-0.079c-0.083-0.15-0.031-0.196-0.09-0.473
				c-0.052-0.244-0.076-0.296-0.107-0.457l-0.061-0.454c-0.014-0.145-0.021-0.257-0.021-0.257s-0.021-0.103-0.062-0.275
				c-0.001-0.004-0.002-0.007-0.003-0.011c0.004,0.005,0.008,0.009,0.014,0.014l-0.024-0.067c-0.01-0.086,0.036-0.034,0.054-0.092
				c0.015-0.051-0.004-0.064-0.032-0.095c0-0.003,0.001-0.004,0.001-0.007c0-0.084-0.024-0.095-0.129-0.179
				c-0.003-0.004-0.005-0.006-0.008-0.011c-0.041-0.069-0.083-0.172-0.125-0.292c-0.041-0.12-0.062-0.189-0.062-0.189l-0.23-0.258
				c0,0-0.005-0.012-0.013-0.032c-0.011-0.035-0.024-0.086-0.038-0.153c-0.014-0.07-0.057-0.134-0.106-0.19l0.049,0.122
				c-0.038-0.069-0.093-0.136-0.124-0.197c0.025,0.022,0.051,0.047,0.075,0.075l-0.119-0.291c-0.005-0.017-0.013-0.037-0.023-0.058
				l-0.012-0.029c0,0-0.001,0.002-0.001,0.002c-0.012-0.022-0.026-0.046-0.044-0.072c-0.125-0.189-0.187-0.103-0.272-0.189
				c-0.083-0.086-0.209-0.308-0.209-0.308v-0.224l0.064,0.018c-0.018,0.013-0.028,0.034-0.028,0.062
				c0,0.119,0.115,0.356,0.115,0.356l0.206-0.339l0.019,0.005c0,0,0.083-0.035,0.166-0.086c0.084-0.052,0.021-0.086,0-0.206
				c-0.019-0.113-0.147-0.15-0.267-0.196l0.2-0.33c0.048,0.002,0.07-0.014,0.213-0.041c0.187-0.034,0.062-0.12,0.062-0.292
				c0-0.171,0.02-0.344,0.02-0.344s0.042-0.206,0.083-0.292c0.041-0.086,0.125-0.258,0.208-0.412
				c0.083-0.155,0.104-0.344,0.104-0.344s0.062-0.189,0.103-0.258c0,0,0.003-0.027,0.016-0.071l0.157-0.049l0.181,0.034l0.208,0.034
				l0.14-0.039c0.125,0.009,0.07-0.088,0.024-0.147l-0.018-0.107c0,0,0.02-0.137,0.083-0.206c0.062-0.069,0.104-0.24,0.104-0.24
				s0-0.015,0-0.038l0.025,0.169l0.325-0.447c0.109,0.032,0.439,0.129,0.525,0.143c0.073,0.012,0.168,0.032,0.268,0.043
				c0.21,0.037,0.37-0.006,0.476-0.058c0.029-0.009,0.053-0.016,0.068-0.02c0.063-0.017,0.353-0.172,0.353-0.292
				c0-0.12,0-0.155,0.021-0.275c0.009-0.052,0.038-0.1,0.067-0.139l-0.033,0.158c0.024-0.066,0.03-0.134,0.128-0.259
				c0.02-0.015,0.062-0.034,0.149-0.033c0.077-0.001,0.161,0.063,0.238,0.132l-0.059,0.003c0,0,0.055,0.065,0.177,0.106
				c0.022,0.02,0.043,0.038,0.062,0.05c0.104,0.069,0.166,0,0.228-0.018c0.001,0,0.002-0.001,0.003-0.001
				c0.15-0.02,0.094-0.109,0.063-0.145c-0.002-0.009-0.002-0.015-0.003-0.025c-0.021-0.102-0.042-0.326-0.042-0.326l0.042-0.154
				l0.019-0.008l0.194,0c0.049,0.021,0.118,0.044,0.204,0.06c0.115,0.021,0.144-0.023,0.148-0.06l0.4,0c0,0,0.025-0.001-0.126-0.042
				c0.005-0.001,0.01-0.001,0.015-0.001c0.167-0.017,0.167,0.154,0.208,0.258c0.028,0.067,0.046,0.17,0.067,0.262l-0.02,0.021
				c0,0,0.011,0.018,0.035,0.039c0.007,0.027,0.014,0.052,0.022,0.073c0.042,0.103,0.146,0.068,0.208,0.034
				c0.055-0.03,0.062-0.217,0.062-0.356c0.017-0.103,0.017-0.169,0.017-0.169l-0.009,0.011c0.013-0.106,0.044-0.211,0.076-0.276
				c0.042-0.085-0.001-0.257,0.02-0.309c0.017-0.042,0.033-0.144-0.009-0.227l0.029-0.254l0.001-0.001c0,0,0.27-0.052,0.333-0.07
				c0.062-0.017,0.167,0,0.229,0c0.036,0,0.037-0.052,0.032-0.109l0.418-0.236c0,0-0.003-0.001-0.007-0.003
				c0.063,0.013,0.051,0.026,0.098,0.039c0.063,0.017,0.188,0.016,0.292,0c0.105-0.017,0.083-0.052,0.208-0.121
				c0.125-0.069,0.27-0.241,0.354-0.258c0.083-0.017,0.166,0,0.187-0.103c0.021-0.102-0.104-0.205-0.125-0.274
				c-0.019-0.061-0.021-0.121-0.035-0.239l0.392-0.162c0.087,0.055,0.163,0.108,0.163,0.108s-0.004-0.02-0.011-0.053
				c0.021,0.014,0.034,0.021,0.034,0.021l-0.029-0.142l-0.029,0.012c-0.014-0.066-0.032-0.144-0.05-0.216
				c-0.041-0.172-0.041-0.499-0.021-0.773c0.02-0.275,0.104-0.31,0.125-0.396c0.015-0.063,0.097-0.163,0.173-0.259l-0.084,0.21
				c0,0,0.057-0.125,0.124-0.262c0.013-0.017,0.025-0.034,0.036-0.05c0.047-0.067,0.067-0.142,0.08-0.221
				c0.017-0.067,0.017-0.107,0.017-0.107l-0.004,0.012c0.003-0.031,0.007-0.063,0.011-0.096c0.021-0.155-0.104-0.189-0.146-0.292
				c-0.041-0.103-0.084-0.223-0.104-0.292c-0.004-0.011-0.005-0.022-0.006-0.033c0.034,0.043,0.076,0.074,0.076,0.132l-0.029-0.64
				c0,0-0.088,0.013-0.128,0.072c0.003-0.019,0.01-0.039,0.023-0.064c0.063-0.12,0.25-0.121,0.25-0.121s0.375,0.034,0.604,0.154
				c0.229,0.121,0.167,0.172,0.438,0.327c0.271,0.154,0.292-0.069,0.458-0.069c0.166,0,0.333,0.034,0.396-0.103
				c0.027-0.061,0.014-0.107-0.015-0.148c0.004-0.029,0.007-0.062,0.014-0.097c0.024-0.123-0.101-0.14-0.227-0.188
				c-0.022-0.066-0.034-0.133-0.023-0.168c0.021-0.069,0.021-0.155,0.021-0.224c0-0.043-0.09-0.066-0.193-0.089l-0.303-0.446
				c0.007-0.037-0.002-0.046-0.043-0.073c-0.019-0.027-0.038-0.045-0.038-0.045l0.025,0.036c-0.023-0.015-0.053-0.036-0.094-0.07
				c-0.147-0.12-0.271-0.034-0.271-0.034s-0.104-0.102-0.147-0.154c-0.041-0.051-0.083-0.086-0.208-0.155
				c-0.125-0.069-0.396-0.017-0.396-0.017l-0.167-0.068l-0.333-0.137c0,0-0.063-0.069-0.063-0.12c0-0.051-0.168-0.103-0.229-0.155
				c-0.055-0.045-0.094-0.01-0.16,0.022c-0.032,0.004-0.063,0.009-0.091,0.015l0.018,0.009c-0.018,0.003-0.035,0.003-0.052,0
				c0.011-0.003,0.022-0.006,0.035-0.009l-0.149-0.078c-0.037-0.068-0.31-0.166-0.35-0.216c-0.042-0.052-0.396-0.034-0.563-0.017
				c-0.167,0.017-0.084-0.035-0.125-0.103c-0.042-0.068-0.062-0.068-0.187-0.068c-0.125,0-0.125,0.051-0.229,0.137
				c-0.005,0.005-0.012,0.009-0.019,0.013c-0.013,0.004-0.025,0.008-0.039,0.011c-0.063,0.013-0.133,0.033-0.186,0.049
				c-0.163,0.022-0.356,0.024-0.444,0.014c-0.146-0.017-0.958,0.001-1.146-0.016c-0.076-0.007-0.137,0.006-0.189,0.027
				c-0.067,0-0.139,0.04-0.199,0.085l0.144-0.059c-0.051,0.028-0.093,0.061-0.131,0.084c-0.047,0.029-0.095,0.064-0.143,0.096
				c0.016-0.018,0.066-0.072,0.13-0.121l-0.423,0.175l0.28-0.046c-0.032,0.02-0.062,0.038-0.094,0.052c-0.083,0.034-0.146,0-0.25,0
				c-0.105,0-0.23-0.069-0.333-0.137c-0.105-0.069,0,0-0.042-0.069c-0.042-0.069,0-0.086-0.021-0.155
				c-0.018-0.06-0.069-0.041-0.165,0.023c-0.042,0.011-0.095,0.029-0.152,0.049c-0.143,0.048-0.287,0.142-0.287,0.142l0.117,0.012
				c-0.076,0.005-0.279,0.019-0.346,0.033c-0.083,0.018-0.229,0-0.333-0.017c-0.099-0.016-0.086-0.033-0.175-0.079
				c-0.003-0.006-0.008-0.012-0.009-0.019c-0.024-0.077-0.122-0.046-0.22-0.03c-0.063-0.007-0.128-0.012-0.184-0.018l-0.171-0.046
				c0,0,0.053,0.021,0.119,0.041c-0.042-0.005-0.074-0.012-0.088-0.02c-0.062-0.034-0.396-0.068-0.48-0.086
				c-0.082-0.017-0.208,0.017-0.271,0.017c-0.037,0-0.072-0.007-0.1-0.022c0.057,0.021,0.128,0.025,0.215-0.001l-0.384-0.138
				c0.002,0.003,0.005,0.006,0.007,0.009c-0.021-0.011-0.043-0.021-0.064-0.03l0.057,0.021c-0.007-0.01-0.013-0.02-0.019-0.029
				c-0.058-0.095-0.258-0.071-0.258-0.071l0.124,0.045c-0.108-0.009-0.338,0.03-0.391,0.045c-0.062,0.017-0.417,0.035-0.521,0.035
				c-0.104,0-0.333-0.034-0.437-0.052c-0.105-0.017-0.188,0.018-0.417,0.035c-0.03,0.002-0.058,0.007-0.083,0.012l0.001-0.001
				c-0.127,0.015-0.517,0.167-0.517,0.167l-0.02,0.089c-0.012,0.012-0.021,0.025-0.025,0.042c0,0-0.001-0.327-0.333-0.051
				c-0.066,0.055-0.375,0.121-0.542,0.121c-0.066,0-0.141-0.032-0.213-0.075c0.042,0.01,0.084,0.017,0.128,0.018
				c0.201,0,0.316-0.024,0.316-0.024l-0.593-0.097c-0.049-0.038-0.09-0.074-0.117-0.096c-0.083-0.068-0.229-0.034-0.229-0.034
				s-0.23,0.103-0.312,0.172c-0.082,0.068-0.144,0.036-0.325,0.002c0.067,0.007,0.147-0.004,0.369-0.064l-0.613-0.06
				c-0.012-0.015-0.022-0.031-0.035-0.049c-0.063-0.086-0.229-0.017-0.292,0.018c-0.062,0.034-0.479,0.087-0.479,0.087
				s-0.126-0.018-0.584,0.018c-0.287,0.022-0.394,0.05-0.46,0.077l-0.671-0.111c0,0,0.057,0.119,0.259,0.143
				c0.124,0.014,0.27,0.001,0.363-0.01c-0.017,0.008-0.033,0.015-0.053,0.022c-0.104,0.035-0.146,0.017-0.229,0.052
				c-0.083,0.035-0.625-0.206-0.625-0.206l-0.479-0.189c0,0-0.313-0.119-0.521-0.154c-0.208-0.034-0.5-0.017-0.645-0.068
				c-0.146-0.051-0.396-0.189-0.646-0.291c-0.137-0.056-0.281-0.113-0.388-0.161c0.023,0.002,0.045,0.003,0.068,0.001l-0.222-0.08
				c-0.009-0.006-0.016-0.013-0.02-0.018c-0.042-0.051-0.355-0.137-0.355-0.137s-0.312-0.069-0.438-0.102
				c-0.013-0.004-0.023-0.006-0.032-0.008l-0.54-0.29c0,0,0,0.03,0.001,0.074c-0.007-0.059-0.014-0.12-0.023-0.179
				c-0.031-0.206-0.032-0.18-0.031-0.257c0-0.04-0.023-0.11-0.044-0.168l0.037-0.145c0.051-0.065,0.09-0.178,0.09-0.178
				c0.062-0.121,0.124-0.447,0.062-0.756c-0.01-0.047-0.015-0.086-0.018-0.118c0.007-0.029,0.011-0.057,0.01-0.079l-0.011,0.042
				c-0.001-0.03,0.002-0.054,0.007-0.073c0.001,0.005,0.001,0.008,0.002,0.013c0.002,0.005,0.002,0.012,0.003,0.018l0.021-0.08
				c0.023-0.026,0.052-0.037,0.069-0.066c0.027-0.045,0.018-0.097-0.001-0.184l0.013-0.049c0,0-0.007,0.015-0.017,0.036
				c-0.01-0.045-0.024-0.098-0.036-0.164c-0.042-0.206-0.021-0.361-0.042-0.43c-0.006-0.02-0.016-0.042-0.027-0.066
				c-0.002-0.004-0.002-0.009-0.003-0.013c-0.008-0.019-0.018-0.039-0.031-0.057c-0.017-0.034-0.034-0.065-0.043-0.087
				c-0.018-0.045-0.069-0.104-0.138-0.175l-0.08-0.223c0.003-0.046,0.009-0.089,0.009-0.117c0-0.068-0.022-0.756-0.022-0.808
				c0-0.051,0.021-0.155,0.062-0.31c0.042-0.155,0.146-0.172,0.209-0.292c0.062-0.12,0.125-0.103,0.125-0.103
				s-0.001-0.052-0.01-0.099l0-0.001c0.018-0.044,0.001-0.065-0.032-0.076l-0.006,0.015c-0.038-0.013-0.099,0.006-0.099,0.006
				l-0.046-0.032c0.055,0,0.113-0.002,0.151,0.01l0.108-0.267c0.006-0.005,0.013-0.012,0.016-0.021
				c0.021-0.051-0.083-0.103-0.104-0.206c-0.012-0.06-0.131-0.091-0.228-0.106l-0.126-0.095v-0.04l0-0.103L54.024,5.33
				c-0.007-0.009-0.014-0.017-0.022-0.025c-0.064-0.065-0.091-0.001-0.137,0.056l0.029,0.022c-0.074,0.057-0.111,0.059-0.111,0.059
				s-0.042-0.052-0.063-0.103c-0.01-0.025-0.005-0.054-0.001-0.085l0.045,0.034c0.002-0.011,0.005-0.023,0.008-0.033
				c0.008-0.033-0.015-0.054-0.047-0.066c-0.001-0.013-0.001-0.026-0.006-0.039c-0.021-0.068,0.083-0.206,0.104-0.275
				c0.021-0.069-0.021-0.086-0.042-0.172c-0.013-0.049-0.065-0.075-0.134-0.099c-0.003-0.001-0.006-0.003-0.009-0.003
				c-0.029-0.01-0.061-0.019-0.095-0.029l-0.203-0.209c-0.013-0.041-0.028-0.09-0.038-0.123c-0.021-0.068-0.062-0.137-0.125-0.206
				c-0.063-0.069-0.188-0.017-0.188-0.017s-0.008-0.004-0.02-0.015l0.008-0.003l-0.014-0.003c-0.02-0.019-0.046-0.051-0.058-0.1
				l0-0.001c0.008-0.058,0.019-0.133,0.031-0.189c0.02-0.103-0.126-0.12-0.126-0.12s-0.229,0.103-0.312,0.155
				c-0.084,0.052-0.042,0.103-0.042,0.103l0.038,0.055c0.004,0.016,0.01,0.032,0.017,0.048c0.021,0.051,0.042,0.051,0.083,0.137
				c0.007,0.014,0.009,0.025,0.01,0.033l-0.149,0.048c-0.033,0.003-0.076,0.006-0.131,0.006c-0.146,0-0.104,0.068-0.166,0.138
				c-0.063,0.068,0,0.102,0.104,0.206c0.104,0.103,0.062,0.171,0.062,0.171L52.28,4.693l-0.013-0.022
				c-0.01,0.008-0.023,0.019-0.035,0.031L52.22,4.704c0,0,0,0.003,0.002,0.008c-0.019,0.021-0.034,0.042-0.034,0.062
				c0,0.027,0.068,0.048,0.132,0.064c0.002,0.001,0.003,0.002,0.005,0.003c0.045,0.029,0.062,0.043,0.073,0.053l0.06,0.103
				L52.45,4.945c0.062,0.051,0,0.171-0.104,0.257c-0.068,0.056-0.2,0.106-0.294,0.163c0.04-0.033,0.073-0.058,0.073-0.058
				l-0.516,0.165c-0.135-0.092-0.098,0.04-0.221,0.057c-0.113,0.016-0.262,0.017-0.461-0.035l0.176,0.02
				c0,0-0.312-0.086-0.417-0.155c-0.104-0.069,0.084-0.017-0.083-0.069c-0.126-0.038-0.204,0.06-0.235,0.111
				c-0.053,0.035-0.103,0.073-0.146,0.094c-0.104,0.051-0.229-0.035-0.312-0.12c-0.031-0.032-0.066-0.07-0.1-0.113
				c0.019,0.014,0.039,0.023,0.063,0.028l-0.194-0.22c-0.013-0.024-0.028-0.048-0.04-0.074c-0.047-0.096-0.094-0.126-0.14-0.151
				c-0.037-0.034-0.064-0.053-0.064-0.053l0.032,0.037c-0.026-0.014-0.052-0.029-0.078-0.056c-0.083-0.086-0.291-0.17-0.396-0.222
				c-0.1-0.05-0.2-0.084-0.28-0.147l0.367,0.181c0,0-0.229-0.154-0.376-0.188c-0.002-0.001-0.003-0.002-0.004-0.002
				c-0.083-0.068-0.166-0.119-0.208-0.171c-0.042-0.052,0-0.069,0-0.155c0-0.039-0.03-0.103-0.065-0.175
				c-0.023-0.157-0.074-0.274-0.127-0.355c-0.04-0.088-0.114-0.13-0.163-0.224c-0.063-0.121-0.021-0.155,0.041-0.327
				c0.062-0.172,0-0.121,0-0.206c0-0.082-0.039-0.07-0.098-0.084l-0.036-0.031c-0.008-0.034,0.02-0.101,0.051-0.212
				c0.042-0.154,0.021-0.086,0.021-0.154c0-0.03-0.021-0.066-0.043-0.099c-0.018-0.094-0.122-0.11-0.122-0.11l0.003,0.031
				c-0.041-0.002-0.105-0.003-0.194,0.007c-0.166,0.017-0.375-0.069-0.479-0.137c-0.104-0.068-0.146-0.137-0.208-0.189
				c-0.024-0.02-0.059-0.029-0.093-0.033l-0.135-0.055l0.081,0.052c-0.035,0-0.06,0.003-0.06,0.003s-0.021,0.155-0.083,0.206
				c-0.038,0.032-0.113,0.044-0.171,0.064l-0.016-0.049c0,0-0.018,0.03-0.025,0.066c-0.019,0.01-0.032,0.023-0.038,0.04
				c-0.015,0.048-0.039,0.096-0.046,0.162c-0.005,0.003-0.011,0.006-0.017,0.006c-0.062,0.018-0.042,0.155-0.042,0.155l0.089,0.008
				c0.026,0.036,0.057,0.028,0.057,0.028s0.095,0.036,0.203,0.087l0.026,0.083l0.008-0.067c0.064,0.032,0.128,0.067,0.18,0.103
				c0.104,0.074,0.123,0.181,0.125,0.237l-0.02-0.015c0,0,0,0.086,0.042,0.138c0.028,0.033,0.124,0.037,0.188,0.036l-0.066-0.05
				c0.032,0.005,0.073,0.024,0.116,0.049c-0.011,0-0.029,0.001-0.05,0.001l0.118,0.09l-0.049-0.08
				c0.033,0.019,0.066,0.039,0.096,0.058C47.543,3.16,47.53,3.186,47.513,3.2l-0.003,0l0.001,0.001
				c-0.01,0.008-0.021,0.013-0.021,0.013s0.146,0.051,0.167,0.12c0.021,0.068-0.104,0.103-0.146,0.172
				c-0.041,0.069-0.208,0.086-0.354,0.052c-0.125-0.029-0.189-0.046-0.257-0.072c0.009,0.001,0.018,0.003,0.028,0.003
				c0.041,0,0.058-0.012,0.079-0.023l-0.183-0.011c-0.06-0.024-0.107-0.046-0.209-0.103c-0.125-0.069-0.188-0.103-0.188-0.103
				s-0.002,0-0.063-0.01l0.042-0.042c0,0-0.173-0.023-0.304,0.008c-0.017,0.001-0.028,0.005-0.035,0.011
				c-0.013,0.004-0.026,0.009-0.037,0.016c-0.126,0.069-0.042,0.172-0.021,0.31c0.003,0.021,0.003,0.038,0.002,0.053l0.023-0.024
				c0.001,0.023,0.001,0.043-0.003,0.058c-0.005,0.017-0.025,0.026-0.052,0.03c0.015-0.012,0.027-0.032,0.032-0.064l-0.065,0.066
				c-0.089-0.001-0.213-0.038-0.227-0.084c-0.021-0.069-0.042-0.275-0.042-0.344c0-0.069-0.063-0.086-0.084-0.137
				c-0.02-0.05-0.096-0.143-0.121-0.079c-0.011,0.008-0.036,0.026-0.09,0.065l0.032,0.02c-0.049,0.039-0.112,0.063-0.112,0.063
				l-0.125-0.052l-0.084-0.102c0,0-0.041-0.172-0.062-0.24c-0.021-0.069-0.105-0.155-0.105-0.155s-0.046-0.026-0.139-0.109
				c0.084,0.048,0.164,0.085,0.164,0.085l-0.304-0.406c0.002,0.007,0.005,0.013,0.006,0.02c0.008,0.043,0,0.08-0.007,0.114
				c-0.036-0.085-0.054-0.172-0.066-0.223l0.067,0.088c-0.015-0.048-0.05-0.094-0.081-0.129c-0.001-0.001-0.002-0.002-0.003-0.003
				c-0.032-0.035-0.059-0.058-0.059-0.058l0.02,0.028c-0.073-0.046-0.203-0.095-0.203-0.095l-0.187-0.018
				c0,0-0.035-0.058-0.06-0.118c0.008,0.005,0.017,0.009,0.027,0.01l-0.029-0.015c-0.012-0.03-0.021-0.06-0.022-0.083
				c0-0.069,0-0.155-0.021-0.241c-0.008-0.034-0.037-0.035-0.073-0.019c-0.019-0.042-0.048-0.032-0.111,0.007
				c-0.066,0.042-0.106,0.093-0.172,0.13l0.052,0.027c-0.059,0.042-0.096,0.038-0.182-0.007c0.021,0.01,0.045,0.015,0.069,0.007
				c0.023-0.008,0.043-0.017,0.061-0.028l-0.253-0.13c0,0,0.047,0.104,0.113,0.144c-0.025-0.013-0.053-0.028-0.088-0.047
				c-0.188-0.102-0.208-0.275-0.292-0.429c-0.017-0.031-0.037-0.059-0.057-0.086l0.027,0.015c0,0-0.128-0.228-0.192-0.262
				C42.9,0.771,42.819,0.767,42.75,0.768c-0.041-0.037-0.079-0.078-0.115-0.108c-0.062-0.052-0.104-0.086-0.167-0.172
				c-0.062-0.085-0.02-0.326-0.021-0.429c0-0.031-0.019-0.046-0.046-0.05c-0.018-0.04-0.128,0.01-0.183,0.078
				c-0.008,0.007-0.017,0.015-0.022,0.024c-0.038,0.053-0.054,0.098-0.083,0.154C42.087,0.289,42.063,0.3,42.063,0.3l0.026,0.006
				c-0.015,0.024-0.033,0.049-0.058,0.078c-0.104,0.12-0.208,0.396-0.208,0.396S41.839,0.82,41.756,0.9
				c0.058-0.076,0.031-0.18,0.031-0.18l-0.122,0.254c-0.091,0.057-0.126,0.033-0.144,0.124c-0.022,0.106-0.129,0.196-0.043,0.267
				c0.086,0.071,0.129,0.106,0.194,0.177c0.064,0.071,0.044,0.175,0.127,0.074c-0.008,0.028-0.011,0.05-0.011,0.05l0.488-0.13
				c-0.038,0-0.077-0.004-0.106-0.01c-0.086-0.018-0.106-0.018-0.234-0.035c-0.045-0.007-0.078,0.015-0.099,0.044
				c0.021-0.09-0.007-0.176,0.093-0.135c0.128,0.053,0.021,0,0.128,0.053c0.108,0.053,0.216,0.053,0.28,0.035
				C42.404,1.47,42.405,1.4,42.49,1.47c0.086,0.071,0.173,0.071,0.259,0.124c0.025,0.015,0.048,0.023,0.068,0.029l0.079,0.157
				c0.008-0.028,0.017-0.056,0.024-0.084c0,0.002,0.001,0.003,0.002,0.005c0.008,0.033,0.004,0.079,0,0.126l-0.025-0.047
				c-0.016,0.058-0.03,0.115-0.015,0.148c0.02,0.05-0.036,0.207,0.156,0.193c0.027,0.021,0.047,0.043,0.058,0.077
				c0.02,0.067-0.017,0.224-0.021,0.245c-0.016,0-0.04,0.008-0.073,0.027c-0.015,0.005-0.033,0.012-0.05,0.019l-0.243,0.041
				c-0.096-0.014-0.219-0.024-0.28,0.007c-0.032,0.016-0.067,0.035-0.102,0.054c-0.018,0.006-0.028,0.01-0.028,0.01l0.014-0.003
				c-0.076,0.043-0.143,0.082-0.143,0.082s-0.185,0.119-0.314,0.174l0.026-0.046c0,0-0.069,0.04-0.138,0.109
				c-0.093,0.068-0.171,0.165-0.155,0.243c0.022,0.107-0.042,0.356-0.042,0.356s0.022,0.32-0.15,0.284
				c-0.078-0.016-0.164-0.032-0.236-0.045c0.062,0.002,0.165,0.005,0.222,0.017c0.084,0.017,0.104-0.104,0.104-0.104l-0.377,0.079
				c-0.06-0.01-0.101-0.018-0.101-0.018l-0.301,0.089l-0.344,0.285c0,0,0,0.16-0.129,0.213c-0.129,0.053-0.194,0.036-0.194,0.142
				c0,0.019-0.002,0.035-0.003,0.051c-0.058,0.077-0.075,0.173,0.011,0.244l0.029-0.045c0.056,0.065,0.094,0.129,0.114,0.195
				c0.022,0.071,0.022,0.32-0.172,0.373c-0.006,0.002-0.012,0.003-0.018,0.004c0.09-0.074,0.152-0.148,0.152-0.148l-0.227,0.163
				c-0.108,0.017-0.155,0.01-0.23,0.165l-0.023,0.016c0,0,0,0,0.02-0.011c-0.006,0.013-0.012,0.026-0.018,0.04
				c-0.107,0.249-0.215,0.071-0.237,0.267c-0.021,0.195,0.13,0.373,0.109,0.728c-0.022,0.356-0.043,0.479,0.022,0.675
				c0.065,0.195,0.044,0.302,0.194,0.248c0.008-0.003,0.016-0.006,0.025-0.009c0.038,0.003,0.078-0.006,0.118-0.03
				c0.027-0.016,0.059-0.031,0.091-0.043c0.067-0.021,0.123-0.034,0.154-0.025c0.064,0.018,0.237,0.107,0.323,0.053
				c0.065-0.04,0.179-0.09,0.231-0.113l0.327,0.333l-0.151-0.342c0.032,0.005,0.059,0.015,0.067,0.033
				c0.021,0.053,0.13,0.39,0.28,0.479c0.134,0.079,0.2,0.116,0.289,0.197l-0.089-0.058c0,0,0.045,0.037,0.12,0.089
				c0.001,0.002,0.002,0.002,0.003,0.003c0.056,0.055,0.066,0.116,0.081,0.161c-0.006,0.074-0.016,0.136,0.11,0.073
				c0.006-0.003,0.01-0.005,0.017-0.008c0.028-0.006,0.046-0.017,0.06-0.03c0.011-0.005,0.02-0.009,0.029-0.014L41.838,8.17
				c0.014-0.011,0.03-0.017,0.054-0.017c-0.013,0.005-0.029,0.012-0.047,0.02l0.208,0.137c0,0-0.021-0.052-0.063-0.12
				c-0.003-0.006-0.006-0.009-0.008-0.014c0.131,0.055,0.171,0.15,0.171,0.15s0.064-0.072,0.15,0.071
				c0.086,0.142,0.194,0.018,0.129,0.231c-0.008,0.028-0.015,0.057-0.021,0.083l-0.088-0.126c0,0-0.063,0.447,0.021,0.447
				c0.035,0,0.094-0.024,0.158-0.043c0.044-0.001,0.092,0.005,0.121,0.027l0.118,0.17c0,0,0.008-0.011,0.012-0.031
				c0,0.002,0.001,0.003,0.003,0.004c0.065,0.089,0.129,0.125,0.173,0.213c0.044,0.089,0,0,0.107,0.124
				c0.055,0.062,0.065,0.098,0.07,0.127l-0.013-0.005c0.001,0.009,0.003,0.019,0.003,0.031c0,0.079,0.071,0.17,0.13,0.133
				c0.028,0.015,0.056,0.017,0.09-0.002c0.027-0.016,0.061-0.038,0.094-0.055l0.29,0.096c0,0-0.141-0.052-0.26-0.11
				c0.033-0.013,0.064-0.017,0.091-0.002c0.064,0.035,0.021-0.018,0.15,0.089c0.13,0.106,0.323,0.213,0.388,0.23
				c0.008,0.003,0.019,0.007,0.031,0.013l-0.066,0.02c0,0,0.131,0.043,0.227,0.061c0.051,0.016,0.104,0.02,0.154-0.01
				c0.056-0.02,0.106-0.058,0.12-0.103c0.002-0.007,0.004-0.015,0.006-0.023c0.059-0.072,0.103-0.125,0.174-0.066
				c0.108,0.089,0.151,0.196,0.216,0.142c0.064-0.054,0.107-0.071,0.15-0.125c0.044-0.053,0.13-0.159,0.13-0.159
				s0.301,0.124,0.301,0.213c0,0.089,0.044,0.177,0.065,0.248c0.02,0.065,0.167,0.235,0.057,0.304l-0.014-0.036
				c0,0-0.011,0.024-0.028,0.055c-0.165,0.052-0.187,0.07-0.187,0.14c0,0.009-0.001,0.018-0.003,0.026
				c-0.037,0.021-0.064,0.044-0.053,0.073c0.017,0.043,0.091,0.073,0.152,0.072c0.054,0.02,0.098,0.043,0.098,0.043
				s0.019,0.016,0.04,0.044c-0.006,0.023-0.028,0.124,0.064,0.184c0.048,0.032,0.091,0.048,0.124,0.057
				c0.07,0.049,0.138,0.086,0.138,0.086s0.043,0.124,0.129,0.088c0.086-0.036,0.194,0,0.194,0l0.237,0.142
				c0,0,0.001,0.011,0.022,0.032l-0.073-0.01c0.052,0.038,0.096,0.059,0.142,0.061c0.012,0.006,0.024,0.014,0.039,0.022
				c0.099,0.055,0.224,0.109,0.276,0.132l-0.258,0.289c-0.023,0.007-0.039,0.022-0.055,0.05c-0.018,0.015-0.031,0.032-0.036,0.053
				l0.024-0.026c-0.043,0.097-0.101,0.308-0.122,0.392c-0.009,0.039-0.023,0.088-0.035,0.132l-0.378-0.104
				c-0.027-0.021-0.062-0.038-0.125-0.045c-0.151-0.018-0.13-0.107-0.281-0.053c-0.104,0.037-0.137,0.132-0.189,0.2l-0.536-0.088
				c-0.092-0.047-0.188-0.098-0.33-0.111c-0.194-0.018-0.259-0.053-0.495-0.035c-0.237,0.018-0.302-0.035-0.453,0.09
				c-0.116,0.096-0.168,0.148-0.274,0.128c0.017-0.002,0.029-0.005,0.029-0.005l-0.149-0.038c-0.002-0.001-0.004-0.002-0.005-0.003
				c-0.017-0.033-0.04-0.05-0.104-0.063c-0.078-0.061-0.096-0.113-0.207-0.125c-0.009-0.002-0.018-0.003-0.028-0.004
				c-0.016-0.039,0.012-0.061-0.113-0.031c-0.005,0.001-0.011,0.002-0.016,0.003c-0.054-0.012-0.096-0.016-0.144,0.014
				c-0.018,0.011-0.034,0.021-0.049,0.03c-0.013,0.003-0.02,0.004-0.02,0.004l0.009,0.003c-0.053,0.029-0.097,0.038-0.178-0.001
				c-0.021-0.01-0.041-0.018-0.06-0.023l0-0.013c0,0-0.02-0.002-0.044,0.002c-0.054-0.009-0.09-0.001-0.09-0.001
				s-0.064,0.035,0.022,0.213c0.086,0.178,0.108,0.355,0.108,0.515c0,0.16-0.043,0.125-0.042,0.355
				c-0.001,0.021-0.002,0.039-0.003,0.058l-0.138,0.405c-0.024,0.05-0.049,0.102-0.074,0.159c-0.101,0.233-0.069,0.217-0.1,0.316
				l-0.239,0.095c0.012,0.004,0.023,0.009,0.034,0.015c-0.014-0.005-0.028-0.008-0.042-0.012l0.008-0.003
				c-0.022-0.009-0.048-0.015-0.086-0.02c-0.08-0.011-0.119-0.016-0.141,0.019c-0.042,0.013-0.077,0.036-0.102,0.071
				c-0.064,0.089-0.107,0.089-0.107,0.16c0,0.016-0.001,0.039-0.003,0.065c-0.004,0.003-0.008,0.005-0.012,0.008l0.012-0.007
				c-0.002,0.055-0.003,0.123,0.009,0.177c-0.01-0.009-0.02-0.019-0.032-0.03c-0.063-0.062-0.027-0.111,0.011-0.141l-0.468,0.279
				c-0.005,0.013-0.007,0.024-0.006,0.035c-0.053-0.078-0.066-0.139-0.116-0.262c-0.026-0.065-0.057-0.126-0.092-0.179
				c-0.011-0.02-0.028-0.044-0.051-0.065c-0.04-0.04-0.085-0.069-0.137-0.075c-0.129-0.017-0.237-0.089-0.388-0.017
				c-0.15,0.071-0.366,0.036-0.366,0.16c0,0.119-0.078,0.012,0.008,0.17c-0.015,0.065-0.014,0.139,0.063,0.166
				c0.019,0.007,0.037,0.013,0.054,0.018l-0.015-0.061c0.101,0.068,0.214,0.042,0.214,0.15c0,0.038-0.017,0.082-0.04,0.126
				c0.006-0.02,0.013-0.041,0.017-0.061c0.018-0.09-0.059-0.114-0.176-0.154l0.083,0.327c-0.062,0.078-0.132,0.146-0.165,0.172
				c-0.058,0.048-0.047,0.165-0.09,0.229c-0.02,0.012-0.05,0.026-0.087,0.039c-0.083,0.003-0.196-0.021-0.225,0.039
				c-0.058,0.011-0.077,0.026-0.049,0.071c0.008,0.013,0.019,0.026,0.031,0.039c-0.002,0.038-0.004,0.074-0.01,0.108L39.06,16.25
				c0.033-0.02,0.085-0.048,0.167-0.08c-0.047,0.035-0.079,0.018-0.189,0.153c-0.128,0.16-0.301,0.409-0.322,0.48
				c-0.004,0.016-0.021,0.041-0.042,0.073c-0.063,0.034-0.126,0.09-0.125,0.176c0,0.033,0.001,0.061,0.003,0.087
				c-0.003,0.034,0.002,0.066,0.018,0.096c0.015,0.038,0.04,0.064,0.078,0.081c0.169,0.148,0.385,0.391,0.565,0.605
				c0.014,0.017,0.029,0.034,0.044,0.052l-0.062-0.062c0.009,0.031,0.098,0.123,0.193,0.216c0.159,0.183,0.317,0.36,0.364,0.398
				c0.065,0.053,0.237,0.106,0.345,0.213c0.107,0.107,0.323,0.249,0.388,0.319c0.065,0.071,0.108,0.231,0.195,0.391
				c0.087,0.16,0.108,0.231,0.28,0.248c0.172,0.018,0.215-0.018,0.496,0.071c0.239,0.076,0.259,0.035,0.366,0.01
				c0.046,0.029,0.121,0.059,0.189,0.004c0.011-0.009,0.024-0.018,0.039-0.028l-0.082-0.002c0.115-0.032,0.175-0.094,0.264-0.109
				c0.107-0.018,0.215-0.071,0.323,0.035c0.107,0.106,0.194,0.231,0.258,0.337c0.064,0.107,0.151,0.267,0.323,0.231
				c0.172-0.036,0.495-0.054,0.495-0.054l0.323,0.106c0,0,0.082-0.005,0.177-0.003l0.346,0.298c0.012,0.097,0.016,0.208,0.016,0.308
				c0,0.231-0.02,0.321,0.001,0.409c0.022,0.089,0.108,0.177,0.108,0.177s-0.111,0.062-0.049,0.113c0,0-0.042,0.086-0.125,0.052
				c-0.084-0.034-0.236,0.014-0.236,0.014c-0.021,0.071-0.15,0.16-0.107,0.249c0.043,0.089,0.021,0.089,0.13,0.16
				c0.107,0.071,0.193,0.017,0.215,0.213c0.022,0.195,0.064,0.088,0.064,0.355c0,0.266-0.02,0.71-0.107,0.799
				c-0.086,0.088-0.322,0.195-0.322,0.195s-0.043,0.16-0.215,0.16c-0.173,0-0.259-0.07-0.431-0.035
				c-0.172,0.036-0.043-0.071-0.172,0.036c-0.073,0.06-0.09,0.155-0.092,0.248c-0.01,0.018-0.016,0.029-0.016,0.029l0.016-0.003
				c0,0.062,0.007,0.123,0.007,0.17c0,0.124-0.043,0.231-0.129,0.319c-0.086,0.09-0.086,0.178-0.043,0.249
				c0.044,0.071-0.086,0.231-0.129,0.408c-0.043,0.178-0.021,0.373,0,0.516c0.022,0.141,0.087,0.266,0.13,0.355
				c0.043,0.089,0.021,0.124,0.043,0.177c0.021,0.053-0.065,0.071,0.021,0.124c0.086,0.054,0.237,0.018,0.237,0.018l0.172-0.018
				c0,0,0.15,0.053,0.193,0.106c0.044,0.054,0.109,0.143,0.109,0.143l0.108,0.16c0,0,0.05,0.089,0.122,0.163
				c-0.001,0.068-0.041,0.119,0.063,0.118c0.039,0,0.079-0.005,0.115-0.008c0.045,0.018,0.096,0.039,0.144,0.059
				c0.03,0.064,0.022,0.135,0.137,0.12c0.039-0.006,0.08-0.014,0.12-0.024c0.122,0.034,0.358,0.093,0.42,0.067
				c0.086-0.036-0.021,0.177-0.129,0.231c-0.108,0.053-0.194,0.319-0.301,0.408c-0.107,0.089-0.215,0.124-0.258,0.195
				c-0.043,0.072-0.064,0.214-0.064,0.214l-0.172,0.16c0,0-0.043,0.248-0.021,0.373c0.022,0.125,0.216,0.479,0.345,0.586
				c0.129,0.107,0.215,0.089,0.259,0.142c0.044,0.053,0.129,0.178,0.216,0.16c0.086-0.018,0.086,0,0.172-0.125
				c0.086-0.124,0.215-0.16,0.215-0.16s0.151,0.106,0.216,0.106c0.048,0,0.178-0.009,0.242-0.015l0.321,0.165
				c-0.005-0.008-0.011-0.018-0.015-0.029c-0.023-0.057-0.046-0.107-0.075-0.139h0.039c-0.006,0.003-0.004,0.02,0.071,0.106
				c0.108,0.125,0.108,0.125,0.108,0.125s0.108,0.036,0.001,0.16c-0.108,0.124-0.215,0.302-0.215,0.302s-0.086,0.071-0.28,0.143
				c-0.194,0.071-0.237,0.054-0.237,0.16c0,0.106-0.043,0.106,0.022,0.283c0.065,0.178-0.043,0.267-0.042,0.374
				c0,0.106-0.108,0.177-0.086,0.302c0.021,0.124,0,0.231,0.13,0.427c0.129,0.195,0.172,0.195,0.302,0.284
				c0.129,0.089,0.215,0.196,0.28,0.284c0.007,0.01,0.015,0.021,0.025,0.034c-0.005-0.004-0.011-0.007-0.016-0.009l0.09,0.111
				c0.088,0.127,0.19,0.3,0.161,0.397c-0.043,0.142-0.087,0.142-0.237,0.249c-0.151,0.107-0.258,0.036-0.258,0.142
				c0,0.107-0.065,0.089,0.022,0.248c0.086,0.16,0.151,0.159,0.172,0.302c0.022,0.143,0.022,0.249-0.021,0.391
				c-0.043,0.142-0.043,0.408-0.021,0.515c0.022,0.106,0.108,0.568,0.238,0.816c0.129,0.249,0.195,0.142,0.152,0.622
				c-0.042,0.48,0.001,0.675,0.108,1.102c0.108,0.426,0.303,0.532,0.366,0.781c0.066,0.249-0.021,0.213,0.044,0.391
				c0.065,0.178,0.237,0.142,0.194,0.302c-0.043,0.16-0.172,0.462-0.172,0.462s0.215,0.071,0.28,0.284
				c0.065,0.212-0.021,0.373,0.001,0.551c0.003,0.025,0.006,0.055,0.007,0.087c-0.009-0.076-0.028-0.2-0.056-0.247
				c-0.01-0.017-0.02-0.039-0.027-0.062l0.086,0.35c0.005,0.177-0.009,0.386-0.009,0.386s-0.02,0.532,0.238,0.799
				c0.259,0.266,0.366,0.337,0.517,0.142c0.15-0.195,0.323-0.533,0.085-0.746c-0.237-0.213-0.539-0.249-0.474-0.39
				c0.065-0.142,0.151-0.248,0.151-0.248s0.086-0.036,0.107-0.125c0.022-0.089,0.086-0.106,0.086-0.249
				c0-0.142-0.001-0.355-0.001-0.355s0,0.266,0.173,0.301c0.172,0.036,0.388-0.018,0.431-0.125c0.043-0.107,0.043-0.426,0.107-0.498
				c0.065-0.071,0.086-0.159,0.259-0.089c0.172,0.071,0.065,0.089,0.216,0.178c0.15,0.089,0.15,0.124,0.108,0.213
				c-0.043,0.089-0.107,0.196-0.064,0.266c0.043,0.071,0.065,0.106,0.107,0.213c0.044,0.107,0.13,0.196,0.13,0.196
				s0.172,0.088,0.215,0.017c0.043-0.07,0.043-0.319,0.043-0.319s0.066,0.569,0.109,0.729c0.043,0.159,0.109,0.372,0.022,0.479
				c-0.086,0.107-0.215,0.515-0.236,0.658c-0.022,0.142,0.021,0.39,0.108,0.497c0.086,0.107,0.202,0.219,0.438,0.094l0.337-0.291
				c0.086-0.142,0.171-0.196,0.15-0.32c-0.021-0.124-0.064-0.16-0.108-0.231c-0.042-0.071-0.064-0.089-0.042-0.143
				c0.021-0.053,0.042-0.16,0.042-0.248c0-0.089-0.042-0.213-0.108-0.373c-0.065-0.16-0.258-0.196-0.107-0.569
				c0.15-0.373,0.473-0.622,0.473-0.747c0-0.124-0.065-0.284-0.066-0.462c0-0.177,0.021-0.426,0.021-0.551
				c0-0.124,0.022-0.195-0.087-0.266c-0.107-0.07-0.387-0.053-0.409-0.407c-0.022-0.356-0.022-0.462,0.064-0.604
				c0.085-0.143,0.128-0.214,0.193-0.178c0.065,0.034,0.086,0.035,0.151,0.177c0.065,0.142,0.109,0.231,0.13,0.302
				c0.021,0.071,0.065-0.035,0.065,0.141c0,0.178-0.022,0.178,0,0.303c0.022,0.125-0.086,0.621,0.022,0.799
				c0.108,0.178,0.367,0.515,0.324,0.799c-0.043,0.284-0.107,0.337-0.085,0.409c0.021,0.071,0.129,0.195,0.194,0.107
				c0.064-0.089,0.259-0.338,0.301-0.534c0.043-0.195,0.043-0.426,0.043-0.426s0.129-0.001,0.172,0.106
				c0.043,0.107,0.022,0.284-0.042,0.356c-0.065,0.07-0.044,0.053-0.151,0.213c-0.107,0.16-0.258,0.409-0.215,0.497
				c0.044,0.089,0.108,0.356,0.28,0.338c0.172-0.018,0.366-0.107,0.366-0.107s0.151,0.071,0.151,0.178
				c0,0.107,0.044,0.248,0.044,0.248l0.129,0c0,0,0.065,0.036,0.108-0.035c0.043-0.071,0.086-0.106,0.086-0.179
				c0-0.07,0-0.141,0-0.194c0-0.053,0.086-0.231,0.086-0.231s0.065,0.089,0.065,0.177c0,0.089,0.021,0.177-0.022,0.284
				c-0.042,0.107-0.214,0.355-0.257,0.408c-0.043,0.053-0.065,0.214-0.065,0.214s-0.021,0.071,0.086,0.142
				c0.108,0.071,0.129,0.071,0.237,0.124c0.107,0.053,0.237,0.141,0.301,0.089c0.065-0.054,0.108-0.089,0.108-0.196
				c0-0.107,0.216-0.125,0.216-0.125s0.128-0.124,0.15-0.035c0.022,0.089-0.236,0.089-0.043,0.16c0.194,0.071,0.215,0,0.28-0.09
				c0.064-0.089,0.086-0.143,0.086-0.195c0-0.054-0.066-0.107-0.066-0.16c0-0.053-0.043-0.16-0.043-0.16s0.042-0.106,0.042-0.16
				c0-0.053-0.043-0.177-0.064-0.23c-0.021-0.054,0.108-0.196,0.129-0.284c0.021-0.089,0.043-0.249-0.022-0.338
				c-0.065-0.088-0.064-0.177,0.021-0.195c0.086-0.018,0.431-0.178,0.473-0.337c0.043-0.16-0.065-0.498-0.087-0.693
				c-0.021-0.196-0.194-0.409-0.172-0.497c0.021-0.089,0.172-0.39,0.237-0.533c0.064-0.142,0.063-0.355,0.107-0.48
				c0.043-0.125,0.064-0.196,0.193-0.32c0.01-0.009,0.019-0.018,0.028-0.026l0.018,0.151c0,0,0.062-0.19,0.145-0.241
				c0.083-0.052,0.209-0.052,0.229-0.103c0.02-0.051-0.042-0.086-0.042-0.086s-0.104-0.034-0.188-0.051
				c-0.025-0.005-0.055-0.012-0.083-0.019c-0.009-0.026-0.016-0.05-0.021-0.067c-0.021-0.069,0-0.12,0.062-0.138
				c0.062-0.017,0.313,0.137,0.333-0.018c0,0,0.063-0.034,0.146-0.068c0.083-0.034,0.229-0.155,0.229-0.155
				c0.062-0.129,0.281-0.653,0.312-0.808c0.03-0.154,0.156-0.334,0.187-0.412c0.03-0.077,0.186-0.49,0.249-0.645
				c0.062-0.155,0.249-0.309,0.312-0.49c0.062-0.18,0.25-0.284,0.344-0.387c0.093-0.103,0.312-0.232,0.499-0.181
				c0.188,0.052,0.532,0.077,0.688-0.052c0.156-0.129,0.281-0.18,0.375-0.233c0.094-0.051,0.344-0.181,0.406-0.31
				c0.063-0.129,0.094-0.335,0.156-0.258c0.062,0.077,0.094,0.103,0.032,0.206c-0.062,0.103-0.249,0.283-0.249,0.283l-0.093,0.155
				l0,0.18l0.031,0.232c0,0-0.062,0.077,0.094,0.128c0.157,0.052,0.157,0.052,0.25,0.103c0.094,0.051,0.219,0.026,0.219,0.026
				l0.062-0.233l-0.031-0.18l0.062-0.232c0,0,0.031-0.154,0.188-0.154c0.155,0,0.343,0.051,0.437,0
				c0.093-0.052-0.001-0.232-0.001-0.232l-0.062-0.155c0,0-0.136-0.069-0.157-0.138c-0.021-0.068-0.083-0.103-0.145-0.137
				c-0.063-0.034-0.167-0.016-0.188-0.086c-0.021-0.068-0.021-0.068-0.062-0.137c-0.042-0.068-0.063-0.137-0.146-0.137
				c-0.084,0-0.187,0.086-0.396,0.069c-0.209-0.017-0.145,0.051-0.209-0.017c-0.062-0.069-0.062-0.206,0.083-0.189
				c0.146,0.016,0.383,0.01,0.458,0.016c0.162,0.014,0.022-0.107-0.048-0.162l0.173,0.059c0,0-0.062,0.189,0.021,0.189
				c0.083,0,0.187-0.086,0.166-0.189c-0.021-0.103,0.083-0.069,0.187-0.035c0.104,0.035,0.229-0.206,0.229-0.206l-0.525,0.095
				c0.016-0.024-0.002-0.06,0.009-0.103c0.016-0.065,0.14-0.077,0.14-0.077c0.007-0.005,0.015-0.007,0.021-0.01l-0.042,0.112
				c0.104-0.069,0.312-0.086,0.458-0.12c0.146-0.035,0.229-0.052,0.375-0.086c0.039-0.01,0.069-0.031,0.093-0.058
				c0.044,0.003,0.074,0.006,0.074,0.006c-0.015-0.023-0.025-0.047-0.03-0.073c0.036-0.071,0.058-0.162,0.092-0.237
				c0.013-0.029,0.029-0.077,0.046-0.136c0.01-0.011,0.017-0.019,0.017-0.019l-0.015,0.015c0.064-0.22,0.144-0.592,0.16-0.754
				c0.021-0.207,0-0.584-0.064-0.825c-0.02-0.076-0.065-0.139-0.119-0.195c-0.003-0.007-0.006-0.01-0.006-0.01l0.001,0.006
				c-0.033-0.035-0.071-0.067-0.107-0.099l0.165-0.437c0.053,0.159,0.124,0.331,0.15,0.478c0.042,0.241,0.271,0.687,0.271,0.687
				s0.042,0.223,0.062,0.412c0.021,0.19-0.083,0.43-0.146,0.602c-0.062,0.171-0.035,0.79-0.035,0.79
				c0.016,0.296,0.11,0.322,0.157,0.387c0.047,0.064,0.125,0.141,0.266,0.257c0.14,0.116,0.313,0.27,0.438,0.437
				c0.125,0.167,0.329,0.773,0.485,1.301c0.157,0.528,0.423,0.683,0.423,0.683s0.188,0.103,0.329,0.27
				c0.14,0.167,0.187,0.219,0.469,0.541c0.282,0.322,0.312,0.154,0.547,0.244c0.235,0.09,0.203-0.026,0.344-0.051
				c0.141-0.026,0.141-0.078,0.125-0.155c-0.015-0.077,0.078-0.039,0.125-0.026c0.047,0.013,0.156,0.142,0.235,0.193
				c0.078,0.052,0.14,0.038,0.14,0.038l0.204,0.141l0.328,0.103l0.265-0.077c0,0,0.094-0.039,0.328,0.012
				c0.234,0.052,0.297-0.167,0.375-0.245c0.077-0.077-0.141-0.141-0.188-0.206c-0.046-0.064,0.125-0.207,0.125-0.207l-0.172-0.193
				l-0.25-0.206c0,0,0.015-0.039,0.015-0.141c0-0.103-0.109-0.129-0.109-0.129l-0.063-0.09l0.11-0.116l0.422-0.155l0.219,0.051
				l0.328,0.051c0,0,0.187,0.013,0.437,0.115c0.25,0.103,0.078-0.271,0-0.322c-0.078-0.052-0.078-0.116,0-0.13
				c0.079-0.012,0.156,0.013,0.25-0.051c0.094-0.065,0.094-0.065,0.109-0.168c0.015-0.102,0.203-0.218,0.265-0.257
				c0.063-0.039,0.078-0.181,0.125-0.297c0.048-0.116,0.109-0.09,0.156-0.064c0.046,0.025,0.046,0.128,0.078,0.296
				c0.032,0.167-0.124,0.154-0.217,0.245c-0.094,0.09-0.032,0.116-0.032,0.181c0,0.064,0.032,0.142,0.157,0.296
				c0.125,0.155,0.375,0.541,0.532,0.721c0.157,0.18,0.672,0.579,0.907,0.876c0.234,0.296,0.642,1.107,0.72,1.236
				c0.078,0.129,0.266,0.541,0.344,0.863c0.078,0.322,0.094,0.541,0.173,0.735c0.078,0.192,0.188,0.102,0.265,0.09
				c0.078-0.013,0-0.168-0.078-0.322c-0.078-0.155-0.063-0.129-0.031-0.206c0.031-0.077,0.077,0.051,0.093,0.129
				c0.016,0.077,0.141,0.154,0.157,0.232c0.016,0.078,0.031,0.322,0.016,0.374c-0.015,0.052-0.078,0.4-0.094,0.464
				c-0.015,0.065,0.064,0.258,0.079,0.335c0.016,0.077,0.14,0.103,0.203,0.129c0.063,0.026,0.078,0.039,0.078,0.039l-0.047,0.193
				c0,0,0.047,0.116,0.188,0.309c0.141,0.193,0.047,0.167,0.062,0.347c0.016,0.181-0.015,0.348-0.015,0.426
				c0,0.078,0.187,0.142,0.234,0.167c0.047,0.026,0.141,0.18,0.11,0.244c-0.032,0.065-0.124,0.233-0.156,0.645
				c-0.03,0.413,0.298,0.335,0.298,0.335s0.203,0.039,0.281,0.077c0.078,0.039,0.047,0.116,0.032,0.167
				c-0.015,0.052-0.062,0.168-0.093,0.258c-0.032,0.091-0.078,0.232-0.063,0.361c0.016,0.129,0.141,0.181,0.203,0.296
				c0.063,0.116,0.188,0.09,0.235,0.09c0.047,0,0.094-0.039,0.187-0.039c0.094,0,0.032,0.065,0,0.103
				c-0.031,0.039-0.093,0.193-0.109,0.297c-0.016,0.103,0.063,0.49,0.064,0.644c0,0.154-0.015,0.334-0.062,0.528
				c-0.047,0.193-0.171,0.025-0.249,0.284c-0.078,0.257,0.079,0.412,0.109,0.489c0.032,0.078,0.454,0.735,0.548,0.94
				c0.094,0.207,0.047,0.684,0.126,0.967c0.079,0.283,0.454,0.709,0.486,0.811c0.031,0.103,0.172,0.245,0.266,0.361
				c0.094,0.116,0.25,0.4,0.438,0.695c0.187,0.297,0.673,1.25,0.798,1.455c0.125,0.206,0.078,0.142,0.109,0.18
				c0.032,0.039,0.172,0.206,0.266,0.31c0.094,0.103,0.078-0.026,0.062-0.155c-0.015-0.128-0.454-1.017-0.469-1.108
				c-0.016-0.09-0.188-0.528-0.219-0.695c-0.032-0.167-0.031-0.219-0.078-0.361c-0.047-0.141-0.047-0.18-0.125-0.335
				c-0.078-0.154-0.172-0.399-0.313-0.527c-0.141-0.129-0.219-0.361-0.251-0.489c-0.031-0.13,0.063-0.103,0.063-0.103
				s0.078-0.039,0.14-0.065c0.034-0.014,0.026-0.058,0.013-0.095c0.025,0.032,0.053,0.067,0.067,0.11
				c0.001,0.003,0.001,0.008,0.003,0.013l0.012-0.314c0.086-0.018,0.152-0.157,0.171-0.238c0.017-0.066,0.057-0.36,0.075-0.489
				c0.002,0.004,0.005,0.007,0.007,0.011l0.039-0.482c0.024-0.029,0.047-0.077,0.066-0.157c0.056-0.233,0.13-0.255,0.205-0.321
				c-0.023,0.052-0.04,0.097-0.04,0.097l0.534-0.281c0.031,0.002,0.058,0.006,0.092,0.006c0.062,0,0.083-0.12,0.083-0.12
				s-0.042-0.103-0.042-0.189c0-0.086,0.063-0.034,0.125-0.103c0.021-0.022,0.054-0.025,0.093-0.021
				c-0.024,0.004-0.046,0.01-0.068,0.019l0.595,0.341c0.009,0.013,0.018,0.027,0.027,0.039c0.082,0.119,0.042,0.172,0.063,0.309
				c0.02,0.137,0.166,0.154,0.312,0.258c0.123,0.086,0.172-0.01,0.184-0.043c0.035-0.017,0.061-0.044,0.085-0.072
				c0.025-0.01,0.06-0.019,0.106-0.024c0.028-0.003,0.045-0.004,0.058-0.005c0.013,0.031,0.025,0.066,0.049,0.085
				c0.025,0.02,0.047,0.028,0.064,0.019c0.11,0.06,0.037-0.031,0.037-0.031s0.063-0.069,0.166-0.052
				c0.104,0.017,0.167,0.292,0.188,0.498c0.007,0.065,0.009,0.113,0.017,0.159l-0.055-0.078c0,0,0.001,0.001,0.067,0.129
				c0.025,0.082,0.079,0.172,0.221,0.357c0.25,0.326,0.562-0.241,0.562-0.241S78.738,46.41,78.738,46.324z M71.209,30.636
				l-0.003-0.01l0.002,0.005L71.209,30.636l0.015,0.061c0,0,0,0.043,0.005,0.106L71.209,30.636z M76.247,14.536
				c0.011,0.007,0.021,0.013,0.032,0.019c-0.029-0.014-0.049-0.028-0.064-0.043C76.226,14.52,76.235,14.528,76.247,14.536z
				 M76.207,14.2c0.002-0.007,0.003-0.011,0.003-0.015c0.01,0.033,0.008,0.066-0.021,0.091c-0.005,0.003-0.007,0.007-0.01,0.009
				C76.189,14.259,76.199,14.232,76.207,14.2z M72.776,19.735c0.028-0.036,0.097-0.007,0.19,0.02
				c-0.016-0.001-0.031-0.001-0.047-0.001c-0.06,0-0.109-0.008-0.146-0.014C72.774,19.739,72.775,19.737,72.776,19.735z
				 M71.248,21.116c-0.007,0.005-0.015,0.009-0.025,0.015c-0.01,0.005-0.018,0.011-0.026,0.017c0.002-0.02-0.003-0.037-0.003-0.037
				S71.214,21.114,71.248,21.116z M40.904,15.201c0.048,0.023,0.101,0.03,0.101,0.03s0.051-0.022,0.114-0.047
				C41.052,15.222,40.978,15.27,40.904,15.201z M41.427,15.186c-0.006,0.002-0.012,0.003-0.018,0.004
				c0.003-0.021,0.006-0.043,0.011-0.063c0.003-0.013,0.005-0.024,0.005-0.033C41.465,15.129,41.487,15.161,41.427,15.186z
				 M46.422,12.747c0,0-0.003-0.001-0.008-0.002c0.004-0.004,0.008-0.009,0.012-0.012C46.424,12.741,46.422,12.747,46.422,12.747z
				 M46.874,12.018c-0.053,0.011-0.093,0.015-0.126,0.018c0.071-0.023,0.154-0.042,0.235-0.066
				C46.96,11.989,46.927,12.007,46.874,12.018z M51.897,5.774c0.042-0.103,0.021-0.207,0.021-0.258c0-0.014,0.015-0.035,0.036-0.058
				c-0.001,0.002-0.002,0.003-0.003,0.004c-0.042,0.104,0.021,0.309-0.062,0.378c-0.083,0.069-0.166-0.017-0.166-0.017
				s-0.002-0.008-0.003-0.021C51.781,5.86,51.857,5.871,51.897,5.774z M52.167,22.12c-0.203,0.401-0.522,0.719-0.961,0.952
				c-0.438,0.233-0.977,0.349-1.619,0.35c-0.761,0.001-1.376-0.165-1.846-0.495c-0.468-0.332-0.695-0.68-0.68-1.347l1.051,0
				c0.045,0.315,0.168,0.542,0.368,0.686c0.269,0.193,0.635,0.29,1.099,0.29c0.501-0.001,0.888-0.098,1.16-0.292
				c0.272-0.194,0.456-0.466,0.552-0.814c0.056-0.214,0.082-0.661,0.077-1.344c-0.472,0.539-1.06,0.809-1.766,0.81
				c-0.878,0.001-1.557-0.304-2.037-0.916c-0.481-0.612-0.723-1.346-0.724-2.203c-0.001-0.589,0.11-1.132,0.329-1.631
				c0.22-0.498,0.539-0.883,0.957-1.155c0.418-0.272,0.91-0.408,1.475-0.409c0.754-0.001,1.375,0.294,1.863,0.881l-0.001-0.744
				l0.998-0.001l0.005,5.338C52.469,21.037,52.37,21.719,52.167,22.12z M53.367,4.447c0,0-0.003-0.009-0.007-0.023
				c0.012,0.023,0.025,0.047,0.038,0.075c0.003,0.008,0.007,0.015,0.011,0.023C53.342,4.48,53.367,4.447,53.367,4.447z
				 M54.186,10.768c0.005,0.001,0.01,0.001,0.016,0l0.007,0.055C54.195,10.791,54.186,10.768,54.186,10.768z M54.572,11.814
				c0.031-0.02,0.064-0.039,0.095-0.054C54.642,11.788,54.628,11.819,54.572,11.814z M61.295,26.044l0.013-0.033l0.039-0.044
				C61.334,25.985,61.316,26.012,61.295,26.044z M61.653,25.617l0.026-0.03C61.679,25.587,61.67,25.599,61.653,25.617z
				 M66.675,23.299c0.014-0.041,0.034-0.095,0.068-0.151l-0.004,0.098l0.022,0.004C66.72,23.266,66.692,23.285,66.675,23.299z
				 M63.632,20.19c-0.552-0.558-0.828-1.361-0.829-2.411c-0.001-1.15,0.327-2.003,0.983-2.558c0.548-0.461,1.217-0.692,2.006-0.692
				c0.877-0.001,1.595,0.278,2.152,0.837c0.557,0.559,0.836,1.333,0.837,2.32c0.001,0.8-0.121,1.429-0.368,1.888
				c-0.245,0.459-0.604,0.816-1.074,1.069c-0.471,0.254-0.984,0.381-1.541,0.381C64.906,21.025,64.184,20.747,63.632,20.19z
				 M67.288,30.976c0,0-0.053-0.044-0.14-0.18c0.088,0.071,0.233,0.18,0.349,0.267L67.288,30.976z M69.059,31.833
				c0,0-0.004-0.005-0.009-0.012c0.006,0.005,0.012,0.01,0.019,0.015L69.059,31.833z M69.288,31.902l-0.017-0.005
				c0.009-0.002,0.017-0.005,0.027-0.008L69.288,31.902z M72.761,25.868c0,0-0.001-0.003-0.002-0.007
				c0.004,0.002,0.006,0.004,0.01,0.006c0.002,0.001,0.003,0.001,0.006,0.003C72.766,25.869,72.761,25.868,72.761,25.868z
				 M76.307,32.483c0.005,0.042,0.011,0.081,0.016,0.109C76.311,32.561,76.307,32.523,76.307,32.483z M77.752,39.333
				c-0.037-0.062-0.026-0.103,0.006-0.132c0.055,0.064,0.139,0.182,0.173,0.347c0.006,0.033,0.013,0.064,0.021,0.095
				C77.876,39.524,77.797,39.407,77.752,39.333z M42.994,9.532c-0.063-0.051-0.167,0-0.167,0l0.269,0.089
				C43.085,9.571,43.047,9.576,42.994,9.532z M53.816,5.41c0.02-0.012,0.036-0.029,0.05-0.048l-0.1-0.074
				C53.749,5.368,53.743,5.456,53.816,5.41z M74.894,46.666c0.017-0.034,0.009-0.073-0.01-0.112l-0.017,0.214
				C74.871,46.734,74.879,46.697,74.894,46.666z M65.246,37.141c-0.133-0.183-0.178-0.438-0.31-0.62
				c-0.134-0.183-0.266,0.146-0.31,0.365c0,0-0.04,0.416,0.003,0.621c0.042,0.206-0.042,0.756-0.124,0.928
				c-0.083,0.171-0.231,0.496-0.231,0.678c0,0.183,0.177,0.183,0.399,0.037c0.221-0.146,0.397-0.329,0.575-0.512
				c0.177-0.183,0.177-0.366,0.266-0.548c0.088-0.183-0.045-0.255-0.134-0.511C65.29,37.323,65.379,37.323,65.246,37.141z
				 M72.445,43.616c-0.021-0.068-0.062-0.188-0.084-0.257c-0.021-0.068-0.125-0.223-0.125-0.223s-0.063-0.155-0.104-0.224
				c-0.043-0.069-0.126-0.069-0.126-0.069c-0.083-0.017-0.125,0.206-0.146,0.327c-0.021,0.121-0.103,0.275-0.229,0.327
				c-0.124,0.052-0.104,0.12-0.145,0.189c-0.041,0.068-0.062,0.481,0.001,0.807c0.063,0.327,0.25,0.275,0.521,0.412
				c0.271,0.136,0.312-0.121,0.354-0.207c0.042-0.086,0.042-0.12,0.083-0.19c0.042-0.068,0.104-0.085,0.125-0.189
				c0.02-0.103-0.022-0.343-0.042-0.395C72.507,43.873,72.466,43.685,72.445,43.616z M71.549,43.308
				c0.062,0.138,0.125-0.017,0.145-0.121c0.021-0.103,0.041-0.189,0.083-0.309c0.041-0.12,0.062-0.326,0.062-0.326
				c-0.062-0.085-0.125,0.171-0.229,0.361C71.507,43.101,71.486,43.17,71.549,43.308z M72.152,42.5
				c0.041-0.086,0.042-0.069,0.146-0.086c0.104-0.017-0.044-0.099-0.104-0.12c-0.146-0.052-0.209,0.104-0.187,0.189
				C72.027,42.568,72.111,42.586,72.152,42.5z M71.693,41.486c0-0.052,0.021-0.189,0.021-0.257c0-0.069-0.042-0.104-0.104-0.19
				c-0.062-0.086-0.208-0.068-0.208-0.068c-0.124-0.034-0.146,0.138-0.104,0.207c0.042,0.068,0.063,0.103,0.063,0.103
				s0.064,0.67,0.042,0.824c-0.02,0.154-0.02,0.447-0.02,0.447s0,0,0.042-0.086c0.041-0.086,0.207-0.309,0.25-0.361
				C71.714,42.053,71.693,41.537,71.693,41.486z M68.667,36.421c-0.104-0.12-0.125-0.224-0.209-0.327
				c-0.083-0.103-0.188-0.361-0.292-0.498c-0.105-0.137-0.146-0.068-0.208,0c0,0-0.208,0.309-0.229,0.464
				c-0.021,0.154,0.167,0.326,0.25,0.498c0.084,0.171,0.292,0.361,0.355,0.429c0.062,0.069,0.207,0.034,0.312,0.05
				c0.104,0.018,0.187-0.119,0.187-0.119s0.042-0.103,0.021-0.172C68.834,36.679,68.772,36.542,68.667,36.421z M66.833,34.74
				l-0.062,0.205c0,0-0.062,0.327-0.062,0.43c0,0.103,0.063,0.241,0.063,0.241s0.062-0.017,0.125-0.017
				c0.062,0,0.083-0.052,0.083-0.172c0-0.12,0,0-0.062-0.103c-0.062-0.103,0-0.12-0.021-0.206c-0.021-0.086,0.125-0.378,0.125-0.378
				L66.833,34.74z M66.957,34.327c0,0-0.145,0.017-0.228,0.138c-0.084,0.12,0.083,0.103,0.083,0.103l0.312-0.086
				c0,0,0.062-0.086,0.062-0.155C67.186,34.258,67.144,34.258,66.957,34.327z M46.062,11.491l0.416,0.053
				c-0.037-0.027-0.077-0.061-0.124-0.105C46.186,11.285,46.062,11.491,46.062,11.491z M42.047,19.755l0.482,0.01
				C42.418,19.58,42.172,19.671,42.047,19.755z M46.142,29.795l-0.109-0.057C46.077,29.807,46.142,29.795,46.142,29.795z
				 M39.005,16.298l0.054-0.047C39.013,16.281,39.005,16.298,39.005,16.298z M74.859,46.854l0.008-0.086
				C74.859,46.815,74.859,46.854,74.859,46.854z M47.083,39.988l-0.035-0.144C47.048,39.844,47.06,39.921,47.083,39.988z
				 M74.619,47.584l-0.009,0.231C74.622,47.76,74.638,47.662,74.619,47.584z M74.6,48.073l0.01-0.257
				c-0.006,0.026-0.01,0.042-0.01,0.042L74.6,48.073z"/>
			<path fill="#FDCE1C" d="M2.328,14.463l0.017,17.196c0.002,1.5-0.145,2.438-0.441,2.813c-0.296,0.375-0.746,0.564-1.349,0.564
				c-0.143,0-0.31-0.013-0.498-0.038l0.002,2.434c0.283,0.026,0.569,0.039,0.859,0.039c1.656-0.002,2.84-0.516,3.552-1.545
				c0.558-0.791,0.837-2.194,0.835-4.207L5.289,14.461L2.328,14.463z"/>
		</g>
	</g>
</g>
</svg>
