<?xml version="1.0" encoding="utf-8"?>
<!-- Generator: Adobe Illustrator 17.0.0, SVG Export Plug-In . SVG Version: 6.00 Build 0)  -->
<!DOCTYPE svg PUBLIC "-//W3C//DTD SVG 1.1//EN" "http://www.w3.org/Graphics/SVG/1.1/DTD/svg11.dtd">
<svg version="1.1" id="Layer_1" xmlns="http://www.w3.org/2000/svg" xmlns:xlink="http://www.w3.org/1999/xlink" x="0px" y="0px"
	 width="308px" height="195px" viewBox="0 0 308 195" enable-background="new 0 0 308 195" xml:space="preserve">
<g>
	<rect x="0.461" y="-2.982" display="none" fill="#FFCB05" width="304.969" height="199.843"/>
	<g>
		<path fill="#FDCE1C" d="M50.836,141.616c-0.204-0.285-0.496-0.518-0.874-0.695c-0.376-0.179-0.828-0.268-1.354-0.268
			c-0.627,0-1.142,0.139-1.543,0.416c-0.357,0.246-0.611,0.565-0.772,0.952h4.784C51.009,141.883,50.932,141.749,50.836,141.616z
			 M60.873,146.702c0,0.717-0.016,1.142-0.05,1.273c-0.032,0.131-0.136,0.198-0.309,0.198c-0.164,0-0.262-0.064-0.299-0.192
			c-0.037-0.127-0.056-0.533-0.056-1.213v-4.109h-2.345v4.055c0,0.753,0.015,1.255,0.042,1.508c0.026,0.253,0.095,0.496,0.205,0.729
			c0.111,0.233,0.282,0.421,0.515,0.561c0.232,0.141,0.524,0.211,0.876,0.211c0.31,0,0.583-0.074,0.822-0.221
			c0.238-0.148,0.438-0.37,0.6-0.664l-0.039,0.727h2.386v-6.905h-2.346C60.873,142.659,60.873,146.702,60.873,146.702z
			 M60.159,140.811h-2.345v1.209h2.345V140.811z M49.025,143.225v4.037c0,0.378-0.022,0.624-0.067,0.739
			c-0.043,0.114-0.137,0.171-0.275,0.171c-0.134,0-0.226-0.062-0.273-0.189c-0.047-0.125-0.07-0.394-0.07-0.807v-3.951
			c0-0.235,0.006-0.422,0.019-0.566h-2.251c-0.075,0.391-0.113,0.859-0.113,1.417v2.243c0,0.743,0.042,1.3,0.127,1.672
			c0.085,0.371,0.227,0.689,0.426,0.95c0.201,0.262,0.479,0.459,0.838,0.588c0.361,0.13,0.8,0.195,1.318,0.195
			c0.465,0,0.876-0.076,1.234-0.228c0.358-0.151,0.651-0.387,0.879-0.706c0.228-0.319,0.377-0.661,0.447-1.029
			c0.069-0.367,0.104-0.943,0.104-1.731v-2.143c0-0.523-0.029-0.927-0.082-1.226h-2.281
			C49.019,142.803,49.025,142.99,49.025,143.225z M75.066,141.791c-0.074-0.328-0.239-0.599-0.493-0.814
			c-0.255-0.215-0.584-0.324-0.987-0.324c-0.322,0-0.605,0.081-0.851,0.241c-0.246,0.161-0.454,0.402-0.625,0.724l0.042-0.806
			h-2.386v1.209h5.338C75.093,141.936,75.081,141.856,75.066,141.791z M87.023,138.886h-2.345v2.481
			c-0.197-0.238-0.417-0.416-0.658-0.536c-0.243-0.118-0.508-0.178-0.799-0.178c-0.375,0-0.698,0.107-0.969,0.321
			c-0.271,0.213-0.443,0.459-0.519,0.741c-0.022,0.083-0.04,0.188-0.056,0.305h5.346L87.023,138.886L87.023,138.886z
			 M63.219,140.811h-2.346v1.209h2.346V140.811z M135.342,149.564h2.344v-5.917c0-0.452,0.011-0.775,0.031-0.988h-2.376V149.564
			L135.342,149.564z M105.389,146.853c0,0.87,0.022,1.423,0.064,1.658c0.043,0.235,0.152,0.445,0.325,0.627
			c0.175,0.183,0.376,0.299,0.605,0.35c0.228,0.051,0.609,0.076,1.144,0.076h0.946v-1.412c-0.384,0-0.6-0.033-0.653-0.099
			c-0.053-0.066-0.078-0.386-0.078-0.963v-4.431h-2.351L105.389,146.853L105.389,146.853z M114.596,149.564h2.415v-6.905h-2.415
			V149.564z M96.41,143.305c0,0.365-0.028,0.607-0.082,0.725c-0.054,0.119-0.466,0.351-1.236,0.693
			c-0.72,0.317-1.17,0.594-1.353,0.831c-0.181,0.237-0.273,0.683-0.273,1.339v0.719c0,0.883,0.171,1.457,0.514,1.718
			c0.342,0.262,0.718,0.393,1.128,0.393c0.313,0,0.584-0.078,0.81-0.234c0.226-0.157,0.412-0.391,0.554-0.704v0.781h2.281v-4.392
			c0-1.149-0.025-1.983-0.076-2.513h-2.302C96.398,142.819,96.41,143.029,96.41,143.305z M96.41,147.202
			c0,0.44-0.023,0.711-0.068,0.814c-0.044,0.104-0.139,0.156-0.287,0.156c-0.155,0-0.258-0.067-0.31-0.198
			c-0.052-0.131-0.079-0.425-0.079-0.878c0-0.396,0.03-0.699,0.09-0.91c0.061-0.211,0.278-0.473,0.654-0.785L96.41,147.202
			L96.41,147.202z M138.406,143.502v6.062h2.346v-6.134c0-0.292-0.007-0.542-0.018-0.771h-2.348
			C138.4,142.852,138.406,143.125,138.406,143.502z M117.011,138.886h-2.415v1.392h2.415V138.886z M93.466,143.614v0.587h2.2v-0.916
			c0-0.265,0.006-0.47,0.018-0.626h-2.156C93.487,142.934,93.466,143.249,93.466,143.614z M69.766,149.564h2.344v-5.917
			c0-0.452,0.012-0.775,0.031-0.988h-2.375L69.766,149.564L69.766,149.564z M39.913,141.022h-0.987v-0.277
			c0-0.237,0.044-0.382,0.131-0.432c0.087-0.051,0.372-0.075,0.856-0.075v-1.353h-0.859c-0.523,0-0.908,0.039-1.156,0.118
			c-0.248,0.079-0.44,0.195-0.579,0.347c-0.137,0.151-0.222,0.324-0.259,0.517c-0.033,0.194-0.051,0.578-0.051,1.154h-0.482v0.997
			h3.385V141.022z M37.01,149.564h2.345v-6.905H37.01V149.564z M72.831,143.502v6.062h2.344v-6.134c0-0.292-0.006-0.542-0.017-0.771
			h-2.349C72.823,142.852,72.831,143.125,72.831,143.502z M84.678,143.014v4.05c0,0.488-0.025,0.795-0.076,0.919
			c-0.049,0.127-0.151,0.189-0.301,0.189c-0.131,0-0.22-0.056-0.267-0.169c-0.046-0.112-0.069-0.346-0.069-0.702v-4.287
			c0-0.141,0.005-0.256,0.013-0.355h-2.351c-0.005,0.149-0.007,0.311-0.007,0.489v4.094c0,0.646,0.037,1.113,0.113,1.398
			c0.076,0.287,0.246,0.539,0.513,0.755c0.268,0.218,0.583,0.327,0.947,0.327c0.271,0,0.529-0.065,0.777-0.198
			c0.248-0.132,0.484-0.331,0.708-0.595v0.635h2.345v-6.905h-2.359C84.673,142.759,84.678,142.875,84.678,143.014z M97.907,141.131
			c-0.403-0.317-1.001-0.478-1.794-0.478c-0.662,0-1.2,0.141-1.614,0.423c-0.403,0.274-0.671,0.589-0.813,0.944h4.867
			C98.436,141.679,98.224,141.382,97.907,141.131z M108.373,141.022h-0.632v-1.378h-2.351v1.378h-0.505v0.997h3.488L108.373,141.022
			L108.373,141.022z M128.329,141.616c-0.204-0.285-0.494-0.518-0.872-0.695c-0.378-0.179-0.829-0.268-1.356-0.268
			c-0.626,0-1.141,0.139-1.543,0.416c-0.357,0.246-0.609,0.565-0.772,0.952h4.784C128.502,141.883,128.424,141.749,128.329,141.616z
			 M117.011,140.811h-2.415v1.209h2.415V140.811z M126.519,143.225v4.037c0,0.378-0.023,0.624-0.067,0.739
			c-0.044,0.114-0.137,0.171-0.276,0.171c-0.135,0-0.225-0.062-0.273-0.189c-0.046-0.125-0.069-0.394-0.069-0.807v-3.951
			c0-0.235,0.008-0.422,0.019-0.566h-2.251c-0.074,0.391-0.113,0.859-0.113,1.417v2.243c0,0.743,0.042,1.3,0.128,1.672
			c0.085,0.371,0.227,0.689,0.426,0.95c0.199,0.262,0.479,0.459,0.839,0.588c0.361,0.13,0.799,0.195,1.318,0.195
			c0.465,0,0.876-0.076,1.234-0.228c0.357-0.151,0.651-0.387,0.88-0.706c0.227-0.319,0.378-0.661,0.447-1.029
			c0.07-0.367,0.104-0.943,0.104-1.731v-2.143c0-0.523-0.028-0.927-0.082-1.226h-2.281
			C126.513,142.803,126.519,142.99,126.519,143.225z M140.641,141.791c-0.073-0.328-0.238-0.599-0.492-0.814
			c-0.256-0.215-0.585-0.324-0.987-0.324c-0.321,0-0.605,0.081-0.85,0.241c-0.246,0.161-0.454,0.402-0.625,0.724l0.041-0.806h-2.386
			v1.209h5.339C140.668,141.936,140.656,141.856,140.641,141.791z"/>
		<g>
			
				<rect x="43.242" y="45.41" transform="matrix(-9.752947e-004 -1 1 -9.752947e-004 -1.9673 97.6103)" fill="#FDCE1C" width="9.065" height="8.756"/>
			<path fill="#FDCE1C" d="M94.733,80.525c-1.222,0.968-2.377,1.674-3.498,2.079c-1.122,0.405-2.324,0.608-3.609,0.609
				c-2.122,0.002-3.754-0.49-4.893-1.474c-1.141-0.984-1.712-2.246-1.713-3.78c-0.001-0.9,0.213-1.721,0.642-2.467
				c0.431-0.746,0.994-1.343,1.69-1.793c0.695-0.452,1.48-0.793,2.354-1.024c0.642-0.161,1.612-0.318,2.907-0.469
				c2.644-0.303,4.589-0.662,5.838-1.081c0.012-0.426,0.016-0.697,0.016-0.813c-0.001-1.267-0.311-2.163-0.932-2.681
				c-0.835-0.704-2.08-1.054-3.727-1.053c-1.541,0.001-2.676,0.26-3.41,0.775c-0.732,0.514-1.274,1.422-1.623,2.727l-3.202,0.069
				c0.29-1.304,0.765-2.839,1.434-3.64c0.664-0.804,1.627-1.423,2.89-1.855c1.258-0.434,2.719-0.651,4.38-0.653
				c1.649-0.001,2.989,0.179,4.02,0.548c1.029,0.368,1.789,0.832,2.275,1.391c0.485,0.559,0.825,1.266,1.018,2.119
				c0.111,0.532,0.166,1.489,0.167,2.874l0.004,4.153c0.003,2.895-0.02,6.79-0.019,7.702l-3.009-0.029
				C94.728,82.104,94.722,80.875,94.733,80.525z M94.454,73.566c-1.189,0.462-2.971,0.858-5.347,1.182
				c-1.346,0.187-2.296,0.396-2.853,0.625c-0.558,0.232-0.989,0.572-1.29,1.015c-0.303,0.445-0.456,0.938-0.455,1.48
				c0.001,0.831,0.333,1.524,0.995,2.078c0.66,0.552,1.626,0.829,2.9,0.828c1.262-0.001,2.383-0.266,3.364-0.792
				c0.981-0.526,1.702-1.245,2.162-2.159c0.35-0.703,0.526-1.743,0.525-3.114L94.454,73.566z"/>
			<path fill="#FDCE1C" d="M141.534,80.478c-1.223,0.969-2.377,1.676-3.498,2.08c-1.122,0.405-2.326,0.608-3.609,0.609
				c-2.122,0.002-3.753-0.49-4.893-1.475c-1.142-0.982-1.712-2.245-1.714-3.779c-0.001-0.9,0.213-1.721,0.644-2.467
				c0.431-0.744,0.993-1.343,1.689-1.791c0.697-0.452,1.481-0.794,2.355-1.024c0.641-0.161,1.612-0.318,2.908-0.469
				c2.642-0.303,4.589-0.662,5.837-1.081c0.012-0.426,0.016-0.697,0.016-0.813c-0.001-1.269-0.311-2.164-0.929-2.681
				c-0.837-0.704-2.082-1.055-3.73-1.054c-1.54,0-2.676,0.259-3.409,0.775c-0.732,0.513-1.275,1.422-1.624,2.728l-3.2,0.069
				c0.289-1.304,0.766-2.839,1.433-3.641c0.664-0.804,1.627-1.423,2.89-1.856c1.259-0.434,2.719-0.651,4.38-0.653
				c1.65-0.001,2.99,0.179,4.02,0.549c1.029,0.367,1.788,0.831,2.275,1.391c0.485,0.559,0.826,1.266,1.02,2.119
				c0.109,0.532,0.166,1.489,0.168,2.874l0.004,4.153c0.003,2.895-0.022,6.79-0.021,7.702l-3.009-0.028
				C141.529,82.058,141.523,80.829,141.534,80.478z M141.254,73.521c-1.186,0.461-2.971,0.856-5.346,1.181
				c-1.346,0.187-2.296,0.396-2.854,0.625c-0.558,0.232-0.988,0.572-1.29,1.015c-0.301,0.445-0.456,0.937-0.455,1.479
				c0.001,0.83,0.334,1.524,0.995,2.077c0.66,0.553,1.628,0.831,2.9,0.83c1.263-0.002,2.384-0.266,3.366-0.794
				c0.982-0.526,1.7-1.244,2.16-2.157c0.35-0.703,0.528-1.742,0.527-3.115L141.254,73.521z"/>
			<path fill="#FDCE1C" d="M217.11,137.718c0.185-0.205,0.246-0.61,0.122-0.915c-0.123-0.304-0.369-0.101-0.555,0.052
				c0,0-0.183,0.354-0.432,0.406c-0.245,0.051-0.306,0.304-0.368,0.612c-0.06,0.303,0.062,0.353,0.125,0.658
				c0.062,0.303,0.245,0.303,0.245,0.303l0.248-0.406C216.494,138.429,216.925,137.92,217.11,137.718z M217.726,140.207
				c-0.244-0.102-0.308,0.051-0.614,0.202c0,0-0.247,0.306-0.556,0.408c-0.308,0.102-0.06,0.71-0.06,0.71s0.184-0.048,0.431-0.204
				c0.247-0.152,0.186-0.201,0.37-0.303c0.185-0.102,0.247-0.102,0.492-0.204c0.246-0.101,0.183-0.505,0.183-0.505
				S217.973,140.31,217.726,140.207z M214.951,135.38c-0.308-0.097-0.307,0.308-0.184,0.562c0,0-0.062,0.05,0.124,0.658
				c0.185,0.61-0.061,0.56-0.061,0.56l-0.491,0.509c0,0-0.31,0.456-0.616,0.813c-0.308,0.355-0.614,0.355-0.491,0.968
				c0.123,0.609,0.491,0.353,0.677,0.049c0.184-0.304,0.491-0.661,0.614-0.813c0.125-0.152,0.371-0.609,0.493-1.068
				c0.123-0.456,0.37-0.914,0.553-1.473C215.752,135.586,215.258,135.482,214.951,135.38z M221.166,127.145
				c-0.371-0.558-0.742-0.963-0.928-1.472c-0.185-0.507-0.185-0.405-0.185-0.559c0-0.151-0.368-0.558-0.616-0.761
				c-0.247-0.203-0.431,0.051-0.741-0.354c-0.306-0.406-0.306-0.711-0.431-1.169c-0.126-0.457-0.31-0.713-0.431-1.016
				c-0.125-0.304-0.433-0.608-0.433-0.608s-0.37-0.408-0.555-0.661c-0.184-0.252-0.739-0.251-0.987-0.1
				c-0.245,0.153-0.739,0.204-0.861,0.356c0,0,0.124,1.221,0.124,1.423c0.001,0.204-0.245,0.508-0.429,0.915
				c-0.185,0.407,0,1.016,0.062,1.32c0.062,0.306,0.185,0.609,0.739,0.865c0.556,0.252,1.048,0.405,1.418,0.81
				c0.37,0.407,0.494,1.929,0.494,2.337c0.001,0.406,0.001,1.931,0.311,3.097c0.309,1.169-1.043,3-1.476,3.965
				c-0.428,0.966,0.187,0.66,0.557,0.76c0.369,0.103,0.308,0.051,0.615,0.104c0.308,0.05,0.371,0.71,0.31,1.015
				c-0.061,0.306-0.677,1.068-1.17,1.577c-0.491,0.509,0,0.558,0.926,0.101c0.924-0.459,1.659-1.527,1.659-1.527
				s0.308-0.202,0.677-0.202c0.37,0,0.741-0.255,1.048-1.07c0.306-0.812,0.736-2.235,0.982-3.556
				c0.245-1.32,0.366-3.048,0.303-3.759C222.088,128.262,221.536,127.706,221.166,127.145z M214.025,134.926
				c0.248-0.306,0.863-1.271,0.985-1.527c0.122-0.252,0.244-0.913,0.368-1.421c0.121-0.508,0.06-0.813,0.121-1.168
				c0.061-0.357-0.31-1.778-0.433-2.744c-0.125-0.965-0.186-1.269-0.864-2.08c-0.679-0.813-1.541-0.406-1.725-0.152
				c0,0-0.554,1.118-0.739,1.626c-0.184,0.507-0.614,0.661-0.861,0.865c-0.246,0.204-0.676-0.102-1.293-0.304
				c-0.616-0.202-1.355,0.307-1.664,0.51c-0.308,0.204-0.86,0.965-0.922,1.778c-0.059,0.813-0.798,1.067-1.107,1.323
				c-0.308,0.254-0.184,1.524-0.184,1.881c0.001,0.354-0.12,2.489-0.243,2.842c-0.123,0.358-0.737,0.714-1.169,0.816
				c-0.431,0.102-0.863,0.559-0.863,0.559s-0.185,0.155-0.554,0.458c-0.369,0.305-0.246,0.508-0.43,0.863
				c-0.183,0.357-0.428,0.866-0.552,1.12c-0.125,0.254-1.047,1.473-1.292,1.729c-0.245,0.253-0.06,1.472,0.617,1.624
				c0.679,0.153,0.861-0.307,1.048-0.61c0.183-0.308,0.122-0.308,0.367-0.713c0.246-0.406,0,0,0.185-0.102
				c0.184-0.101,0.369-0.151,0.369-0.151s0.125,0.102,0.062,0.253c-0.062,0.153-0.492,0.764-0.798,1.475
				c-0.308,0.71,0.062,0.761,0.679,1.167c0.616,0.405,1.602,0.048,2.647-0.409c1.048-0.46,1.047-1.271,1.353-1.677
				c0.308-0.407,0.555-1.17,0.676-1.576c0.123-0.405,0.122-0.812,0.307-1.22c0.186-0.406,0.801-1.524,1.107-1.879
				c0.307-0.356,0.37-0.408,0.43-0.865c0.063-0.458-0.123-1.117-0.123-1.117s0.185-0.051,0.431-0.001
				c0.246,0.051,0.799-0.458,0.799-0.458s-0.307,0.763-0.368,0.914c-0.062,0.153,0.124,0.508,0.063,0.914
				c-0.061,0.409,0.307,0.559,0.493,0.509c0.185-0.054,0.493-0.357,0.554-0.56c0.061-0.204,0.554-0.357,0.923-1.221
				c0.369-0.865,0.308-0.306,0.555-0.407C213.228,135.69,213.78,135.232,214.025,134.926z M212.122,139.399
				c-0.06-0.357-0.493-0.305-0.677-0.203c0,0-0.739,0.255-1.232,0.508c-0.493,0.255-0.803,0.763-1.107,1.221
				c-0.308,0.458-0.738,1.423-0.8,1.83c-0.062,0.406-0.06,0.863,0.247,1.014c0.308,0.152,0.432-0.355,0.432-0.355
				s0.306-1.016,0.306-1.372c0-0.354,0.121-0.355,0.184-0.509c0.062-0.152,0.061-0.204,0.247-0.305
				c0.185-0.101,0.061,0.354-0.061,0.713c-0.123,0.355-0.001,0.456,0.31,0.711c0.306,0.255,0.738,0.101,1.23-0.154
				c0.493-0.255,0.677-0.509,0.862-0.813c0.185-0.307,0.061-0.359,0.062-0.966C212.122,140.108,212.184,139.755,212.122,139.399z
				 M213.84,137.476c0.091-0.147,0.089-0.255,0.089-0.366s-0.176-0.145-0.353-0.219c-0.177-0.073-0.326,0.092-0.399,0.331
				c-0.176,0.583,0.045,0.876,0.045,0.876s0.178-0.146,0.354-0.293C213.753,137.658,213.753,137.622,213.84,137.476z
				 M214.155,140.971c-0.307,0.253-0.554,0.459-0.738,0.967c-0.183,0.507,0.431,0.456,0.678,0.303
				c0.248-0.153,0.615-0.712,0.862-0.916c0.245-0.203-0.063-1.167-0.063-1.167S214.462,140.718,214.155,140.971z M219.542,120.426
				c0.049,0.151,0.148,0.268,0.234,0.371l-0.968-1.992c0,0.139-0.167,0.605,0.056,0.974
				C219.091,120.149,219.428,120.104,219.542,120.426z M225.388,129.962l0.957,2.223c0,0-0.056-0.788-0.224-1.297
				C225.952,130.378,225.388,129.962,225.388,129.962z M219.777,120.798l0.158,0.322
				C219.966,121.019,219.879,120.919,219.777,120.798z M225.236,134c-0.185,0.51,0.309,0.406,0.37,0.203
				c0.061-0.203-0.062-0.864-0.062-0.864S225.421,133.493,225.236,134z M227.569,126.377c0.185-0.052,0.123-0.203,0.123-0.203
				l-0.307-0.202c0,0-0.309-0.023-0.618,0c-0.677,0.049-0.121,0.456-0.121,0.456s0.308,0.051,0.492,0.051
				C227.324,126.48,227.386,126.429,227.569,126.377z M225.356,130.851c-0.185-0.306-0.184,0.253-0.308,0.66
				c-0.122,0.407,0,0.354,0,0.508c0,0.152-0.123,0.507-0.122,0.915c0.001,0.405,0.184,0.355,0.308,0.05
				c0.123-0.305,0.185-0.558,0.184-0.966C225.419,131.613,225.356,130.851,225.356,130.851z M224.499,134.712
				c0,0-0.247,0.152-0.37,0.406c-0.122,0.253-0.245,0.509-0.244,0.712c-0.001,0.203,0.06,0.507,0.245,0.66
				c0.186,0.152,0.371-0.051,0.493-0.356c0.123-0.306,0.247-0.662,0.306-1.12C224.991,134.56,224.499,134.712,224.499,134.712z
				 M216.41,115.719l-0.677-0.302c-0.369,0-0.184,0.456-0.061,0.963c0.125,0.51,0.124,0.306,0.308,0.408
				c0.184,0.102,0.431,0.101,0.863,0.253c0.432,0.151,0.678-0.152,0.678-0.152s-0.061-0.256-0.309-0.457
				c-0.248-0.206-0.185-0.153-0.432-0.306C216.532,115.973,216.595,115.923,216.41,115.719z M223.14,126.675l1.407,1.665
				C224.265,127.879,223.14,126.675,223.14,126.675z M223.627,125.823c0.125-0.204-0.247-0.254-0.494-0.458
				c-0.246-0.202-0.184-0.05-0.616-0.15c-0.431-0.103-0.676-0.102-0.676-0.102s-0.308,0.204-0.184,0.458
				c0.122,0.255,0.307,0.254,0.862,0.558c0.554,0.303,0.369,0,0.616-0.052C223.381,126.025,223.502,126.025,223.627,125.823z
				 M226.518,134.221c0,0-0.112,1.482,0.111,1.76L226.518,134.221z M190.875,144.55c0,0-0.308-0.405-0.495-0.61
				c-0.181-0.202-0.308-0.76-0.431-1.063c-0.125-0.308,0-0.308-0.063-0.561c-0.062-0.254,0.062-0.304,0.062-0.508
				c0-0.204-0.125-0.303-0.432-0.457c-0.307-0.152-0.243,0.605-0.555,0.511c-0.492-0.152-0.554,0.609-0.614,1.169
				c-0.062,0.557,0.185,0.354,0.555,0.709c0.368,0.356,0.245,0.253,0.431,0.407c0.185,0.153,0.061,0.204,0.308,0.558
				c0.248,0.355,0.063,0.458,0.248,0.813c0.184,0.355,0.492,0.254,0.492,0.254s0.555,0.049,0.802,0.049
				c0.245-0.002,0.308-0.102,0.369-0.305c0.06-0.204-0.248-0.458-0.31-0.711C191.183,144.55,190.875,144.55,190.875,144.55z
				 M180.898,146.948c-0.124-0.202,0.183-0.711,0.183-0.864c0-0.154,0.063-0.407-0.124-0.659c-0.185-0.255-0.186-0.814-0.186-0.814
				s0-0.611-0.124-0.966c-0.122-0.355-0.002-1.675-0.002-1.829c0-0.153-0.368-0.406-0.368-0.406s-0.248-0.103-0.433-0.153
				c-0.184-0.05-0.368-0.202-0.368-0.202s-0.063-0.408-0.063-0.609c-0.001-0.202,0.122-0.354,0.061-0.762
				c-0.063-0.407-0.493-0.354-0.74-0.202c0,0-0.738,0.763-0.985,1.118c-0.246,0.356,0.185,0.406,0.556,0.507
				c0.369,0.101,0.431,0.151,0.739,0.406c0.308,0.255,0.001,1.373-0.059,1.929c-0.062,0.561-0.247,0.712-0.308,1.17
				c-0.062,0.456,0.123,0.151,0.433,0.661c0.308,0.506,0.307,0.302,0.43,0.454c0.125,0.153,0.248,0.508,0.248,0.66
				c0,0.152-0.059,0.812-0.429,1.424c-0.368,0.609-0.061,0.556-0.061,0.556s0.862-0.201,1.477-0.457
				c0.618-0.255,0.492-0.56,0.492-0.56S181.023,147.151,180.898,146.948z M182.497,142.984c0.122-0.152,0.553-0.915,0.551-1.218
				c0-0.305-0.062-0.255-0.122-0.51c-0.064-0.253-0.185-0.355-0.249-0.506c-0.06-0.153-0.247-0.355-0.431-0.611
				c-0.185-0.254-0.864-1.166-0.864-1.369c0.001-0.204,0.06-0.916-0.126-1.271c-0.184-0.355-0.677-0.201-0.799-0.049
				c0,0,0.063,0.406,0.001,0.662c-0.06,0.253-0.369,0.81-0.615,1.015c-0.247,0.204-0.121,0.204,0,0.405
				c0.125,0.203,0.125,0.154,0.185,0.457c0.063,0.306-0.124,0.204-0.246,0.509c-0.122,0.305,0.185,0.305,0.494,0.456
				c0.307,0.152,0.491,0.204,0.554,0.354c0.063,0.156,0.31,0.611,0.19,1.12c-0.126,0.509,0.122,0.863,0.368,0.965
				c0.246,0.1,0.368-0.001,0.553-0.052C182.126,143.289,182.372,143.137,182.497,142.984z M196.23,141.039
				c0-0.152-0.001-0.609-0.063-1.015c-0.061-0.407-0.308-0.966-0.308-0.966c-0.553,0.205-0.614,1.373-0.429,1.575
				c0.185,0.204,0.122,0.407-0.061,0.816c-0.185,0.405,0.123,0.657,0.431,1.113c0.309,0.459,0.556-0.049,0.556-0.049
				s-0.001-0.305-0.065-0.66C196.23,141.498,196.229,141.192,196.23,141.039z M188.843,144.552c-0.248-0.355-0.187-0.61-0.187-0.61
				c-0.185-0.609-0.307-0.153-0.431,0.204c-0.122,0.356,0,0.356,0,0.506c0,0.154,0.184,0.461,0.126,0.66
				c-0.064,0.205-0.185,0.611-0.062,0.967c0.123,0.357,0.556,0.053,0.556,0.053s0.183-0.306,0.245-0.51
				c0.061-0.201,0.247-0.406,0.184-0.557C189.213,145.113,189.088,144.906,188.843,144.552z M186.558,139.83
				c-0.123-0.152-0.123-0.254-0.247-0.456c-0.123-0.205,0.012-0.408-0.185-0.609c-0.493-0.507-0.492,0.356-0.677,0.661
				c-0.185,0.303-0.185,0.456-0.247,0.709c-0.06,0.257,0.001,0.41,0.125,0.563c0.123,0.15,0.125,0.556,0.741,0.86
				c0.617,0.306,0.924-0.256,0.986-0.458c0.06-0.203-0.001-0.507-0.125-0.759C186.805,140.085,186.683,139.981,186.558,139.83z
				 M182.773,143.16c-0.276-0.075-0.553,0.306-0.553,0.306s0,0.381,0.461,0.23C183.142,143.542,183.05,143.237,182.773,143.16z
				 M216.093,58.954l-1.474-0.049C214.959,59.016,216.093,58.954,216.093,58.954z M215.24,116.482
				c0.063-0.509,0.185-0.711,0.063-1.218c-0.127-0.507-0.126-0.559-0.126-0.559s0-0.254-0.247-0.558
				c-0.247-0.305-0.494-0.102-0.985,0.002c-0.492,0.101-1.048,0.203-1.416,0.406l0.184,0.507c0,0,0.308,0.509,0.434,0.66
				c0.121,0.153,0.554,0.253,0.554,0.253s0.555,0.406,1.047,0.865C215.24,117.295,215.179,116.991,215.24,116.482z M197.454,140.13
				l0.44,1.263c0,0,0.124-0.254-0.184-0.763C197.603,140.457,197.52,140.283,197.454,140.13z M216.897,116.076
				c0.225,0.14,0.225,0.14,0.449,0.324c0.225,0.185,0.73,0.647,0.73,0.647l-1.142-1.959c-0.006,0.048-0.017,0.112-0.037,0.2
				C216.783,115.798,216.671,115.937,216.897,116.076z M216.885,115.007l0.049,0.081
				C216.968,114.851,216.885,115.007,216.885,115.007z M201.403,139.51c0.125-0.151,0.247-0.151,0.554-0.507
				c0.309-0.357,0.554-0.967,0.862-1.321c0.308-0.356,1.047-0.662,1.415-0.815c0.37-0.153,0.863-0.053,0.924-0.713
				c0.06-0.661-0.129-3.252-0.065-3.405c0.062-0.152-0.125-0.913,0.244-1.269c0.37-0.356,1.047-0.917,1.17-1.221
				c0.124-0.306,0.493-0.865,0.74-1.272c0.245-0.406,0.245-0.508,0.737-0.813c0.492-0.306,0.615-0.357,0.861-0.458
				c0.248-0.103,0.308-0.204,0.924,0c0.616,0.201,0.926,0.352,1.109,0.303c0.186-0.053,0.371-0.204,0.308-0.508
				c-0.063-0.307,0.184-0.61,0.184-0.61s0.43-0.509,0.43-0.712c0-0.202,0.739-0.964,1.047-1.272
				c0.308-0.305,0.123-0.711-0.001-1.676c-0.124-0.964-0.248-1.422-0.494-1.677c-0.247-0.252-0.678-0.405-0.864-0.505
				c-0.184-0.101-0.369,0.052-0.678-0.355c-0.309-0.405-0.123-0.457-0.494-0.558c-0.368-0.102-0.738-0.202-0.925-0.406
				c-0.185-0.203-0.306-0.304-0.491-0.305c-0.185,0.001-0.063,0-0.554,0.051c-0.495,0.052-0.679,0.205-1.11,0.102
				c-0.432-0.1-0.432-0.049-0.802-0.202c-0.368-0.153-0.739-0.404-1.047-0.353c-0.307,0.049-0.614,0-0.738,0.153
				c-0.122,0.153-0.247,0.254-0.37,0.456c-0.121,0.203-0.43,0.663-0.614,0.814c-0.185,0.153-0.679,0.967-0.679,0.967l-0.554,0.559
				c0,0-0.059,1.269-0.49,1.878c-0.43,0.611-0.43,0.66-0.492,0.865c-0.061,0.202-0.246,0.966-0.43,1.321
				c-0.185,0.356-0.369,0.559-0.554,1.323c-0.183,0.762-0.983,1.169-1.352,1.627c-0.37,0.458-0.739,1.32-1.17,1.627
				c-0.429,0.304-0.614,0.356-0.739,0.711c-0.121,0.356-0.059,0.507-0.121,0.762c-0.063,0.253-0.307,0.507-0.307,0.659
				c0,0.152-0.495,0.661-0.247,1.118c0.248,0.458,0.432,1.068,0.494,1.374c0.063,0.303,0.248,1.014,0.311,1.32
				c0.06,0.305,0,0.66,0.061,0.964c0.061,0.306,0.311,1.677,0.372,1.881c0.062,0.202,0.062,0.102,0.248,0.965
				c0.185,0.862,0.308,1.165,0.616,0.963c0.173-0.112,0.247-0.202,0.369-0.659c0.123-0.457,0.182-1.017,0.307-1.373
				c0.123-0.357,0.06-1.27,0.366-1.626c0.31-0.355,0.432-0.611,0.801-1.018c0.368-0.406,0.616-0.914,0.493-1.169
				c-0.125-0.251-0.431-0.102-0.31-0.609c0.125-0.507,0.184-0.508,0.432-0.713c0.245-0.201,0.737-0.253,0.491,0.104
				c-0.247,0.354-0.43,0.405-0.43,0.608c0.001,0.202,0.001,0.357,0.184,0.559c0.188,0.203,0.188,0.457,0.125,0.609
				c-0.061,0.152,0.123,0.051-0.307,0.507c-0.431,0.459-0.554,0.359-0.554,0.611c0,0.253-0.061,0.405,0.001,0.66
				c0.061,0.255,0.307,0.456,0.186,0.609c-0.125,0.152-0.31,0.253-0.369,0.406c-0.061,0.153-0.309,0.459-0.309,0.612
				c0.001,0.15-0.121,0.354,0.062,0.557c0.187,0.204,0.493,0.151,0.678,0C201.033,139.866,201.281,139.663,201.403,139.51z
				 M197.454,140.13l-0.178-0.514C197.276,139.616,197.33,139.836,197.454,140.13z M214.564,58.884
				c-0.255-0.139-0.595,0.002-0.595,0.002l0.65,0.02C214.598,58.899,214.579,58.891,214.564,58.884z M230.372,58.379l-1.868-0.069
				c0,0,0.593,0.21,1.016,0.209C229.948,58.518,230.372,58.379,230.372,58.379z M212.47,118.112c-1.294,0.304-0.307,0.76,0,1.168
				c0.309,0.406,0.184,0.152,0.618,0.253c0.429,0.101,0.431,0.202,0.553,0.355c0.123,0.152,0.493,0.355,0.926,0.354
				c0.431,0,0.307-0.256,0.491-0.558c0.183-0.306,0.308-0.204,0.555-0.459c0.244-0.254,0.677-0.304,1.723-0.155
				c1.048,0.152,0.676-0.355,0.493-0.712c-0.187-0.354-1.357-0.556-1.911-0.657c-0.554-0.102-1.293,0.053-1.91,0.255
				C213.393,118.162,212.47,118.112,212.47,118.112z M190.773,34.183l-0.106-0.18C190.667,34.003,190.693,34.086,190.773,34.183z
				 M244.784,115.005c0.05-0.17,0.36-0.426,0.36-0.426l-1.491,0.526c0.067-0.007,0.137-0.015,0.204-0.015
				C244.423,115.089,244.73,115.174,244.784,115.005z M242.383,85.915l0.095-0.446c-0.005,0.01-0.007,0.017-0.01,0.025
				C242.383,85.704,242.383,85.915,242.383,85.915z M176.908,30.354l0.114,0.013l-0.196-0.147L176.908,30.354z M190.975,34.36
				c-0.089-0.056-0.156-0.119-0.202-0.177l0.314,0.535c0.043-0.032,0.074-0.054,0.074-0.054S191.222,34.513,190.975,34.36z
				 M161.545,25.446c0.207,0.001,0.42-0.032,0.501-0.136L161.545,25.446z M170.591,30.12c0.054-0.04,0.1-0.072,0.143-0.102
				l-0.645-0.417C170.088,29.6,170.151,30.429,170.591,30.12z M175.921,31.12c-0.222-0.027-0.313,0.001-0.384,0.033l1.185,0.065
				C176.722,31.218,176.352,31.17,175.921,31.12z M187.147,68.341c-1.025-1.133-2.261-1.7-3.705-1.699
				c-1.421,0.002-2.627,0.561-3.623,1.681c-0.992,1.119-1.49,2.777-1.488,4.978c0.002,2.397,0.496,4.142,1.48,5.243
				c0.986,1.099,2.217,1.648,3.698,1.647c1.47-0.001,2.702-0.552,3.694-1.647c0.994-1.096,1.491-2.811,1.488-5.151
				C188.688,71.159,188.172,69.474,187.147,68.341z M260.011,168.783c0,0,0-0.51-0.001-0.764c0-0.255-0.412-0.932-0.412-0.932
				L260.011,168.783z M259.083,165.855l-0.271-0.804c0.065,0.342,0.167,0.593,0.167,0.593L259.083,165.855z M258.515,164.16
				l0.297,0.892c-0.015-0.083-0.03-0.167-0.039-0.254C258.72,164.328,258.565,164.328,258.515,164.16z M185.505,133.329
				c0.183,0.203,0.309-0.102,0.431-0.254c0.125-0.155,0.001-0.255,0-0.51c0-0.253,0.061-0.306,0.06-0.508
				c0-0.203-0.062-0.405-0.184-0.558c-0.125-0.152-0.309-0.406-0.494-0.254c-0.185,0.152-0.124,0.305-0.124,0.661
				c0,0,0.248,0.609,0.125,0.863C185.196,133.024,185.319,133.126,185.505,133.329z M235.061,78.742
				c1.052-1.178,1.577-2.973,1.574-5.386c-0.002-2.273-0.534-3.992-1.596-5.162c-1.06-1.172-2.378-1.756-3.955-1.754
				c-1.598,0.002-2.924,0.587-3.977,1.753c-1.054,1.166-1.578,2.927-1.576,5.279c0.002,2.355,0.53,4.116,1.586,5.286
				c1.055,1.171,2.383,1.755,3.982,1.753C232.686,80.509,234.005,79.919,235.061,78.742z M269.364,157.884
				c0-0.252-0.185-0.71-0.369-1.27c-0.187-0.557-0.249-0.964-0.371-1.168c-0.123-0.204-0.186-0.609-0.372-1.472
				c-0.185-0.864-0.185-1.269-0.308-1.827c-0.051-0.234-0.07-0.352-0.09-0.447c0.087,0.232,0.114,0.401,0.114,0.401l-0.259-1.865
				c0,0-0.079,0.294-0.092,0.607c-0.088-0.607-0.056-1.554-0.109-1.845c-0.062-0.354-0.063-1.269-0.063-1.677
				c0-0.406,0.123-1.22,0.184-1.575c0.051-0.289,0.097-0.447,0.016-0.767l0.095-0.86c0.083-0.055,0.192-0.097,0.441-0.303
				c0.368-0.306,0.061-0.153-0.308-0.711c-0.371-0.561,0.123-0.407,0.06-0.865c-0.062-0.456-0.186-1.22-0.309-1.523
				c-0.125-0.305-0.001-1.069-0.002-1.421c0-0.171-0.191-0.528-0.43-0.916l-0.416-1.689c0.143-0.03,0.284-0.037,0.35-0.037
				c0.185-0.001,0.678-0.104,0.74-0.256c0.061-0.153-0.124-0.255-0.434-0.76c-0.048-0.082-0.09-0.159-0.131-0.234l-0.298-1.209
				c0.008-0.287,0.038-0.319-0.127-0.591c-0.184-0.306-0.246-0.609-0.308-0.864c-0.063-0.254,0.061-0.304-0.063-0.71
				c-0.012-0.044-0.024-0.088-0.037-0.132c0.005-0.133,0-0.241-0.014-0.283c-0.04-0.139-0.017-0.195-0.139-0.366
				c-0.049-0.212-0.091-0.399-0.118-0.489c-0.061-0.205-0.062-0.51-0.062-0.51l-0.185-1.168c0,0-0.123-0.964-0.124-1.116
				c0-0.135-0.054-0.356-0.152-0.615c-0.006-0.048-0.021-0.083-0.042-0.115c-0.129-0.316-0.428-1.058-0.551-1.658
				c-0.077-0.389,0.045-1.026,0.16-1.543l0.025,0.326c0,0,0.153-0.552,0.153-1.104c0-0.076-0.007-0.149-0.017-0.216
				c-0.014-0.211-0.076-0.361-0.076-0.612c0-0.358-0.185-0.357-0.37-0.66c-0.183-0.303-0.122-0.558-0.246-0.813
				c-0.049-0.097-0.114-0.089-0.199-0.051l-1.205-2.057c0,0,0.153,0.381,0.153,0.806c0,0.042-0.001,0.083-0.003,0.121
				c-0.03-0.107-0.063-0.22-0.104-0.341c-0.308-0.915,0.06-0.612,0.122-0.864c0.063-0.256-0.062-0.61-0.063-0.915
				c0-0.306-0.062-0.256-0.308-0.458c-0.126-0.103-0.22-0.023-0.322,0.076l-0.605-0.498c0-0.029,0.001-0.058,0.002-0.084
				c0-0.076-0.019-0.132-0.052-0.179c-0.004-0.049-0.007-0.082-0.007-0.082c-0.025,0.008-0.044,0.008-0.068,0.016
				c-0.081-0.044-0.199-0.058-0.345-0.058l-0.221-0.183c-0.002-0.116,0.044-0.271,0.076-0.429c0.061-0.306,0.184-0.764,0.184-0.764
				s-0.123-0.405-0.245-0.71c-0.016-0.037-0.023-0.073-0.03-0.107c0.018,0.043,0.042,0.082,0.081,0.112
				c0.308,0.255,0.308,0.255,0.308,0.255l-0.281-0.764c0.024-0.034,0.044-0.055,0.044-0.055l0.183-0.61l-0.184-0.507l-0.369-0.304
				l-0.249-0.762l0.121-0.811l-0.062-0.764l-0.184-0.255l-0.104-0.892c0,0-0.006,0.005-0.007,0.01l0.17-0.285
				c0,0,0.371-0.204,0.801-0.255c0.431-0.051,0.368-0.763,0.368-0.763l-0.411-0.533l-0.05-0.973c0,0-0.038,0.052-0.08,0.132
				c0.018-0.273,0.047-0.605,0.047-0.605l-0.248-0.762c0,0-0.248-0.357-0.371-0.967c-0.083-0.421-0.496-0.673-0.741-0.789
				l-0.176-0.302c0.008-0.139,0.023-0.33,0.054-0.533c0.061-0.408-0.185-0.966-0.185-0.966l-0.369-0.609l0.122-0.457
				c0,0,0.08-0.173,0.076-0.428c0.005-0.013,0.009-0.024,0.014-0.035c0.033-0.113,0.002-0.196-0.063-0.266
				c-0.113-0.273-0.419-0.402-0.582-0.49c-0.184-0.102-0.185-0.813-0.185-0.813l0.121-0.966l-0.132-0.477
				c-0.007-0.024-0.012-0.048-0.02-0.066l-0.033-0.117l-0.247-0.204l-0.367,0.052c0,0,0,0-0.369-0.153
				c-0.19-0.076-0.218,0.003-0.226,0.155c-0.075,0.114-0.13,0.314-0.17,0.521l0.101-0.009c-0.006,0.016-0.009,0.032-0.014,0.046
				c-0.185,0.407-0.124,0.508-0.124,0.508l-0.059-0.012c0.023-0.139,0.051-0.339,0.095-0.533l-0.767,0.051l-0.133-0.217l-0.493-0.66
				c0,0-0.307-0.153-0.677-0.202c-0.296-0.041-0.317,0.083-0.377,0.211c-0.233,0.136-0.392,0.411-0.425,0.546
				c-0.009,0.036-0.016,0.079-0.019,0.125l0.225-0.179c-0.093,0.287-0.189,0.655-0.266,0.873c-0.015,0.047-0.042,0.086-0.075,0.118
				c0.097-0.287,0.096-0.603,0.116-0.812l-1.051,0.848c-0.035-0.016-0.068-0.033-0.097-0.053c-0.309-0.201-0.863,0.308-0.922,0.103
				c-0.039-0.117-0.319-0.184-0.549-0.217l-0.378-0.262c-0.03-0.112-0.072-0.258-0.125-0.435c-0.076-0.244-0.218-0.359-0.359-0.449
				c-0.017-0.028-0.034-0.054-0.051-0.083c-0.065-0.095-0.162-0.118-0.265-0.109c-0.175-0.069-0.372,0.132-0.372,0.132l-0.012,0.014
				c-0.043,0.03-0.073,0.05-0.073,0.05l0.027,0.017l-0.312,0.428l-0.122,0.355c0,0,0,0.712,0.063,1.017
				c0.028,0.144,0.002,0.302-0.034,0.443l-0.134-1.031c-0.154,0.51,0.001,1.23,0.001,1.23l0.048,0.139
				c-0.002,0.011-0.004,0.021-0.003,0.03c-0.001,0.154,0.369,1.219,0.492,1.473c0.125,0.254,0.187,0.558,0.248,0.862
				c0.041,0.191,0.079,0.581,0.027,0.885c-0.02-0.24-0.054-0.607-0.087-0.717c-0.053-0.172-0.312-0.637-0.312-0.637l0.378,1.431
				c-0.035,0.143-0.093,0.259-0.189,0.308c-0.307,0.153-0.369,0.711-0.43,0.914c-0.042,0.139-0.226,0.137-0.396,0.169
				c0.058-0.06,0.103-0.135,0.126-0.236l-0.937,0.326c-0.043-0.009-0.088-0.016-0.132-0.023c-0.003-0.001-0.007-0.003-0.01-0.005
				c-0.238-0.078-0.322-0.066-0.385-0.02c-0.192,0.016-0.289,0.09-0.38,0.202c-0.363,0.092-0.366,0.285-0.366,0.285l0.199-0.067
				c-0.036,0.041-0.075,0.086-0.121,0.132c-0.308,0.305-1.047,0.103-1.542,0.155c-0.321,0.034-0.299,0.134-0.245,0.298
				c-0.043,0.076-0.073,0.16-0.09,0.246c-0.033,0.163-0.107,0.377-0.183,0.544c-0.079,0.063-0.158,0.134-0.217,0.233
				c-0.031,0.051-0.05,0.117-0.062,0.188c-0.052,0.073-0.104,0.16-0.153,0.266c-0.103,0.211,0.05,0.719,0.05,0.719l0.109-0.247
				c0.011,0.146,0.016,0.284-0.003,0.393c-0.063,0.353,0.74,1.318,0.74,1.724c0.001,0.141-0.023,0.351-0.05,0.567
				c-0.032,0.15-0.063,0.328-0.069,0.479c-0.035,0.218-0.065,0.377-0.065,0.377l1.173,1.015l0.009,0.044l-0.963,2.053
				c0,0,0.978-0.256,1.133-0.213c0.009,0.003,0.018,0.002,0.025-0.004c-0.007,0.123-0.02,0.204-0.02,0.204l-0.739,0.05l-0.677,0.408
				c0,0-0.43,0.558-0.737,1.017c-0.31,0.457-0.615,0.966-0.615,0.966l-0.74-0.203l-0.776-0.126l0.731-0.258
				c-0.319,0.043-0.614,0.168-0.781,0.25l-0.098-0.018l-0.433-0.151l-0.472-0.272c0.011-0.011,0.023-0.021,0.035-0.034l-1.941-1.475
				c-0.282-0.604-0.605-1.325-0.643-1.721c-0.064-0.66-0.617-1.473-0.617-1.473l-0.493-0.915c0,0-0.433-0.711-0.617-1.115
				c-0.186-0.405-0.248-0.764-0.618-0.813c-0.08-0.011-0.153,0.009-0.223,0.045c-0.177-0.07-0.31-0.037-0.31-0.037l0.155,0.162
				c-0.165,0.19-0.286,0.508-0.36,0.845c-0.122,0.561-0.121,1.118-0.121,1.118s0.001,0.31,0.001,0.67l-0.084-1.48
				c-0.264,0.257,0.003,1.451,0.085,1.779c0,0.184,0,0.362,0,0.503c0,0.509,0.37,0.762,0.554,1.322c0.1,0.298,0.005,0.438-0.105,0.5
				c-0.064-0.278-0.129-0.647-0.067-0.795l-1.533-0.234c-0.247-0.445-0.091-0.579-0.267-1.399c-0.154-0.721-0.224-0.876-0.315-1.35
				l-0.181-1.344c-0.041-0.428-0.062-0.76-0.062-0.76s-0.061-0.306-0.185-0.813c-0.002-0.013-0.005-0.02-0.007-0.032
				c0.012,0.014,0.023,0.028,0.041,0.043l-0.07-0.197c-0.03-0.253,0.106-0.101,0.159-0.273c0.044-0.151-0.011-0.188-0.094-0.281
				c0-0.008,0.003-0.013,0.004-0.019c0-0.25-0.07-0.28-0.382-0.529c-0.009-0.011-0.014-0.019-0.022-0.032
				c-0.122-0.204-0.245-0.508-0.37-0.864c-0.122-0.355-0.185-0.558-0.185-0.558l-0.679-0.763c0,0-0.015-0.036-0.039-0.095
				c-0.032-0.104-0.071-0.254-0.111-0.453c-0.041-0.207-0.168-0.395-0.312-0.561l0.145,0.362c-0.112-0.204-0.276-0.402-0.366-0.583
				c0.074,0.065,0.151,0.14,0.221,0.221l-0.351-0.861c-0.015-0.051-0.039-0.111-0.068-0.172l-0.035-0.087
				c0,0-0.003,0.006-0.004,0.006c-0.035-0.064-0.076-0.135-0.129-0.214c-0.37-0.559-0.554-0.304-0.803-0.559
				c-0.245-0.253-0.617-0.912-0.617-0.912v-0.662l0.188,0.053c-0.054,0.039-0.083,0.099-0.083,0.185
				c0,0.351,0.341,1.052,0.341,1.052l0.609-1.002l0.055,0.016c0,0,0.247-0.102,0.492-0.255c0.247-0.153,0.062-0.253-0.001-0.609
				c-0.056-0.333-0.435-0.443-0.79-0.58l0.592-0.976c0.142,0.006,0.207-0.042,0.629-0.121c0.554-0.102,0.185-0.354,0.184-0.864
				c-0.001-0.507,0.06-1.017,0.06-1.017s0.123-0.608,0.246-0.863c0.122-0.255,0.368-0.762,0.616-1.219
				c0.244-0.459,0.308-1.018,0.308-1.018s0.182-0.558,0.304-0.764c0,0,0.009-0.08,0.048-0.21l0.465-0.146l0.535,0.102l0.616,0.102
				l0.415-0.114c0.371,0.028,0.206-0.259,0.07-0.434l-0.054-0.316c0,0,0.06-0.406,0.246-0.61c0.184-0.203,0.307-0.711,0.307-0.711
				s-0.001-0.043-0.001-0.113l0.073,0.5l0.96-1.322c0.322,0.095,1.299,0.382,1.554,0.423c0.217,0.036,0.497,0.095,0.792,0.127
				c0.621,0.109,1.093-0.017,1.408-0.171c0.086-0.026,0.157-0.047,0.202-0.059c0.186-0.049,1.045-0.509,1.045-0.865
				c0-0.355-0.001-0.457,0.062-0.813c0.028-0.153,0.112-0.296,0.199-0.412l-0.096,0.467c0.071-0.194,0.09-0.396,0.378-0.767
				c0.06-0.044,0.184-0.1,0.442-0.099c0.229-0.002,0.476,0.185,0.703,0.39L243.825,85c0,0,0.161,0.191,0.522,0.314
				c0.065,0.059,0.128,0.112,0.183,0.149c0.307,0.204,0.492-0.001,0.675-0.053c0.003,0,0.005-0.002,0.007-0.003
				c0.445-0.058,0.278-0.321,0.187-0.43c-0.006-0.026-0.005-0.046-0.009-0.074c-0.061-0.303-0.124-0.965-0.124-0.965l0.123-0.456
				l0.056-0.024l0.574-0.001c0.145,0.061,0.348,0.129,0.604,0.176c0.34,0.062,0.425-0.067,0.439-0.178l1.183,0
				c0,0,0.074-0.002-0.372-0.125c0.016-0.002,0.029-0.002,0.043-0.003c0.493-0.051,0.493,0.455,0.616,0.762
				c0.081,0.197,0.135,0.501,0.198,0.776l-0.059,0.062c0,0,0.033,0.052,0.104,0.115c0.02,0.079,0.04,0.154,0.066,0.215
				c0.124,0.305,0.432,0.202,0.615,0.1c0.162-0.088,0.183-0.643,0.184-1.052c0.05-0.306,0.049-0.501,0.049-0.501l-0.028,0.032
				c0.038-0.314,0.131-0.625,0.225-0.818c0.124-0.252-0.002-0.76,0.06-0.914c0.051-0.125,0.098-0.426-0.026-0.67l0.084-0.75
				l0.002-0.002c0,0,0.798-0.155,0.984-0.206c0.183-0.049,0.493,0,0.679,0c0.105,0,0.109-0.154,0.093-0.324l1.237-0.699
				c0,0-0.007-0.003-0.021-0.007c0.187,0.037,0.151,0.076,0.291,0.115c0.187,0.051,0.555,0.049,0.863-0.001
				c0.309-0.05,0.247-0.153,0.616-0.357c0.368-0.204,0.799-0.711,1.047-0.764c0.246-0.051,0.49,0,0.553-0.306
				c0.063-0.303-0.308-0.607-0.368-0.809c-0.055-0.18-0.063-0.359-0.105-0.707l1.159-0.479c0.257,0.162,0.483,0.319,0.483,0.319
				s-0.013-0.06-0.031-0.157c0.062,0.041,0.1,0.063,0.1,0.063l-0.084-0.42l-0.085,0.035c-0.043-0.196-0.094-0.425-0.148-0.64
				c-0.121-0.508-0.121-1.475-0.063-2.286c0.06-0.814,0.308-0.916,0.369-1.17c0.043-0.186,0.288-0.481,0.512-0.766l-0.249,0.62
				c0,0,0.168-0.371,0.367-0.774c0.037-0.051,0.075-0.1,0.108-0.148c0.139-0.199,0.199-0.42,0.237-0.653
				c0.05-0.197,0.049-0.318,0.049-0.318l-0.013,0.035c0.01-0.092,0.02-0.187,0.034-0.283c0.061-0.457-0.308-0.558-0.433-0.865
				c-0.122-0.304-0.247-0.659-0.307-0.862c-0.011-0.034-0.015-0.066-0.017-0.097c0.1,0.126,0.225,0.218,0.225,0.39l-0.086-1.892
				c0,0-0.262,0.038-0.378,0.213c0.01-0.056,0.03-0.116,0.067-0.189c0.186-0.354,0.739-0.357,0.739-0.357s1.11,0.102,1.786,0.455
				c0.678,0.357,0.493,0.509,1.295,0.966c0.802,0.456,0.863-0.205,1.355-0.205c0.492,0,0.985,0.102,1.171-0.304
				c0.079-0.18,0.04-0.317-0.044-0.437c0.011-0.087,0.022-0.183,0.043-0.288c0.072-0.364-0.297-0.415-0.672-0.556
				c-0.065-0.195-0.1-0.394-0.069-0.497c0.061-0.204,0.061-0.458,0.061-0.661c0-0.127-0.266-0.195-0.572-0.264l-0.896-1.318
				c0.021-0.11-0.007-0.135-0.126-0.215c-0.057-0.079-0.111-0.134-0.111-0.134l0.073,0.107c-0.068-0.044-0.158-0.108-0.279-0.208
				c-0.435-0.355-0.802-0.1-0.802-0.1s-0.309-0.303-0.434-0.456c-0.122-0.151-0.245-0.253-0.615-0.457
				c-0.37-0.203-1.17-0.05-1.17-0.05l-0.493-0.202l-0.984-0.404c0,0-0.185-0.203-0.185-0.355c0-0.152-0.496-0.305-0.679-0.458
				c-0.163-0.134-0.278-0.029-0.473,0.064c-0.094,0.012-0.186,0.026-0.269,0.046l0.052,0.026c-0.052,0.008-0.104,0.008-0.155,0
				c0.032-0.007,0.066-0.017,0.103-0.026l-0.44-0.231c-0.108-0.202-0.917-0.49-1.036-0.638c-0.125-0.154-1.172-0.101-1.664-0.05
				c-0.493,0.051-0.247-0.103-0.37-0.305c-0.124-0.202-0.183-0.202-0.554-0.2c-0.37,0-0.37,0.151-0.678,0.404
				c-0.014,0.014-0.037,0.027-0.057,0.039c-0.038,0.013-0.075,0.023-0.114,0.031c-0.185,0.039-0.394,0.097-0.549,0.144
				c-0.481,0.065-1.053,0.072-1.314,0.042c-0.431-0.051-2.834,0.003-3.389-0.047c-0.224-0.021-0.404,0.019-0.559,0.081
				c-0.199,0.001-0.41,0.117-0.587,0.251l0.426-0.175c-0.151,0.084-0.276,0.181-0.387,0.249c-0.14,0.087-0.28,0.189-0.422,0.283
				c0.047-0.054,0.195-0.213,0.383-0.357l-1.251,0.518l0.829-0.137c-0.093,0.059-0.184,0.113-0.278,0.153
				c-0.247,0.101-0.432,0-0.74,0.001c-0.309,0-0.679-0.203-0.985-0.405c-0.31-0.204,0,0-0.123-0.204
				c-0.125-0.203-0.001-0.254-0.062-0.457c-0.054-0.178-0.204-0.121-0.489,0.067c-0.125,0.032-0.28,0.087-0.451,0.145
				c-0.422,0.141-0.848,0.42-0.848,0.42l0.346,0.036c-0.225,0.016-0.825,0.056-1.024,0.097c-0.246,0.052-0.676,0-0.985-0.051
				c-0.293-0.048-0.254-0.097-0.519-0.233c-0.01-0.019-0.023-0.034-0.028-0.055c-0.07-0.228-0.362-0.135-0.651-0.09
				c-0.185-0.02-0.378-0.035-0.545-0.052l-0.505-0.137c0,0,0.156,0.062,0.353,0.12c-0.123-0.016-0.219-0.035-0.259-0.058
				c-0.185-0.101-1.172-0.202-1.42-0.253c-0.244-0.051-0.614,0.051-0.8,0.051c-0.109,0-0.214-0.021-0.296-0.065
				c0.169,0.062,0.378,0.075,0.637-0.004l-1.135-0.407c0.006,0.009,0.014,0.019,0.02,0.028c-0.063-0.031-0.128-0.061-0.188-0.09
				l0.168,0.061c-0.02-0.029-0.038-0.058-0.055-0.084c-0.17-0.281-0.764-0.208-0.764-0.208l0.368,0.132
				c-0.32-0.027-1.001,0.09-1.157,0.132c-0.184,0.051-1.232,0.104-1.54,0.104c-0.308,0.001-0.984-0.101-1.293-0.153
				c-0.309-0.049-0.555,0.052-1.232,0.104c-0.089,0.005-0.172,0.02-0.247,0.037l0.002-0.002c-0.376,0.045-1.53,0.493-1.53,0.493
				l-0.058,0.264c-0.036,0.034-0.063,0.075-0.075,0.124c0,0-0.002-0.966-0.985-0.151c-0.195,0.161-1.11,0.357-1.602,0.358
				c-0.195,0-0.418-0.095-0.631-0.223c0.123,0.03,0.248,0.051,0.379,0.052c0.593,0,0.934-0.07,0.934-0.07l-1.753-0.287
				c-0.144-0.113-0.267-0.22-0.346-0.285c-0.247-0.202-0.678-0.101-0.678-0.101s-0.679,0.306-0.923,0.509
				c-0.243,0.2-0.426,0.105-0.961,0.006c0.197,0.021,0.435-0.011,1.091-0.19l-1.812-0.177c-0.035-0.045-0.066-0.092-0.104-0.145
				c-0.186-0.253-0.678-0.049-0.863,0.052c-0.184,0.102-1.415,0.257-1.415,0.257s-0.372-0.052-1.726,0.052
				c-0.848,0.064-1.165,0.148-1.359,0.227l-1.985-0.327c0,0,0.169,0.352,0.765,0.422c0.367,0.041,0.797,0.004,1.073-0.03
				c-0.049,0.023-0.098,0.044-0.158,0.065c-0.308,0.103-0.431,0.051-0.678,0.153c-0.246,0.102-1.847-0.608-1.847-0.608l-1.418-0.558
				c0,0-0.925-0.353-1.541-0.455c-0.616-0.1-1.478-0.05-1.909-0.201c-0.432-0.151-1.172-0.558-1.911-0.862
				c-0.406-0.167-0.831-0.334-1.149-0.476c0.068,0.005,0.134,0.007,0.202,0.002l-0.656-0.235c-0.026-0.018-0.048-0.037-0.06-0.052
				c-0.124-0.152-1.049-0.405-1.049-0.405s-0.924-0.203-1.294-0.303c-0.038-0.012-0.069-0.018-0.096-0.023l-1.597-0.858
				c0,0,0,0.089,0.004,0.218c-0.021-0.174-0.041-0.354-0.067-0.529c-0.093-0.61-0.093-0.533-0.093-0.761
				c0-0.12-0.069-0.324-0.131-0.497l0.109-0.428c0.15-0.193,0.266-0.525,0.266-0.525c0.184-0.358,0.367-1.321,0.182-2.236
				c-0.029-0.14-0.045-0.253-0.053-0.35c0.022-0.086,0.033-0.168,0.03-0.233l-0.034,0.125c-0.002-0.089,0.005-0.16,0.021-0.217
				c0.004,0.015,0.004,0.025,0.005,0.039c0.005,0.014,0.005,0.035,0.007,0.053l0.062-0.237c0.067-0.078,0.153-0.11,0.204-0.196
				c0.081-0.132,0.055-0.288-0.004-0.545l0.039-0.145c0,0-0.021,0.044-0.05,0.107c-0.03-0.133-0.069-0.289-0.108-0.484
				c-0.123-0.61-0.063-1.068-0.125-1.271c-0.019-0.058-0.047-0.124-0.079-0.194c-0.006-0.013-0.007-0.026-0.01-0.039
				c-0.025-0.058-0.055-0.114-0.093-0.169c-0.051-0.1-0.101-0.192-0.127-0.258c-0.053-0.132-0.205-0.307-0.408-0.518l-0.236-0.66
				c0.009-0.137,0.027-0.262,0.027-0.345c0-0.202-0.064-2.236-0.065-2.388c0-0.151,0.062-0.457,0.183-0.915
				c0.125-0.457,0.433-0.507,0.617-0.863c0.185-0.356,0.369-0.305,0.369-0.305s-0.002-0.153-0.03-0.294l0.001-0.002
				c0.052-0.129,0.002-0.192-0.094-0.225l-0.018,0.045c-0.114-0.039-0.292,0.019-0.292,0.019l-0.137-0.094
				c0.161-0.001,0.334-0.007,0.447,0.03l0.32-0.791c0.018-0.015,0.037-0.035,0.047-0.061c0.062-0.151-0.246-0.303-0.308-0.608
				c-0.035-0.178-0.388-0.27-0.674-0.314l-0.373-0.28v-0.118l0-0.306l-0.213-0.174c-0.02-0.026-0.043-0.049-0.064-0.074
				c-0.19-0.193-0.269-0.004-0.405,0.165l0.087,0.065c-0.218,0.17-0.328,0.173-0.328,0.173s-0.125-0.154-0.186-0.305
				c-0.03-0.074-0.016-0.16-0.002-0.252l0.134,0.099c0.006-0.033,0.014-0.067,0.023-0.097c0.022-0.098-0.045-0.159-0.139-0.195
				c-0.002-0.039-0.004-0.077-0.017-0.115c-0.062-0.202,0.246-0.61,0.308-0.813c0.062-0.204-0.063-0.254-0.123-0.508
				c-0.037-0.144-0.192-0.222-0.398-0.292c-0.009-0.002-0.019-0.008-0.028-0.008c-0.087-0.028-0.181-0.055-0.28-0.086l-0.602-0.619
				c-0.039-0.122-0.083-0.266-0.112-0.365c-0.061-0.202-0.185-0.406-0.37-0.608c-0.185-0.204-0.555-0.051-0.555-0.051
				s-0.024-0.012-0.058-0.043l0.025-0.009l-0.041-0.007c-0.06-0.056-0.136-0.15-0.171-0.296l-0.001-0.002
				c0.024-0.173,0.058-0.394,0.091-0.558c0.058-0.305-0.373-0.355-0.373-0.355s-0.677,0.305-0.924,0.459
				c-0.249,0.153-0.125,0.306-0.125,0.306l0.111,0.163c0.012,0.048,0.03,0.094,0.051,0.141c0.062,0.152,0.123,0.152,0.244,0.405
				c0.022,0.042,0.027,0.073,0.028,0.099l-0.44,0.141c-0.096,0.009-0.224,0.016-0.387,0.017c-0.432,0-0.309,0.202-0.491,0.407
				c-0.185,0.202,0,0.303,0.308,0.608c0.308,0.306,0.185,0.507,0.185,0.507l-0.132,0.022l-0.04-0.066
				c-0.03,0.023-0.067,0.056-0.102,0.091l-0.034,0.006c0,0,0.001,0.01,0.005,0.023c-0.057,0.061-0.102,0.125-0.102,0.185
				c0.001,0.079,0.2,0.143,0.391,0.189c0.006,0.003,0.01,0.006,0.014,0.009c0.133,0.087,0.184,0.128,0.217,0.157l0.179,0.305
				l-0.025-0.154c0.182,0.151,0,0.507-0.308,0.76c-0.202,0.166-0.591,0.313-0.868,0.481c0.117-0.097,0.216-0.171,0.216-0.171
				l-1.526,0.489c-0.401-0.272-0.29,0.117-0.653,0.168c-0.336,0.047-0.776,0.05-1.364-0.103l0.52,0.06c0,0-0.922-0.254-1.233-0.457
				c-0.308-0.204,0.249-0.051-0.245-0.204c-0.373-0.113-0.604,0.178-0.696,0.328c-0.156,0.102-0.306,0.216-0.431,0.279
				c-0.309,0.151-0.677-0.103-0.924-0.355c-0.093-0.094-0.194-0.208-0.296-0.333c0.055,0.042,0.116,0.069,0.187,0.083l-0.573-0.65
				c-0.04-0.072-0.082-0.141-0.12-0.218c-0.139-0.283-0.277-0.374-0.415-0.447c-0.109-0.1-0.19-0.158-0.19-0.158l0.095,0.11
				c-0.076-0.04-0.154-0.084-0.232-0.165c-0.246-0.253-0.862-0.504-1.17-0.656c-0.296-0.147-0.59-0.248-0.829-0.435l1.086,0.536
				c0,0-0.679-0.456-1.111-0.556c-0.005-0.003-0.009-0.005-0.012-0.005c-0.246-0.201-0.491-0.353-0.614-0.505
				c-0.123-0.153,0-0.204,0-0.459c0-0.116-0.089-0.304-0.193-0.519c-0.067-0.463-0.22-0.811-0.374-1.051
				c-0.118-0.26-0.337-0.384-0.482-0.664c-0.185-0.357-0.063-0.458,0.122-0.966c0.184-0.508-0.001-0.357,0-0.61
				c0-0.243-0.115-0.208-0.29-0.248l-0.108-0.09c-0.025-0.102,0.06-0.299,0.15-0.628c0.124-0.456,0.061-0.254,0.061-0.456
				c0-0.089-0.062-0.197-0.128-0.292c-0.053-0.279-0.359-0.326-0.359-0.326l0.01,0.093c-0.122-0.006-0.312-0.008-0.573,0.02
				c-0.491,0.051-1.107-0.203-1.417-0.406c-0.307-0.202-0.431-0.405-0.616-0.558c-0.07-0.058-0.174-0.085-0.275-0.099l-0.4-0.164
				l0.24,0.155c-0.103-0.001-0.179,0.007-0.179,0.007s-0.063,0.458-0.247,0.608c-0.111,0.093-0.333,0.131-0.506,0.189l-0.047-0.144
				c0,0-0.055,0.089-0.073,0.196c-0.056,0.029-0.095,0.067-0.112,0.118c-0.044,0.141-0.115,0.285-0.135,0.479
				c-0.015,0.008-0.032,0.016-0.049,0.019c-0.185,0.054-0.124,0.459-0.124,0.459l0.264,0.024c0.078,0.107,0.168,0.084,0.168,0.084
				s0.281,0.107,0.6,0.257l0.078,0.247l0.025-0.197c0.189,0.094,0.379,0.199,0.531,0.303c0.307,0.218,0.362,0.535,0.37,0.7
				l-0.06-0.046c0,0,0,0.255,0.124,0.407c0.082,0.098,0.366,0.111,0.556,0.107l-0.195-0.147c0.095,0.016,0.217,0.072,0.344,0.144
				c-0.031,0.001-0.086,0.004-0.149,0.003l0.35,0.266l-0.146-0.237c0.097,0.056,0.195,0.116,0.284,0.171
				c0.155,0.095,0.117,0.171,0.066,0.213l-0.007,0l0.004,0.004c-0.031,0.024-0.061,0.038-0.061,0.038s0.431,0.151,0.493,0.355
				c0.063,0.202-0.307,0.305-0.431,0.507c-0.123,0.204-0.615,0.254-1.047,0.154c-0.37-0.087-0.56-0.137-0.76-0.214
				c0.026,0.004,0.052,0.009,0.083,0.009c0.12,0,0.17-0.036,0.234-0.067l-0.541-0.032c-0.178-0.071-0.315-0.137-0.619-0.303
				c-0.37-0.204-0.556-0.305-0.556-0.305s-0.005,0-0.187-0.029l0.125-0.125c0,0-0.512-0.067-0.898,0.025
				c-0.049,0.003-0.082,0.014-0.103,0.031c-0.039,0.012-0.076,0.027-0.109,0.047c-0.372,0.204-0.125,0.509-0.061,0.916
				c0.009,0.061,0.007,0.111,0.005,0.155l0.069-0.071c0.004,0.067,0.003,0.127-0.009,0.171c-0.015,0.049-0.074,0.076-0.154,0.088
				c0.043-0.036,0.08-0.094,0.095-0.188l-0.193,0.196c-0.263-0.003-0.63-0.112-0.672-0.247c-0.062-0.204-0.123-0.813-0.123-1.016
				c0-0.204-0.187-0.255-0.247-0.405c-0.059-0.147-0.283-0.422-0.358-0.233c-0.031,0.025-0.105,0.076-0.266,0.191l0.093,0.06
				c-0.146,0.116-0.331,0.185-0.331,0.185l-0.37-0.153l-0.248-0.303c0,0-0.123-0.508-0.183-0.711
				c-0.063-0.204-0.311-0.458-0.311-0.458s-0.135-0.076-0.41-0.322c0.249,0.141,0.484,0.252,0.484,0.252l-0.898-1.2
				c0.006,0.02,0.014,0.038,0.018,0.06c0.025,0.127,0.001,0.237-0.019,0.337c-0.107-0.251-0.158-0.507-0.195-0.659l0.197,0.262
				c-0.046-0.142-0.148-0.277-0.241-0.382c-0.002-0.002-0.005-0.006-0.007-0.009c-0.093-0.103-0.174-0.172-0.174-0.172l0.06,0.083
				c-0.216-0.136-0.602-0.28-0.602-0.28l-0.554-0.052c0,0-0.104-0.172-0.177-0.349c0.024,0.015,0.05,0.026,0.079,0.031l-0.085-0.045
				c-0.035-0.09-0.063-0.179-0.064-0.245c0-0.205,0-0.458-0.061-0.711c-0.025-0.101-0.109-0.104-0.217-0.056
				c-0.057-0.125-0.142-0.094-0.329,0.021c-0.195,0.123-0.315,0.275-0.508,0.386l0.154,0.08c-0.175,0.125-0.283,0.111-0.539-0.02
				c0.063,0.031,0.133,0.045,0.205,0.022c0.067-0.023,0.127-0.05,0.18-0.082l-0.747-0.384c0,0,0.138,0.308,0.335,0.427
				c-0.074-0.038-0.157-0.081-0.26-0.139c-0.556-0.303-0.616-0.812-0.864-1.268c-0.049-0.093-0.109-0.174-0.169-0.255l0.079,0.045
				c0,0-0.378-0.673-0.567-0.776c-0.099-0.056-0.338-0.066-0.543-0.065c-0.122-0.109-0.232-0.231-0.341-0.32
				c-0.184-0.153-0.307-0.253-0.494-0.508c-0.184-0.252-0.06-0.964-0.061-1.269c0-0.093-0.056-0.135-0.135-0.147
				c-0.055-0.118-0.378,0.029-0.54,0.23c-0.023,0.021-0.049,0.044-0.065,0.07c-0.112,0.156-0.158,0.29-0.245,0.456
				c-0.079,0.07-0.151,0.106-0.151,0.106l0.077,0.019c-0.043,0.071-0.099,0.146-0.173,0.232c-0.308,0.356-0.614,1.17-0.614,1.17
				s0.047,0.115-0.196,0.353c0.171-0.225,0.092-0.531,0.092-0.531l-0.362,0.75c-0.268,0.17-0.371,0.096-0.425,0.366
				c-0.065,0.314-0.382,0.579-0.127,0.789c0.255,0.211,0.382,0.315,0.573,0.523c0.19,0.208,0.13,0.517,0.376,0.219
				c-0.024,0.083-0.031,0.148-0.031,0.148l1.443-0.383c-0.112-0.001-0.227-0.013-0.314-0.03c-0.253-0.053-0.315-0.052-0.691-0.103
				c-0.133-0.019-0.23,0.044-0.293,0.129c0.062-0.267-0.02-0.521,0.276-0.4c0.38,0.158,0.063,0,0.38,0.158
				c0.318,0.158,0.639,0.157,0.829,0.104c0.19-0.053,0.192-0.262,0.445-0.053c0.256,0.208,0.511,0.208,0.765,0.367
				c0.075,0.044,0.141,0.068,0.202,0.084l0.233,0.464c0.025-0.083,0.05-0.167,0.07-0.248c0.001,0.006,0.003,0.009,0.005,0.014
				c0.025,0.098,0.012,0.234-0.001,0.374l-0.074-0.14c-0.047,0.172-0.088,0.339-0.045,0.437c0.059,0.146-0.105,0.611,0.461,0.571
				c0.079,0.063,0.139,0.127,0.171,0.228c0.06,0.198-0.049,0.664-0.062,0.725c-0.047,0-0.118,0.023-0.215,0.079
				c-0.045,0.015-0.098,0.035-0.148,0.055l-0.719,0.122c-0.283-0.04-0.648-0.069-0.829,0.02c-0.094,0.048-0.199,0.102-0.3,0.158
				c-0.052,0.016-0.081,0.03-0.081,0.03l0.042-0.008c-0.225,0.126-0.424,0.242-0.424,0.242s-0.547,0.352-0.93,0.514l0.078-0.137
				c0,0-0.204,0.118-0.409,0.323c-0.275,0.201-0.505,0.487-0.459,0.719c0.065,0.317-0.125,1.052-0.125,1.052s0.065,0.945-0.445,0.84
				c-0.23-0.046-0.484-0.094-0.697-0.132c0.183,0.005,0.489,0.015,0.656,0.049c0.247,0.051,0.308-0.307,0.308-0.307l-1.114,0.232
				c-0.176-0.029-0.299-0.052-0.299-0.052l-0.892,0.264l-1.017,0.842c0,0,0,0.472-0.382,0.631c-0.382,0.157-0.574,0.107-0.573,0.42
				c-0.001,0.055-0.005,0.103-0.01,0.15c-0.173,0.228-0.222,0.513,0.034,0.723l0.086-0.134c0.164,0.191,0.279,0.382,0.337,0.575
				c0.064,0.209,0.065,0.945-0.508,1.103c-0.019,0.007-0.036,0.01-0.055,0.013c0.266-0.22,0.451-0.437,0.451-0.437l-0.672,0.482
				c-0.32,0.049-0.459,0.031-0.68,0.489l-0.067,0.048c0,0,0.001-0.001,0.058-0.031c-0.016,0.039-0.035,0.077-0.054,0.12
				c-0.317,0.737-0.636,0.211-0.7,0.789c-0.062,0.577,0.383,1.103,0.322,2.153c-0.064,1.052-0.127,1.418,0.065,1.997
				c0.192,0.577,0.129,0.892,0.574,0.733c0.023-0.009,0.048-0.016,0.073-0.026c0.112,0.01,0.229-0.016,0.347-0.09
				c0.079-0.048,0.174-0.091,0.269-0.127c0.198-0.063,0.365-0.1,0.457-0.075c0.19,0.053,0.699,0.315,0.954,0.158
				c0.193-0.118,0.529-0.267,0.684-0.334l0.967,0.984l-0.447-1.012c0.095,0.016,0.175,0.045,0.197,0.097
				c0.063,0.157,0.383,1.154,0.829,1.417c0.396,0.233,0.591,0.342,0.854,0.583l-0.262-0.172c0,0,0.132,0.109,0.356,0.263
				c0.003,0.005,0.005,0.007,0.008,0.009c0.166,0.163,0.195,0.342,0.239,0.477c-0.017,0.218-0.046,0.401,0.324,0.216
				c0.019-0.008,0.03-0.016,0.049-0.023c0.084-0.017,0.136-0.051,0.177-0.088c0.031-0.015,0.058-0.028,0.085-0.04l-0.02-0.01
				c0.041-0.032,0.09-0.051,0.16-0.049c-0.039,0.014-0.086,0.034-0.14,0.06l0.615,0.406c0,0-0.061-0.153-0.185-0.356
				c-0.009-0.017-0.019-0.027-0.025-0.042c0.388,0.164,0.505,0.445,0.505,0.445s0.19-0.213,0.445,0.208
				c0.255,0.419,0.573,0.052,0.382,0.683c-0.023,0.084-0.045,0.167-0.061,0.246l-0.259-0.371c0,0-0.185,1.322,0.062,1.322
				c0.103,0,0.279-0.069,0.466-0.127c0.131-0.002,0.271,0.016,0.357,0.08l0.35,0.504c0,0,0.023-0.031,0.035-0.093
				c0.001,0.005,0.003,0.009,0.008,0.013c0.192,0.263,0.383,0.369,0.511,0.631c0.129,0.262,0,0,0.317,0.367
				c0.162,0.184,0.194,0.29,0.208,0.376l-0.037-0.014c0.002,0.026,0.008,0.056,0.007,0.092c0.001,0.233,0.208,0.504,0.386,0.392
				c0.083,0.045,0.166,0.049,0.267-0.007c0.081-0.046,0.18-0.111,0.278-0.162l0.859,0.285c0,0-0.417-0.153-0.77-0.326
				c0.097-0.038,0.189-0.05,0.27-0.007c0.189,0.104,0.062-0.054,0.445,0.263c0.383,0.315,0.956,0.629,1.149,0.681
				c0.024,0.007,0.056,0.021,0.091,0.039l-0.195,0.06c0,0,0.386,0.127,0.671,0.18c0.15,0.049,0.309,0.059,0.454-0.03
				c0.166-0.06,0.313-0.171,0.355-0.304c0.007-0.022,0.012-0.045,0.017-0.069c0.175-0.214,0.303-0.369,0.516-0.195
				c0.319,0.263,0.446,0.579,0.639,0.421c0.19-0.159,0.316-0.21,0.442-0.37c0.129-0.156,0.384-0.471,0.384-0.471
				s0.891,0.367,0.892,0.63c0,0.263,0.129,0.525,0.191,0.733c0.06,0.193,0.493,0.696,0.169,0.9l-0.042-0.107
				c0,0-0.034,0.07-0.083,0.161c-0.487,0.153-0.552,0.206-0.552,0.413c0,0.026-0.003,0.052-0.009,0.076
				c-0.11,0.063-0.19,0.131-0.156,0.215c0.051,0.126,0.27,0.217,0.451,0.214c0.16,0.06,0.29,0.127,0.29,0.127
				s0.057,0.046,0.12,0.131c-0.019,0.069-0.081,0.366,0.19,0.545c0.142,0.094,0.269,0.142,0.367,0.169
				c0.206,0.145,0.407,0.256,0.407,0.256s0.127,0.367,0.382,0.261s0.573-0.001,0.573-0.001l0.702,0.421c0,0,0.004,0.031,0.064,0.095
				l-0.215-0.028c0.155,0.112,0.285,0.173,0.419,0.181c0.034,0.019,0.072,0.042,0.114,0.065c0.294,0.164,0.662,0.321,0.818,0.389
				l-0.764,0.855c-0.068,0.021-0.116,0.064-0.163,0.146c-0.054,0.045-0.091,0.095-0.107,0.156l0.07-0.078
				c-0.126,0.288-0.299,0.91-0.361,1.158c-0.026,0.116-0.067,0.262-0.104,0.389l-1.116-0.307c-0.079-0.062-0.185-0.111-0.369-0.132
				c-0.447-0.052-0.384-0.316-0.83-0.157c-0.308,0.109-0.404,0.391-0.558,0.591l-1.586-0.26c-0.272-0.14-0.556-0.291-0.976-0.329
				c-0.573-0.052-0.765-0.157-1.465-0.104c-0.701,0.053-0.892-0.104-1.338,0.265c-0.344,0.283-0.498,0.439-0.811,0.378
				c0.049-0.007,0.086-0.015,0.086-0.015l-0.442-0.113c-0.007-0.002-0.012-0.006-0.016-0.008c-0.051-0.097-0.117-0.146-0.307-0.185
				c-0.23-0.181-0.284-0.333-0.612-0.371c-0.028-0.005-0.055-0.009-0.082-0.012c-0.046-0.117,0.036-0.18-0.335-0.092
				c-0.016,0.004-0.032,0.007-0.046,0.01c-0.161-0.036-0.283-0.047-0.427,0.042c-0.052,0.032-0.1,0.061-0.145,0.088
				c-0.037,0.008-0.058,0.011-0.058,0.011l0.028,0.009c-0.157,0.086-0.288,0.113-0.526-0.002c-0.063-0.03-0.121-0.053-0.177-0.068
				l-0.001-0.038c0,0-0.059-0.005-0.129,0.007c-0.159-0.026-0.266-0.004-0.266-0.004s-0.189,0.105,0.065,0.63
				c0.254,0.525,0.319,1.05,0.32,1.522c0,0.473-0.127,0.368-0.125,1.051c-0.002,0.062-0.005,0.117-0.01,0.172l-0.407,1.196
				c-0.07,0.146-0.145,0.3-0.219,0.471c-0.298,0.689-0.205,0.641-0.297,0.934l-0.706,0.282c0.036,0.013,0.069,0.028,0.101,0.044
				c-0.042-0.015-0.083-0.025-0.125-0.036l0.025-0.009c-0.065-0.026-0.142-0.046-0.253-0.06c-0.237-0.032-0.351-0.048-0.417,0.055
				c-0.125,0.04-0.227,0.108-0.302,0.21c-0.189,0.263-0.317,0.263-0.317,0.473c0,0.046-0.002,0.116-0.007,0.192
				c-0.012,0.009-0.023,0.015-0.035,0.025l0.035-0.019c-0.006,0.162-0.007,0.365,0.027,0.525c-0.03-0.027-0.06-0.055-0.093-0.089
				c-0.186-0.183-0.08-0.329,0.031-0.417l-1.384,0.825c-0.014,0.038-0.019,0.071-0.017,0.102c-0.158-0.232-0.194-0.41-0.342-0.776
				c-0.076-0.192-0.168-0.374-0.272-0.529c-0.033-0.059-0.083-0.129-0.152-0.192c-0.118-0.119-0.25-0.203-0.404-0.223
				c-0.383-0.051-0.702-0.262-1.146-0.05c-0.443,0.21-1.082,0.105-1.083,0.472c0.001,0.351-0.229,0.035,0.025,0.504
				c-0.045,0.192-0.04,0.412,0.185,0.491c0.056,0.02,0.11,0.039,0.161,0.053l-0.046-0.18c0.299,0.201,0.632,0.125,0.633,0.444
				c0,0.113-0.049,0.243-0.119,0.372c0.019-0.059,0.039-0.12,0.051-0.181c0.052-0.266-0.176-0.338-0.519-0.454l0.246,0.966
				c-0.184,0.23-0.391,0.431-0.487,0.508c-0.171,0.141-0.138,0.489-0.266,0.676c-0.06,0.034-0.148,0.076-0.257,0.114
				c-0.244,0.008-0.578-0.063-0.664,0.116c-0.171,0.031-0.227,0.076-0.146,0.21c0.023,0.037,0.057,0.076,0.092,0.116
				c-0.005,0.111-0.012,0.22-0.03,0.321l-0.699,0.595c0.097-0.06,0.252-0.141,0.495-0.237c-0.139,0.103-0.233,0.053-0.559,0.453
				c-0.38,0.474-0.889,1.209-0.953,1.42c-0.013,0.046-0.062,0.122-0.125,0.215c-0.186,0.1-0.372,0.266-0.371,0.522
				c0,0.098,0.002,0.182,0.009,0.259c-0.009,0.101,0.006,0.197,0.054,0.283c0.044,0.114,0.117,0.188,0.231,0.24
				c0.499,0.436,1.139,1.156,1.67,1.788c0.042,0.051,0.087,0.102,0.13,0.153l-0.182-0.183c0.028,0.09,0.289,0.364,0.571,0.638
				c0.47,0.54,0.938,1.064,1.077,1.177c0.192,0.158,0.7,0.315,1.019,0.63c0.318,0.316,0.956,0.735,1.147,0.945
				c0.193,0.21,0.32,0.682,0.576,1.155c0.256,0.473,0.32,0.684,0.828,0.734c0.51,0.054,0.637-0.052,1.466,0.209
				c0.706,0.224,0.764,0.104,1.081,0.03c0.135,0.084,0.359,0.176,0.558,0.011c0.031-0.027,0.071-0.054,0.114-0.083l-0.243-0.005
				c0.34-0.095,0.517-0.278,0.781-0.323c0.317-0.053,0.636-0.211,0.957,0.105c0.317,0.313,0.574,0.682,0.764,0.996
				c0.19,0.316,0.446,0.788,0.956,0.683c0.509-0.107,1.465-0.159,1.465-0.159l0.956,0.314c0,0,0.244-0.014,0.523-0.008l1.022,0.88
				c0.035,0.288,0.046,0.615,0.046,0.911c0.001,0.683-0.06,0.949,0.002,1.209c0.065,0.262,0.32,0.523,0.32,0.523
				s-0.329,0.182-0.144,0.333c0,0-0.123,0.254-0.369,0.155c-0.247-0.102-0.697,0.04-0.697,0.04c-0.063,0.21-0.445,0.473-0.316,0.736
				c0.127,0.263,0.063,0.262,0.384,0.473c0.317,0.209,0.572,0.051,0.637,0.63c0.064,0.577,0.19,0.261,0.19,1.05
				c0.001,0.788-0.06,2.101-0.316,2.364c-0.255,0.261-0.953,0.577-0.953,0.577s-0.127,0.473-0.637,0.473
				c-0.511,0.001-0.765-0.208-1.275-0.104c-0.508,0.106-0.127-0.209-0.508,0.106c-0.217,0.178-0.266,0.457-0.273,0.733
				c-0.03,0.053-0.047,0.087-0.047,0.087l0.047-0.01c0,0.184,0.02,0.363,0.02,0.504c0.001,0.366-0.126,0.682-0.381,0.944
				c-0.255,0.265-0.255,0.527-0.128,0.737c0.129,0.209-0.254,0.683-0.381,1.207c-0.127,0.528-0.062,1.104,0.001,1.526
				c0.065,0.418,0.257,0.787,0.385,1.05c0.128,0.262,0.063,0.368,0.128,0.525c0.062,0.158-0.193,0.211,0.063,0.368
				c0.255,0.158,0.701,0.052,0.701,0.052l0.51-0.053c0,0,0.445,0.156,0.571,0.313c0.13,0.16,0.321,0.422,0.321,0.422l0.318,0.473
				c0,0,0.148,0.262,0.36,0.481c-0.002,0.201-0.12,0.351,0.187,0.35c0.116,0.001,0.232-0.014,0.339-0.022
				c0.132,0.054,0.283,0.117,0.426,0.176c0.088,0.19,0.066,0.401,0.405,0.355c0.114-0.017,0.237-0.041,0.356-0.069
				c0.361,0.101,1.058,0.274,1.243,0.199c0.254-0.107-0.063,0.523-0.382,0.683c-0.318,0.157-0.573,0.945-0.892,1.207
				c-0.317,0.264-0.635,0.368-0.763,0.577c-0.127,0.213-0.189,0.634-0.189,0.634l-0.51,0.473c0,0-0.127,0.733-0.063,1.102
				c0.064,0.369,0.639,1.418,1.021,1.733c0.383,0.315,0.637,0.262,0.764,0.419c0.129,0.157,0.383,0.525,0.638,0.473
				c0.255-0.053,0.255,0,0.508-0.37c0.254-0.366,0.635-0.472,0.635-0.472s0.448,0.314,0.639,0.313c0.141,0,0.526-0.028,0.716-0.044
				l0.949,0.489c-0.016-0.025-0.032-0.052-0.046-0.085c-0.067-0.168-0.135-0.317-0.222-0.412h0.114
				c-0.019,0.007-0.011,0.06,0.208,0.314c0.319,0.368,0.319,0.368,0.319,0.368s0.319,0.106,0.002,0.473
				c-0.319,0.368-0.637,0.893-0.637,0.893s-0.255,0.211-0.827,0.422c-0.573,0.211-0.702,0.158-0.702,0.474
				c0.001,0.314-0.127,0.314,0.065,0.838c0.192,0.526-0.126,0.788-0.125,1.105c0,0.315-0.32,0.524-0.255,0.893
				c0.063,0.368,0.001,0.683,0.383,1.261c0.383,0.575,0.509,0.575,0.893,0.839c0.381,0.263,0.637,0.578,0.827,0.839
				c0.02,0.028,0.044,0.061,0.074,0.101c-0.015-0.011-0.032-0.019-0.048-0.026l0.266,0.327c0.261,0.376,0.562,0.887,0.477,1.175
				c-0.128,0.42-0.256,0.42-0.701,0.736c-0.447,0.315-0.764,0.105-0.764,0.421c0.001,0.316-0.193,0.262,0.064,0.734
				c0.255,0.472,0.447,0.471,0.51,0.892c0.064,0.423,0.064,0.737-0.062,1.157c-0.127,0.421-0.127,1.207-0.063,1.524
				c0.064,0.314,0.32,1.678,0.702,2.414c0.383,0.735,0.575,0.42,0.449,1.838c-0.125,1.418,0.002,1.996,0.32,3.259
				c0.32,1.259,0.895,1.572,1.084,2.309c0.195,0.736-0.062,0.629,0.131,1.156c0.192,0.526,0.701,0.419,0.574,0.893
				c-0.126,0.473-0.507,1.365-0.507,1.365s0.636,0.21,0.827,0.841c0.192,0.628-0.062,1.104,0.002,1.629
				c0.01,0.075,0.017,0.164,0.022,0.258c-0.028-0.226-0.083-0.592-0.167-0.729c-0.03-0.05-0.058-0.115-0.081-0.183l0.253,1.035
				c0.014,0.522-0.026,1.141-0.026,1.141s-0.06,1.575,0.705,2.363c0.765,0.788,1.083,0.996,1.529,0.419
				c0.442-0.578,0.954-1.576,0.252-2.207c-0.702-0.629-1.593-0.735-1.403-1.154c0.191-0.421,0.445-0.734,0.445-0.734
				s0.255-0.107,0.317-0.369c0.064-0.264,0.255-0.314,0.255-0.737c-0.001-0.42-0.002-1.049-0.002-1.049s0.001,0.788,0.511,0.89
				c0.51,0.106,1.148-0.053,1.274-0.368c0.128-0.315,0.127-1.26,0.317-1.472c0.192-0.21,0.255-0.47,0.764-0.264
				c0.51,0.211,0.191,0.262,0.638,0.526c0.444,0.262,0.445,0.367,0.319,0.63c-0.128,0.264-0.318,0.578-0.19,0.788
				c0.127,0.209,0.191,0.315,0.318,0.63c0.129,0.315,0.384,0.578,0.384,0.578s0.509,0.261,0.636,0.049
				c0.128-0.208,0.127-0.945,0.127-0.945s0.194,1.682,0.321,2.155c0.128,0.471,0.321,1.1,0.064,1.416
				c-0.255,0.315-0.636,1.524-0.697,1.946c-0.065,0.419,0.063,1.154,0.319,1.47c0.255,0.316,0.598,0.648,1.295,0.279l0.998-0.861
				c0.254-0.42,0.507-0.58,0.443-0.945c-0.063-0.368-0.19-0.472-0.319-0.682c-0.125-0.21-0.19-0.264-0.125-0.422
				c0.061-0.156,0.124-0.473,0.123-0.734c0-0.264-0.125-0.63-0.319-1.103c-0.191-0.473-0.762-0.579-0.317-1.682
				c0.442-1.104,1.397-1.838,1.397-2.207c0-0.367-0.193-0.84-0.194-1.366c0-0.524,0.063-1.26,0.063-1.629
				c0-0.367,0.064-0.576-0.256-0.788c-0.318-0.208-1.145-0.156-1.209-1.204c-0.065-1.053-0.065-1.367,0.19-1.787
				c0.252-0.423,0.38-0.632,0.571-0.526c0.192,0.102,0.256,0.103,0.445,0.524c0.192,0.419,0.321,0.683,0.385,0.893
				c0.063,0.21,0.191-0.105,0.191,0.417c0,0.527-0.064,0.527,0,0.896c0.064,0.369-0.253,1.837,0.065,2.363
				c0.32,0.527,1.086,1.522,0.958,2.362c-0.126,0.841-0.316,0.998-0.252,1.209c0.063,0.211,0.382,0.577,0.573,0.316
				c0.19-0.264,0.764-1,0.889-1.578c0.128-0.577,0.128-1.259,0.128-1.259s0.382-0.003,0.508,0.313
				c0.127,0.316,0.066,0.841-0.125,1.052c-0.192,0.208-0.129,0.158-0.447,0.629c-0.317,0.473-0.762,1.21-0.635,1.471
				c0.129,0.264,0.32,1.052,0.828,0.999c0.51-0.054,1.083-0.317,1.083-0.317s0.446,0.21,0.446,0.525
				c0,0.316,0.129,0.733,0.129,0.733l0.382,0c0,0,0.192,0.106,0.319-0.104c0.126-0.211,0.254-0.314,0.253-0.528
				c0.001-0.208,0-0.417,0-0.575c0-0.158,0.255-0.683,0.255-0.683s0.191,0.262,0.192,0.525c0,0.263,0.063,0.525-0.066,0.841
				c-0.125,0.315-0.633,1.05-0.761,1.207c-0.128,0.158-0.191,0.632-0.191,0.632s-0.063,0.208,0.255,0.42
				c0.318,0.211,0.382,0.211,0.7,0.367c0.317,0.158,0.7,0.417,0.891,0.262c0.193-0.16,0.319-0.263,0.319-0.579
				c0-0.315,0.639-0.369,0.639-0.369s0.38-0.367,0.444-0.104c0.065,0.263-0.699,0.264-0.127,0.472
				c0.574,0.209,0.637-0.001,0.829-0.265c0.19-0.262,0.254-0.422,0.254-0.577c-0.001-0.16-0.194-0.315-0.194-0.473
				c0-0.158-0.126-0.473-0.126-0.473s0.125-0.315,0.125-0.473c0.001-0.158-0.126-0.524-0.19-0.681
				c-0.063-0.159,0.319-0.579,0.382-0.84c0.063-0.263,0.128-0.737-0.064-1c-0.191-0.262-0.19-0.522,0.063-0.577
				c0.253-0.052,1.273-0.526,1.4-0.998c0.126-0.474-0.193-1.472-0.258-2.05c-0.063-0.578-0.574-1.208-0.51-1.471
				c0.063-0.263,0.507-1.154,0.7-1.576c0.189-0.42,0.187-1.05,0.316-1.418c0.128-0.368,0.19-0.578,0.572-0.947
				c0.03-0.027,0.055-0.053,0.081-0.078l0.054,0.447c0,0,0.184-0.561,0.429-0.712c0.247-0.153,0.617-0.153,0.677-0.306
				c0.06-0.151-0.124-0.254-0.124-0.254s-0.307-0.1-0.555-0.152c-0.075-0.016-0.162-0.036-0.244-0.057
				c-0.026-0.078-0.048-0.148-0.063-0.197c-0.061-0.203,0-0.356,0.185-0.407c0.185-0.051,0.925,0.405,0.986-0.052
				c0,0,0.185-0.101,0.431-0.202c0.246-0.102,0.677-0.459,0.677-0.459c0.183-0.382,0.831-1.932,0.922-2.39
				c0.09-0.456,0.46-0.989,0.554-1.218c0.09-0.229,0.55-1.45,0.736-1.907c0.184-0.458,0.737-0.915,0.922-1.449
				c0.185-0.533,0.739-0.839,1.017-1.145c0.276-0.303,0.924-0.685,1.476-0.535c0.555,0.153,1.573,0.227,2.034-0.153
				c0.461-0.382,0.83-0.533,1.107-0.688c0.278-0.152,1.017-0.534,1.199-0.915c0.186-0.382,0.277-0.99,0.462-0.763
				c0.185,0.227,0.277,0.304,0.093,0.61c-0.185,0.306-0.738,0.837-0.738,0.837l-0.276,0.459l0.001,0.533l0.09,0.687
				c0,0-0.183,0.228,0.278,0.38c0.463,0.153,0.463,0.153,0.741,0.305c0.277,0.151,0.648,0.076,0.648,0.076l0.183-0.688l-0.092-0.532
				l0.182-0.686c0,0,0.093-0.456,0.557-0.456c0.459-0.001,1.015,0.15,1.293-0.001c0.276-0.154-0.002-0.687-0.002-0.687l-0.185-0.457
				c0,0-0.402-0.203-0.463-0.407c-0.063-0.202-0.246-0.304-0.43-0.405c-0.185-0.101-0.494-0.048-0.556-0.255
				c-0.063-0.201-0.063-0.201-0.184-0.405c-0.124-0.202-0.185-0.406-0.433-0.405c-0.247,0.001-0.554,0.255-1.171,0.204
				c-0.617-0.05-0.43,0.152-0.617-0.05c-0.185-0.203-0.185-0.609,0.247-0.558c0.433,0.049,1.133,0.03,1.355,0.047
				c0.479,0.042,0.066-0.318-0.143-0.478l0.512,0.176c0,0-0.183,0.558,0.063,0.558c0.247,0,0.552-0.255,0.492-0.558
				c-0.063-0.306,0.247-0.204,0.554-0.104c0.308,0.103,0.678-0.609,0.678-0.609l-1.553,0.281c0.046-0.069-0.005-0.179,0.027-0.305
				c0.046-0.191,0.415-0.229,0.415-0.229c0.02-0.014,0.046-0.02,0.063-0.029l-0.125,0.332c0.308-0.203,0.924-0.254,1.355-0.354
				c0.431-0.104,0.678-0.154,1.108-0.255c0.117-0.028,0.205-0.091,0.276-0.171c0.129,0.007,0.218,0.018,0.218,0.018
				c-0.043-0.068-0.074-0.14-0.089-0.215c0.107-0.211,0.173-0.478,0.272-0.7c0.039-0.085,0.087-0.228,0.137-0.401
				c0.029-0.034,0.049-0.056,0.049-0.056l-0.045,0.044c0.19-0.649,0.424-1.75,0.473-2.228c0.062-0.612-0.001-1.726-0.188-2.439
				c-0.058-0.225-0.191-0.41-0.352-0.577c-0.009-0.019-0.018-0.031-0.018-0.031l0.002,0.016c-0.099-0.103-0.21-0.197-0.317-0.293
				l0.488-1.292c0.155,0.47,0.367,0.98,0.445,1.415c0.123,0.712,0.802,2.031,0.802,2.031s0.125,0.66,0.185,1.218
				c0.063,0.561-0.245,1.271-0.431,1.78c-0.184,0.506-0.104,2.336-0.104,2.336c0.048,0.877,0.325,0.952,0.464,1.143
				c0.139,0.189,0.37,0.417,0.786,0.761c0.415,0.343,0.925,0.799,1.295,1.294c0.37,0.495,0.972,2.285,1.435,3.847
				c0.464,1.563,1.25,2.02,1.25,2.02s0.555,0.303,0.972,0.799c0.415,0.495,0.554,0.647,1.387,1.599
				c0.833,0.951,0.924,0.456,1.617,0.723c0.695,0.265,0.601-0.078,1.016-0.152c0.417-0.078,0.417-0.23,0.369-0.459
				c-0.046-0.228,0.23-0.114,0.37-0.077c0.139,0.039,0.462,0.419,0.694,0.572c0.23,0.153,0.415,0.114,0.415,0.114l0.602,0.418
				l0.971,0.304l0.783-0.229c0,0,0.278-0.115,0.971,0.036c0.693,0.154,0.877-0.493,1.109-0.725c0.229-0.227-0.417-0.417-0.556-0.608
				c-0.137-0.19,0.369-0.611,0.369-0.611l-0.508-0.572l-0.741-0.609c0,0,0.046-0.114,0.045-0.418c0-0.305-0.322-0.381-0.322-0.381
				l-0.186-0.266l0.324-0.343l1.247-0.459l0.647,0.152l0.97,0.151c0,0,0.554,0.037,1.293,0.341c0.739,0.306,0.232-0.8-0.001-0.951
				c-0.23-0.153-0.23-0.344,0-0.383c0.232-0.036,0.463,0.039,0.738-0.152c0.278-0.191,0.278-0.191,0.324-0.497
				c0.046-0.303,0.6-0.646,0.784-0.761c0.186-0.114,0.232-0.534,0.368-0.878c0.141-0.342,0.323-0.265,0.463-0.188
				c0.137,0.075,0.137,0.379,0.23,0.876c0.095,0.494-0.368,0.456-0.643,0.724c-0.278,0.267-0.093,0.342-0.093,0.535
				c0,0.19,0.094,0.419,0.463,0.875c0.369,0.457,1.11,1.601,1.573,2.133c0.463,0.533,1.988,1.711,2.682,2.59
				c0.693,0.875,1.898,3.273,2.129,3.654c0.232,0.381,0.786,1.601,1.018,2.552c0.232,0.952,0.278,1.601,0.511,2.173
				c0.232,0.569,0.555,0.302,0.785,0.265c0.229-0.039,0-0.497-0.232-0.952c-0.232-0.459-0.187-0.382-0.093-0.609
				c0.092-0.229,0.228,0.151,0.276,0.38c0.047,0.228,0.418,0.456,0.464,0.686c0.046,0.231,0.092,0.952,0.046,1.105
				c-0.046,0.153-0.231,1.181-0.277,1.371c-0.044,0.191,0.188,0.762,0.233,0.99c0.047,0.229,0.415,0.304,0.6,0.381
				c0.185,0.076,0.232,0.114,0.232,0.114l-0.138,0.572c0,0,0.139,0.343,0.557,0.915c0.416,0.571,0.139,0.495,0.185,1.026
				c0.046,0.534-0.044,1.03-0.044,1.259c0,0.23,0.553,0.419,0.692,0.494c0.139,0.076,0.418,0.532,0.324,0.722
				c-0.093,0.193-0.368,0.689-0.46,1.908c-0.088,1.22,0.88,0.99,0.88,0.99s0.6,0.114,0.831,0.229
				c0.231,0.114,0.139,0.342,0.093,0.494c-0.045,0.153-0.183,0.496-0.275,0.762c-0.094,0.268-0.232,0.686-0.185,1.068
				c0.048,0.382,0.418,0.534,0.601,0.876c0.187,0.343,0.556,0.266,0.695,0.266c0.139,0,0.277-0.114,0.554-0.114
				c0.277,0,0.094,0.191,0,0.303c-0.092,0.116-0.276,0.572-0.321,0.879c-0.047,0.304,0.187,1.448,0.188,1.906
				c0,0.456-0.045,0.989-0.185,1.562c-0.139,0.571-0.507,0.075-0.738,0.839c-0.23,0.761,0.232,1.218,0.323,1.446
				c0.094,0.23,1.344,2.172,1.62,2.779c0.278,0.611,0.139,2.021,0.371,2.858c0.233,0.838,1.343,2.096,1.436,2.399
				c0.093,0.305,0.509,0.724,0.786,1.067c0.278,0.342,0.74,1.183,1.296,2.056c0.554,0.878,1.991,3.695,2.36,4.304
				c0.37,0.609,0.23,0.42,0.322,0.533c0.094,0.116,0.509,0.61,0.787,0.916c0.279,0.303,0.232-0.076,0.183-0.46
				c-0.044-0.38-1.341-3.007-1.388-3.276c-0.047-0.265-0.557-1.561-0.648-2.055c-0.093-0.495-0.092-0.647-0.232-1.068
				c-0.14-0.416-0.139-0.532-0.371-0.991c-0.232-0.456-0.509-1.181-0.926-1.559c-0.416-0.38-0.649-1.068-0.742-1.447
				c-0.09-0.383,0.186-0.305,0.186-0.305s0.23-0.115,0.415-0.192c0.1-0.041,0.076-0.17,0.037-0.281
				c0.074,0.095,0.157,0.198,0.198,0.326c0.002,0.01,0.003,0.024,0.007,0.037l0.036-0.929c0.255-0.052,0.449-0.464,0.505-0.704
				c0.049-0.194,0.169-1.066,0.222-1.445c0.005,0.012,0.014,0.021,0.019,0.033l0.114-1.425c0.07-0.085,0.138-0.227,0.196-0.464
				c0.165-0.69,0.383-0.755,0.606-0.949c-0.069,0.153-0.117,0.286-0.117,0.286l1.58-0.832c0.091,0.007,0.172,0.019,0.271,0.019
				c0.184-0.001,0.247-0.355,0.247-0.355s-0.125-0.305-0.125-0.558c0-0.253,0.185-0.101,0.368-0.306
				c0.061-0.065,0.16-0.075,0.275-0.062c-0.07,0.012-0.136,0.031-0.202,0.055l1.76,1.008c0.027,0.04,0.054,0.08,0.079,0.117
				c0.243,0.352,0.123,0.507,0.185,0.913c0.06,0.405,0.491,0.456,0.924,0.763c0.363,0.255,0.508-0.03,0.543-0.126
				c0.104-0.051,0.181-0.131,0.252-0.213c0.075-0.029,0.177-0.057,0.314-0.071c0.081-0.01,0.134-0.013,0.172-0.015
				c0.038,0.09,0.075,0.195,0.145,0.252c0.075,0.06,0.138,0.082,0.189,0.057c0.326,0.178,0.111-0.091,0.111-0.091
				s0.185-0.203,0.492-0.153c0.308,0.051,0.493,0.864,0.556,1.473c0.02,0.193,0.026,0.336,0.051,0.47l-0.163-0.23
				c0,0,0.002,0.002,0.199,0.381c0.073,0.242,0.234,0.51,0.654,1.054c0.74,0.965,1.662-0.713,1.662-0.713
				S269.365,158.138,269.364,157.884z M247.098,111.495l-0.007-0.029l0.006,0.016L247.098,111.495l0.046,0.181
				c0,0-0.001,0.127,0.014,0.313L247.098,111.495z M261.996,63.885c0.032,0.02,0.063,0.037,0.095,0.056
				c-0.086-0.041-0.145-0.083-0.19-0.127C261.934,63.838,261.961,63.862,261.996,63.885z M261.878,62.891
				c0.005-0.02,0.008-0.032,0.01-0.046c0.029,0.097,0.025,0.196-0.061,0.268c-0.014,0.008-0.021,0.02-0.029,0.028
				C261.824,63.067,261.856,62.985,261.878,62.891z M251.732,79.259c0.084-0.106,0.286-0.02,0.561,0.06
				c-0.046-0.002-0.092-0.003-0.14-0.003c-0.179,0-0.322-0.025-0.432-0.042C251.727,79.271,251.73,79.264,251.732,79.259z
				 M247.215,83.341c-0.021,0.014-0.044,0.028-0.074,0.045c-0.029,0.016-0.053,0.033-0.078,0.05c0.005-0.06-0.009-0.109-0.009-0.109
				S247.114,83.336,247.215,83.341z M157.484,65.851c0.141,0.069,0.298,0.089,0.298,0.089s0.152-0.064,0.338-0.139
				C157.923,65.915,157.704,66.057,157.484,65.851z M159.032,65.806c-0.017,0.007-0.036,0.01-0.055,0.013
				c0.008-0.061,0.016-0.127,0.033-0.186c0.01-0.039,0.014-0.07,0.014-0.099C159.144,65.638,159.207,65.734,159.032,65.806z
				 M173.802,58.594c0,0-0.01-0.002-0.024-0.005c0.011-0.013,0.025-0.027,0.037-0.036C173.807,58.576,173.802,58.594,173.802,58.594
				z M175.139,56.44c-0.157,0.032-0.276,0.045-0.372,0.054c0.21-0.067,0.457-0.125,0.694-0.197
				C175.393,56.354,175.296,56.406,175.139,56.44z M189.992,37.973c0.125-0.306,0.062-0.611,0.062-0.764
				c-0.001-0.041,0.044-0.102,0.108-0.173c-0.002,0.005-0.007,0.009-0.008,0.013c-0.123,0.306,0.063,0.915-0.185,1.119
				c-0.246,0.203-0.491-0.051-0.491-0.051s-0.006-0.025-0.009-0.063C189.65,38.23,189.875,38.262,189.992,37.973z M190.791,86.312
				c-0.599,1.187-1.545,2.126-2.842,2.816c-1.294,0.688-2.89,1.033-4.786,1.035c-2.25,0.003-4.069-0.486-5.457-1.463
				c-1.383-0.981-2.055-2.011-2.01-3.984l3.107,0c0.133,0.93,0.496,1.603,1.088,2.029c0.795,0.572,1.878,0.857,3.251,0.857
				c1.481-0.002,2.626-0.289,3.43-0.864c0.803-0.573,1.349-1.378,1.631-2.408c0.166-0.632,0.241-1.955,0.229-3.973
				c-1.397,1.594-3.136,2.393-5.222,2.395c-2.595,0.002-4.603-0.9-6.025-2.71c-1.424-1.809-2.138-3.98-2.14-6.515
				c-0.002-1.74,0.324-3.348,0.973-4.824c0.651-1.472,1.594-2.611,2.831-3.414c1.237-0.804,2.692-1.207,4.361-1.208
				c2.228-0.002,4.065,0.869,5.51,2.606l-0.002-2.199l2.951-0.004l0.016,15.784C191.683,83.11,191.389,85.125,190.791,86.312z
				 M194.338,34.05c0,0-0.008-0.026-0.02-0.069c0.037,0.068,0.073,0.139,0.113,0.223c0.009,0.024,0.021,0.044,0.032,0.067
				C194.264,34.149,194.338,34.05,194.338,34.05z M196.761,52.743c0.014,0.003,0.03,0.002,0.046,0l0.019,0.162
				C196.788,52.811,196.761,52.743,196.761,52.743z M197.902,55.835c0.092-0.06,0.189-0.116,0.28-0.161
				C198.108,55.758,198.069,55.849,197.902,55.835z M217.783,97.914l0.038-0.099l0.116-0.13
				C217.897,97.74,217.845,97.822,217.783,97.914z M218.84,96.652l0.076-0.088C218.917,96.564,218.891,96.6,218.84,96.652z
				 M233.691,89.798c0.04-0.123,0.1-0.28,0.2-0.447l-0.013,0.289l0.065,0.012C233.826,89.701,233.741,89.757,233.691,89.798z
				 M224.694,80.605c-1.631-1.649-2.447-4.024-2.451-7.13c-0.003-3.402,0.966-5.924,2.907-7.565
				c1.621-1.363,3.598-2.045,5.932-2.048c2.594-0.003,4.715,0.823,6.363,2.476c1.647,1.654,2.474,3.942,2.476,6.86
				c0.002,2.366-0.359,4.227-1.087,5.582c-0.726,1.357-1.786,2.412-3.176,3.162c-1.393,0.751-2.911,1.127-4.557,1.128
				C228.46,83.073,226.324,82.251,224.694,80.605z M235.504,112.499c0,0-0.157-0.129-0.415-0.533
				c0.259,0.209,0.688,0.533,1.031,0.789L235.504,112.499z M240.743,115.035c0,0-0.012-0.014-0.028-0.036
				c0.018,0.015,0.036,0.03,0.056,0.044L240.743,115.035z M241.419,115.238l-0.05-0.015c0.026-0.006,0.051-0.014,0.079-0.024
				L241.419,115.238z M251.689,97.395c0,0-0.002-0.008-0.007-0.02c0.012,0.006,0.019,0.012,0.029,0.017
				c0.007,0.002,0.01,0.004,0.017,0.007C251.703,97.397,251.689,97.395,251.689,97.395z M262.174,116.956
				c0.015,0.123,0.032,0.239,0.048,0.322C262.186,117.186,262.176,117.073,262.174,116.956z M266.448,137.213
				c-0.109-0.182-0.076-0.306,0.019-0.389c0.163,0.189,0.41,0.537,0.511,1.026c0.018,0.097,0.039,0.19,0.061,0.28
				C266.815,137.777,266.58,137.429,266.448,137.213z M163.664,49.088c-0.187-0.15-0.495,0.001-0.495,0.001l0.795,0.264
				C163.933,49.202,163.822,49.219,163.664,49.088z M195.667,36.898c0.058-0.036,0.108-0.087,0.148-0.141l-0.296-0.22
				C195.47,36.775,195.45,37.034,195.667,36.898z M257.995,158.897c0.051-0.102,0.026-0.217-0.029-0.332l-0.051,0.633
				C257.927,159.098,257.951,158.989,257.995,158.897z M229.465,130.729c-0.393-0.54-0.527-1.297-0.918-1.834
				c-0.395-0.54-0.786,0.431-0.918,1.08c0,0-0.118,1.229,0.008,1.838c0.124,0.61-0.123,2.235-0.367,2.744
				c-0.247,0.507-0.683,1.466-0.682,2.006c0.001,0.541,0.524,0.54,1.181,0.109c0.652-0.432,1.175-0.974,1.7-1.513
				c0.523-0.541,0.523-1.082,0.786-1.622c0.26-0.54-0.133-0.755-0.396-1.511C229.596,131.268,229.859,131.267,229.465,130.729z
				 M250.754,149.876c-0.061-0.202-0.184-0.557-0.247-0.761c-0.062-0.201-0.37-0.659-0.37-0.659s-0.185-0.459-0.307-0.661
				c-0.126-0.204-0.371-0.204-0.371-0.204c-0.246-0.051-0.37,0.61-0.431,0.966c-0.062,0.359-0.305,0.814-0.677,0.966
				c-0.367,0.154-0.308,0.355-0.429,0.559c-0.122,0.202-0.182,1.422,0.002,2.388c0.187,0.966,0.74,0.812,1.542,1.22
				c0.801,0.403,0.923-0.359,1.046-0.612c0.124-0.254,0.124-0.355,0.245-0.561c0.123-0.201,0.308-0.253,0.371-0.558
				c0.06-0.303-0.064-1.015-0.125-1.167C250.939,150.638,250.815,150.08,250.754,149.876z M248.105,148.965
				c0.184,0.407,0.369-0.049,0.43-0.357c0.061-0.306,0.122-0.558,0.245-0.914c0.122-0.356,0.183-0.965,0.183-0.965
				c-0.185-0.252-0.369,0.507-0.676,1.068C247.981,148.355,247.92,148.557,248.105,148.965z M249.889,146.577
				c0.122-0.255,0.123-0.205,0.431-0.256c0.308-0.05-0.13-0.292-0.308-0.354c-0.432-0.153-0.618,0.306-0.554,0.558
				C249.518,146.778,249.766,146.831,249.889,146.577z M248.53,143.579c0-0.154,0.062-0.558,0.061-0.761
				c0-0.205-0.123-0.308-0.309-0.561c-0.183-0.253-0.616-0.202-0.616-0.202c-0.368-0.101-0.431,0.408-0.307,0.611
				c0.125,0.202,0.186,0.305,0.186,0.305s0.188,1.98,0.125,2.437c-0.06,0.456-0.059,1.322-0.059,1.322s0,0,0.123-0.255
				c0.122-0.255,0.613-0.913,0.738-1.068C248.594,145.254,248.53,143.731,248.53,143.579z M239.583,128.602
				c-0.308-0.356-0.371-0.662-0.617-0.966c-0.246-0.303-0.556-1.067-0.863-1.472c-0.309-0.406-0.433-0.202-0.615,0.001
				c0,0-0.614,0.914-0.677,1.372c-0.061,0.456,0.493,0.965,0.74,1.472c0.248,0.507,0.864,1.066,1.05,1.269
				c0.184,0.203,0.614,0.101,0.924,0.149c0.308,0.053,0.554-0.353,0.554-0.353s0.123-0.304,0.061-0.509
				C240.078,129.363,239.892,128.957,239.583,128.602z M234.158,123.629l-0.183,0.607c0,0-0.185,0.968-0.185,1.272
				c0.001,0.305,0.186,0.711,0.186,0.711s0.185-0.051,0.368-0.051c0.185-0.001,0.247-0.154,0.246-0.51c0-0.354,0,0-0.185-0.304
				c-0.184-0.304-0.001-0.355-0.062-0.609c-0.063-0.255,0.369-1.118,0.369-1.118L234.158,123.629z M234.526,122.408
				c0,0-0.43,0.051-0.676,0.408c-0.248,0.355,0.246,0.303,0.246,0.303l0.923-0.255c0,0,0.185-0.254,0.184-0.458
				C235.204,122.204,235.079,122.204,234.526,122.408z M172.738,54.881l1.229,0.157c-0.109-0.079-0.227-0.181-0.368-0.311
				C173.105,54.27,172.738,54.881,172.738,54.881z M160.864,79.316l1.427,0.031C161.96,78.802,161.233,79.07,160.864,79.316z
				 M172.975,109.006l-0.324-0.168C172.782,109.043,172.975,109.006,172.975,109.006z M151.87,69.095l0.16-0.138
				C151.892,69.046,151.87,69.095,151.87,69.095z M257.892,159.452l0.023-0.253C257.893,159.337,257.892,159.452,257.892,159.452z
				 M175.757,139.15l-0.104-0.427C175.654,138.722,175.688,138.951,175.757,139.15z M257.184,161.611l-0.028,0.684
				C257.191,162.131,257.24,161.842,257.184,161.611z M257.126,163.056l0.03-0.761c-0.017,0.076-0.03,0.124-0.03,0.124
				L257.126,163.056z"/>
			<path fill="#FDCE1C" d="M43.41,63.669l0.05,50.85c0.005,4.437-0.429,7.209-1.303,8.318c-0.875,1.11-2.205,1.667-3.988,1.669
				c-0.423,0-0.917-0.039-1.471-0.114l0.007,7.197c0.837,0.076,1.683,0.114,2.54,0.114c4.898-0.005,8.398-1.527,10.504-4.568
				c1.65-2.339,2.474-6.488,2.468-12.44l-0.051-51.034L43.41,63.669z"/>
		</g>
	</g>
</g>
</svg>
